<?xml version="1.0" encoding="utf-8"?>
<!-- Generator: Adobe Illustrator 21.0.0, SVG Export Plug-In . SVG Version: 6.00 Build 0)  -->
<svg version="1.1" id="Layer_1" xmlns="http://www.w3.org/2000/svg" xmlns:xlink="http://www.w3.org/1999/xlink" x="0px" y="0px"
	 viewBox="0 0 334.7 396.3" style="enable-background:new 0 0 334.7 396.3;" xml:space="preserve">
<style type="text/css">
	.st0{clip-path:url(#SVGID_2_);fill:#FAC693;}
	.st1{clip-path:url(#SVGID_4_);fill:#FAC693;}
	.st2{fill:#D0D0D0;}
	.st3{clip-path:url(#SVGID_7_);fill:#D0D0D0;}
	.st4{fill:#FAC693;}
	.st5{clip-path:url(#SVGID_9_);fill:#FAC693;}
	.st6{clip-path:url(#SVGID_11_);fill:#FAC693;}
</style>
<g>
	<g id="XMLID_53_">
		<g>
			<g>
				<g>
					<g>
						<g>
							<defs>
								<path id="SVGID_1_" d="M302.4,245.9c-2.1,11.5-40.2,92.5-113.9,105.5c-29.8,5.2-34,13.6-26.6,21.4
									c6.3,1.6,12.5,2.6,18.8,3.1c48.1-4.2,97.7-39.2,125.4-85.7c6.8-12,11.5-25.1,14.1-38.1c-4.7-5.7-9.9-11-13.6-11
									C304.5,241.2,303.5,242.2,302.4,245.9"/>
							</defs>
							<clipPath id="SVGID_2_">
								<use xlink:href="#SVGID_1_"  style="overflow:visible;"/>
							</clipPath>
							<rect id="XMLID_55_" x="154.6" y="241.2" class="st0" width="165.1" height="135.3"/>
						</g>
					</g>
				</g>
			</g>
		</g>
	</g>
	<g id="XMLID_50_">
		<g>
			<g>
				<g>
					<g>
						<g>
							<defs>
								<rect id="SVGID_3_" x="62.1" y="15.5" width="229.8" height="23.5"/>
							</defs>
							<clipPath id="SVGID_4_">
								<use xlink:href="#SVGID_3_"  style="overflow:visible;"/>
							</clipPath>
							<rect id="XMLID_52_" x="62.1" y="15.5" class="st1" width="229.8" height="23.5"/>
						</g>
					</g>
				</g>
			</g>
		</g>
	</g>
	<g id="XMLID_47_">
		<g>
			<g>
				<g>
					<g>
						<path id="SVGID_5_" class="st2" d="M0,15.5v99.8l280,209.5c12.5-12.5,23.5-26.6,32.9-42.3c12.5-21.4,18.3-46,20.4-69
							L67.9,15.5H0L0,15.5z"/>
					</g>
					<g>
						<g>
							<defs>
								<path id="SVGID_6_" d="M0,15.5v99.8l280,209.5c12.5-12.5,23.5-26.6,32.9-42.3c12.5-21.4,18.3-46,20.4-69L67.9,15.5H0L0,15.5
									z"/>
							</defs>
							<clipPath id="SVGID_7_">
								<use xlink:href="#SVGID_6_"  style="overflow:visible;"/>
							</clipPath>
							<rect id="XMLID_49_" x="0" y="15.5" class="st3" width="332.2" height="309.2"/>
						</g>
					</g>
				</g>
			</g>
		</g>
	</g>
	<g id="XMLID_44_">
		<g>
			<g>
				<g>
					<path class="st4" d="M333.2,213.5c-2.1,23-7.8,47.5-20.4,69c-9.4,15.7-20.4,29.8-32.9,42.3l0,0c-6.3,6.3-13.1,12.5-19.8,17.8
						l0,0c-27.7,21.4-60.6,36-92.5,39.2c-56.4-4.7-113.9-45.4-145.2-99.2C-2.6,240.7,0,185.8,0,156.6v-8.4l240.8,180.2
						c7.3-5.2,14.1-11.5,20.4-17.8L0,115.3V15.5h67.9L333.2,213.5z"/>
					<polygon class="st4" points="334.3,15 334.3,183.7 109.7,15.5 					"/>
				</g>
				<g>
					<g>
						<g>
							<defs>
								<path id="SVGID_8_" d="M109.7,15.5l224.6,168.2c0-10.4,0-19.8,0-27.7V15L109.7,15.5L109.7,15.5z"/>
							</defs>
							<clipPath id="SVGID_9_">
								<use xlink:href="#SVGID_8_"  style="overflow:visible;"/>
							</clipPath>
							<rect id="XMLID_46_" x="109.7" y="15.5" class="st5" width="225.1" height="168.2"/>
						</g>
					</g>
				</g>
			</g>
		</g>
	</g>
	<g id="XMLID_41_">
		<g>
			<g>
				<g>
					<g>
						<g>
							<defs>
								<path id="SVGID_10_" d="M0,156.6c0,29.3-2.6,84.1,22.5,125.9c31.3,53.8,88.8,94.5,145.2,99.2c31.9-3.1,64.8-17.8,92.5-39.2
									L0,148.2V156.6z"/>
							</defs>
							<clipPath id="SVGID_11_">
								<use xlink:href="#SVGID_10_"  style="overflow:visible;"/>
							</clipPath>
							<rect id="XMLID_43_" x="-2.1" y="148.2" class="st6" width="262.2" height="234"/>
						</g>
					</g>
				</g>
			</g>
		</g>
	</g>
</g>
</svg>
