<?xml version="1.0" encoding="utf-8"?>
<!-- Generator: Adobe Illustrator 21.0.0, SVG Export Plug-In . SVG Version: 6.00 Build 0)  -->
<svg version="1.1" id="Layer_1" xmlns="http://www.w3.org/2000/svg" xmlns:xlink="http://www.w3.org/1999/xlink" x="0px" y="0px"
	 viewBox="0 0 150.4 94.6" style="enable-background:new 0 0 150.4 94.6;" xml:space="preserve">
<style type="text/css">
	.st0{fill:none;stroke:#DF8C57;stroke-width:1.3208;stroke-miterlimit:10;}
	.st1{fill:none;stroke:#70ACC9;stroke-width:1.1545;stroke-miterlimit:10;}
	.st2{fill:none;stroke:#70ACC9;stroke-width:0.6385;stroke-miterlimit:10;}
	.st3{fill:url(#SVGID_1_);}
	.st4{fill:url(#SVGID_2_);}
</style>
<path class="st0" d="M99.5,81.7"/>
<path class="st0" d="M15.5,33.3"/>
<path class="st0" d="M44,16.9"/>
<path class="st0" d="M127.8,65.2"/>
<path class="st1" d="M149,47.3c1.3,2.3,0.6,5.4-1.9,6.9L80.8,92.5c-3.6,2.1-8,2.1-11.5,0L3.1,54.2c-2.5-1.5-3.2-4.5-1.9-6.8"/>
<path class="st1" d="M69.3,87.6L3.1,49.3c-3.4-2-3.4-6.8,0-8.8L69.4,2.2c3.6-2.1,8-2.1,11.5,0l66.3,38.3c3.4,2,3.4,6.8,0,8.8
	L80.9,87.6C77.3,89.7,72.9,89.7,69.3,87.6z"/>
<g>
	<path class="st2" d="M116,43.4c0.7,1.3,0.4,3-1.1,3.8L78.3,68.4c-2,1.1-4.4,1.1-6.4,0L35.3,47.2c-1.4-0.8-1.8-2.5-1.1-3.8"/>
	<path class="st2" d="M71.9,65.7L35.3,44.5c-1.9-1.1-1.9-3.8,0-4.9l36.6-21.2c2-1.1,4.4-1.1,6.4,0l36.6,21.2c1.9,1.1,1.9,3.8,0,4.9
		L78.3,65.7C76.3,66.8,73.9,66.8,71.9,65.7z"/>
</g>
<linearGradient id="SVGID_1_" gradientUnits="userSpaceOnUse" x1="70.7272" y1="55.2022" x2="102.8273" y2="55.2022" gradientTransform="matrix(1 0 0 -1 0 100.3044)">
	<stop  offset="0" style="stop-color:#E49F68"/>
	<stop  offset="1" style="stop-color:#F0BF79"/>
</linearGradient>
<polygon class="st3" points="70.7,56.6 86.9,55.3 82.3,52.6 102.8,40.8 90.6,33.7 85.8,36.5 93.2,40.8 77.5,49.9 72.9,47.2 "/>
<linearGradient id="SVGID_2_" gradientUnits="userSpaceOnUse" x1="47.4273" y1="61.1522" x2="79.5272" y2="61.1522" gradientTransform="matrix(1 0 0 -1 0 100.3044)">
	<stop  offset="0" style="stop-color:#E49F68"/>
	<stop  offset="1" style="stop-color:#F0BF79"/>
</linearGradient>
<polygon class="st4" points="59.6,50.6 64.4,47.9 57,43.6 72.7,34.5 77.3,37.1 79.5,27.8 63.3,29.1 67.9,31.7 47.4,43.6 "/>
</svg>
