<svg aria-hidden="true" style="position: absolute; width: 0; height: 0; overflow: hidden;" version="1.1" xmlns="http://www.w3.org/2000/svg" xmlns:xlink="http://www.w3.org/1999/xlink">
<defs>


<symbol id="icon-BNB" viewBox="0 0 32 32">
<title>BNB</title>
<path fill="#bfc2c5" style="fill: var(--color1, #bfc2c5)" d="M16.16 0c0.064 0.32 0.336 0.464 0.544 0.672 2.864 2.864 5.712 5.744 8.608 8.592 0.496 0.48 0.464 0.736-0.016 1.184-0.896 0.832-1.76 1.696-2.608 2.592-0.384 0.4-0.592 0.336-0.928-0.016-1.728-1.776-3.504-3.504-5.248-5.28-0.384-0.4-0.608-0.416-1.008 0-1.728 1.76-3.504 3.488-5.248 5.264-0.336 0.352-0.544 0.448-0.928 0.032-0.864-0.944-1.776-1.84-2.72-2.72-0.432-0.4-0.336-0.64 0.032-1.008 2.896-2.864 5.776-5.76 8.656-8.64 0.208-0.208 0.496-0.352 0.544-0.672 0.112 0 0.208 0 0.32 0z"></path>
<path fill="#bfc2c5" style="fill: var(--color1, #bfc2c5)" d="M15.84 32c-0.048-0.32-0.336-0.464-0.528-0.672-2.864-2.864-5.712-5.744-8.608-8.592-0.496-0.48-0.464-0.736 0.016-1.184 0.88-0.8 1.744-1.648 2.544-2.544 0.432-0.48 0.656-0.384 1.056 0.032 1.712 1.76 3.472 3.472 5.184 5.216 0.4 0.4 0.624 0.384 1.008-0.016 1.728-1.776 3.504-3.504 5.248-5.28 0.352-0.352 0.56-0.416 0.928-0.016 0.832 0.896 1.696 1.776 2.608 2.592 0.48 0.448 0.496 0.704 0.016 1.184-2.896 2.848-5.744 5.712-8.608 8.592-0.208 0.208-0.48 0.352-0.544 0.672-0.112 0.016-0.208 0.016-0.32 0.016z"></path>
<path fill="#bfc2c5" style="fill: var(--color1, #bfc2c5)" d="M0 15.84c1.136-0.832 2.048-1.92 3.024-2.912 0.48-0.48 0.736-0.464 1.184 0.016 0.848 0.912 1.744 1.792 2.656 2.656 0.336 0.32 0.336 0.496 0 0.816-0.944 0.896-1.872 1.824-2.768 2.768-0.352 0.384-0.592 0.4-0.944 0.016-0.816-0.864-1.68-1.712-2.528-2.544-0.176-0.176-0.32-0.432-0.608-0.48-0.016-0.128-0.016-0.224-0.016-0.336z"></path>
<path fill="#bfc2c5" style="fill: var(--color1, #bfc2c5)" d="M32 16.16c-1.152 0.864-2.064 1.968-3.072 2.976-0.432 0.432-0.672 0.4-1.072-0.016-0.864-0.928-1.776-1.824-2.704-2.704-0.336-0.32-0.336-0.496 0-0.816 0.928-0.88 1.84-1.776 2.704-2.704 0.4-0.432 0.64-0.448 1.072-0.016 1.008 1.008 1.936 2.112 3.072 2.976 0 0.096 0 0.192 0 0.304z"></path>
<path fill="#bfc2c5" style="fill: var(--color1, #bfc2c5)" d="M19.664 16c-0.112 0.128-0.208 0.256-0.32 0.352-0.992 0.992-2 1.984-2.992 2.992-0.272 0.288-0.432 0.272-0.704 0-0.976-1.008-1.984-2.016-2.992-2.992-0.272-0.256-0.304-0.416-0.016-0.704 1.040-1.008 2.048-2.032 3.056-3.040 0.192-0.192 0.336-0.288 0.592-0.048 1.040 1.056 2.112 2.112 3.152 3.168 0.064 0.080 0.128 0.16 0.224 0.272z"></path>
</symbol>

<symbol id="icon-etherium" viewBox="0 0 20 32">
<title>Ethereum</title>
<path fill="#bfc2c5" style="fill: var(--color1, #bfc2c5)" d="M9.896 0.041c2.406 3.956 4.799 7.912 7.205 11.867 0.802 1.319 1.577 2.637 2.393 3.942 0.218 0.353 0.258 0.517-0.163 0.775-2.991 1.726-5.954 3.494-8.931 5.247-0.381 0.231-0.693 0.272-1.128 0-2.936-1.781-5.9-3.507-8.85-5.261-0.15-0.095-0.598-0.054-0.326-0.476 0.136-0.027 0.272-0.041 0.381-0.095 2.882-1.305 5.764-2.624 8.659-3.901 0.557-0.245 0.761-0.544 0.748-1.155-0.027-3.643 0-7.286 0.014-10.943z"></path>
<path fill="#bfc2c5" style="fill: var(--color1, #bfc2c5)" d="M9.896 0.041c-0.014 3.643-0.041 7.3-0.014 10.943 0 0.625-0.19 0.911-0.748 1.155-2.896 1.278-5.777 2.596-8.659 3.901-0.122 0.054-0.258 0.054-0.381 0.095 0.734-1.495 1.672-2.882 2.528-4.309 2.338-3.901 4.703-7.789 7.055-11.677 0.041-0.054 0.082-0.109 0.122-0.15 0.014-0.014 0.068 0.027 0.095 0.041z"></path>
<path fill="#bfc2c5" style="fill: var(--color1, #bfc2c5)" d="M19.439 18.624c-1.781 2.528-3.562 5.057-5.356 7.572-1.291 1.822-2.596 3.643-3.901 5.451-0.095 0.136-0.122 0.462-0.435 0.285 0.014-2.61 0.027-5.234 0.041-7.844 2.991-1.754 5.981-3.507 8.972-5.247 0.19-0.109 0.394-0.218 0.585-0.326 0.027 0.041 0.068 0.082 0.095 0.109z"></path>
<path fill="#bfc2c5" style="fill: var(--color1, #bfc2c5)" d="M9.788 24.102c-0.014 2.61-0.027 5.234-0.041 7.844-1.047-1.237-1.917-2.61-2.868-3.929-2.175-3.018-4.323-6.063-6.484-9.094-0.068-0.095-0.109-0.19-0.163-0.299 0.027-0.027 0.054-0.054 0.082-0.082 2.202 1.278 4.418 2.569 6.62 3.861 0.952 0.557 1.903 1.128 2.855 1.699z"></path>
<path fill="#828384" style="fill: var(--color2, #828384)" d="M0.109 18.474c-0.014-0.014-0.027-0.014-0.041-0.027 0.014 0 0.027 0.014 0.041 0.027 0 0 0 0 0 0z"></path>
<path fill="#828384" style="fill: var(--color2, #828384)" d="M0.231 18.624c-0.041-0.054-0.082-0.109-0.122-0.15 0 0-0.014 0.014-0.014 0.014 0.068 0.027 0.136 0.041 0.204 0.068-0.014 0.014-0.041 0.041-0.068 0.068z"></path>
<path fill="#2f3030" style="fill: var(--color3, #2f3030)" d="M19.344 18.528c0.054 0 0.15-0.027 0.163-0.014 0.054 0.068-0.014 0.095-0.082 0.109-0.014-0.027-0.054-0.068-0.082-0.095z"></path>
</symbol>

<symbol id="icon-sentinel" viewBox="0 0 29 32">
<title>Sentinel</title>
<path fill="#bfc2c5" style="fill: var(--color1, #bfc2c5)" d="M28.006 1.567v17.137c-0.657 2.376-2.376 6.572-6.673 9.403-0.91 0.607-3.64 2.427-6.825 2.427-5.156 0-10.464-4.853-12.992-11.779v-17.188h26.49zM29.523 0.051c-9.858 0-19.716 0-29.523 0 0 18.957 0 18.957 0 18.957 2.73 7.785 8.594 13.043 14.509 13.043 3.64 0 6.622-1.972 7.684-2.679 5.207-3.438 6.875-8.746 7.33-10.464 0-6.319 0-12.638 0-18.856v0z"></path>
<path fill="#bfc2c5" style="fill: var(--color1, #bfc2c5)" d="M4.246 4.398h20.575v10.667l-11.324-9.15h-2.427l13.75 10.717v3.084c0 0-2.022 5.965-8.594 7.937h-2.528c0 0-8.948-1.719-9.605-11.678v-3.235l14.964 11.223 1.163-1.163-16.025-12.032 0.051-6.37z"></path>
</symbol>

<symbol id="icon-pivx" viewBox="0 0 26 32">
<title>PIVX-icon</title>
<path fill="#bfc2c5" style="fill: var(--color1, #bfc2c5)" d="M13.075 0c1.477 0.301 2.961 0.595 4.439 0.902 2.778 0.575 5.557 1.164 8.335 1.739 0.242 0.052 0.307 0.144 0.307 0.379-0.007 5.936-0.007 11.872-0.007 17.808 0 1.026-0.373 1.935-0.922 2.778-0.863 1.334-2.013 2.399-3.262 3.36-2.654 2.046-5.583 3.622-8.649 4.949-0.098 0.039-0.203 0.15-0.327 0.046 0.111-0.072 0.085-0.19 0.085-0.294 0-0.438 0-0.883 0-1.321 3.001-1.209 5.864-2.667 8.466-4.596 1.098-0.811 2.118-1.713 2.87-2.87 0.425-0.647 0.693-1.347 0.693-2.138-0.007-5.589 0-11.172 0.007-16.762 0-0.222-0.065-0.294-0.281-0.333-2.759-0.438-5.524-0.876-8.283-1.321-1.157-0.19-2.314-0.386-3.471-0.575 0-0.588 0-1.17 0-1.752z"></path>
<path fill="#bfc2c5" style="fill: var(--color1, #bfc2c5)" d="M13.075 0c0 0.582 0.007 1.164 0.007 1.745-0.288 0.111-0.595 0.111-0.889 0.157-3.595 0.582-7.184 1.164-10.773 1.726-0.275 0.046-0.373 0.118-0.373 0.418 0.013 5.478 0.013 10.957 0 16.441 0 0.909 0.248 1.713 0.745 2.458 0.641 0.961 1.471 1.745 2.38 2.451 2.706 2.112 5.74 3.648 8.904 4.942 0 0.438 0.007 0.883 0 1.321 0 0.105 0.026 0.222-0.085 0.294-1.033-0.405-2.013-0.935-2.988-1.458-2.281-1.229-4.524-2.523-6.531-4.177-0.941-0.778-1.811-1.634-2.497-2.661-0.654-0.974-0.987-2.027-0.981-3.223 0.020-5.779 0.013-11.564 0-17.343 0-0.32 0.092-0.412 0.392-0.471 4.19-0.856 8.374-1.732 12.558-2.608 0.046-0.007 0.085-0.007 0.131-0.013z"></path>
<path fill="#bfc2c5" style="fill: var(--color1, #bfc2c5)" d="M23.737 4.792c-3.236-0.51-6.465-1.033-9.701-1.549-0.418-0.065-0.824-0.183-1.262-0.111-1.994 0.327-3.994 0.641-5.995 0.968-0.915 0.15-1.824 0.307-2.733 0.464-0.523 0.026-1.033 0.17-1.549 0.216-0.294 0.026-0.36 0.137-0.36 0.425 0.007 4.949 0.020 9.891 0 14.84 0 0.928 0.275 1.726 0.804 2.465 0.49 0.673 1.072 1.262 1.719 1.785 2.491 2.027 5.315 3.465 8.257 4.694 0.15 0.065 0.275 0.020 0.405-0.033 1.020-0.412 2.013-0.869 2.994-1.373 1.981-1.013 3.896-2.131 5.57-3.622 0.595-0.53 1.151-1.092 1.543-1.798 0.379-0.543 0.582-1.137 0.582-1.798 0-5.073 0-10.146 0.007-15.225 0-0.235-0.059-0.314-0.281-0.346zM7.792 12.329c0.020-0.261 0.013-0.523 0-0.784-0.007-0.17 0.046-0.229 0.222-0.229 1.981 0.007 3.968 0.007 5.949 0 0.17 0 0.229 0.065 0.222 0.229-0.013 0.275-0.020 0.549 0 0.817 0.013 0.222-0.052 0.301-0.288 0.294-0.968-0.013-1.942-0.007-2.909-0.007-0.961 0-1.915-0.013-2.876 0.007-0.268 0.007-0.34-0.078-0.32-0.327zM10.845 23.364c0 0.307-0.092 0.386-0.379 0.366-0.314-0.026-0.634-0.026-0.948 0-0.268 0.020-0.346-0.059-0.346-0.333 0.013-2.242 0.007-4.485 0.007-6.727 0-0.144-0.020-0.281-0.026-0.425 0.007-0.013 0.007-0.020 0.007-0.033 0.052-0.614 0.052-0.614 0.667-0.614 1.667 0 3.334 0 5.001 0 1 0 1.928-0.242 2.661-0.961 0.961-0.935 1.151-2.131 0.974-3.38-0.255-1.844-1.562-2.916-3.497-2.929-1.896-0.013-3.792 0-5.687 0.020-0.307 0-0.431-0.052-0.399-0.386 0.033-0.294 0.020-0.588 0-0.883-0.013-0.209 0.072-0.255 0.261-0.255 2.040 0.007 4.073-0.039 6.112 0.020 3.223 0.092 5.348 2.478 4.896 5.884-0.353 2.68-2.308 4.328-5.027 4.354-1.321 0.013-2.635 0.013-3.955 0-0.261 0-0.386 0.052-0.346 0.333 0.026 0.17 0.013 0.346 0.013 0.523 0.013 1.817 0 3.622 0.013 5.426z"></path>
</symbol>

<symbol id="icon-right-arrow" viewBox="0 0 32 32">
<title>right-arrow</title>
<path fill="#fff" style="fill: var(--color1, #fff)" d="M21.548 5.088c-0.436-0.451-1.162-0.451-1.613 0-0.436 0.436-0.436 1.162 0 1.596l8.177 8.177h-26.984c-0.629 0.001-1.129 0.501-1.129 1.13s0.5 1.145 1.129 1.145h26.984l-8.177 8.162c-0.436 0.451-0.436 1.178 0 1.613 0.451 0.451 1.178 0.451 1.613 0l10.113-10.113c0.451-0.436 0.451-1.162 0-1.596l-10.113-10.114z"></path>
</symbol>

<symbol id="icon-copy" viewBox="0 0 32 32">
<title>copy</title>
<path fill="#fff" style="fill: var(--color1, #fff)" d="M20.594 5.597h-14.876c-1.396 0-2.53 1.134-2.53 2.53v21.344c0 1.396 1.134 2.53 2.53 2.53h14.876c1.396 0 2.53-1.134 2.53-2.53v-21.344c-0.007-1.396-1.14-2.53-2.53-2.53zM21.348 29.464c0 0.419-0.341 0.76-0.76 0.76h-14.876c-0.419 0-0.76-0.341-0.76-0.76v-21.338c0-0.419 0.341-0.76 0.76-0.76h14.876c0.419 0 0.76 0.341 0.76 0.76v21.338z"></path>
<path fill="#fff" style="fill: var(--color1, #fff)" d="M26.282 0h-14.876c-1.396 0-2.53 1.134-2.53 2.53 0 0.491 0.393 0.885 0.885 0.885s0.885-0.393 0.885-0.885c0-0.419 0.341-0.76 0.76-0.76h14.876c0.419 0 0.76 0.341 0.76 0.76v21.344c0 0.419-0.341 0.76-0.76 0.76-0.491 0-0.885 0.393-0.885 0.885s0.393 0.885 0.885 0.885c1.396 0 2.53-1.134 2.53-2.53v-21.344c0-1.396-1.134-2.53-2.53-2.53z"></path>
</symbol>

<symbol id="icon-logo" viewBox="0 0 29 32">
<title>logo</title>
<path fill="#06b6f8" style="fill: var(--color1, #06b6f8)" d="M0 18.957c2.73 7.785 8.594 13.043 14.509 13.043 3.64 0 6.622-1.972 7.684-2.679 5.207-3.438 6.875-8.746 7.33-10.464 0-6.269 0-12.588 0-18.856-9.858 0-19.716 0-29.523 0v0 0c0 18.957 0 18.957 0 18.957z"></path>
<path fill="#142d51" style="fill: var(--color2, #142d51)" d="M1.264 18.705c2.528 7.128 7.836 11.931 13.245 11.931 3.337 0 6.016-1.82 6.976-2.477 4.752-3.185 6.269-7.987 6.673-9.555 0-5.763 0-11.476 0-17.239-8.998 0-17.946 0-26.945 0v0 0c0.051 17.34 0.051 17.34 0.051 17.34z"></path>
<path fill="#119fed" style="fill: var(--color3, #119fed)" d="M4.246 4.398h20.575v10.667l-11.324-9.15h-2.427l13.75 10.717v3.084c0 0-2.022 5.965-8.594 7.937h-2.528c0 0-8.948-1.719-9.605-11.678v-3.235l14.964 11.223 1.163-1.163-16.025-12.032 0.051-6.37z"></path>
</symbol>
</defs>

</svg>
