<?xml version="1.0" encoding="utf-8"?>
<!-- Generator: Adobe Illustrator 21.0.0, SVG Export Plug-In . SVG Version: 6.00 Build 0)  -->
<svg version="1.1" id="Layer_1" xmlns="http://www.w3.org/2000/svg" xmlns:xlink="http://www.w3.org/1999/xlink" x="0px" y="0px"
	 viewBox="0 0 334.7 396.3" style="enable-background:new 0 0 334.7 396.3;" xml:space="preserve">
<style type="text/css">
	.st0{fill:#FAC693;}
</style>
<g>
	<polygon class="st0" points="102.3,172.7 167.4,107.6 232.4,172.7 270.2,134.9 167.4,32 64.5,134.9 	"/>
	
		<rect x="11.1" y="172.7" transform="matrix(0.7071 -0.7071 0.7071 0.7071 -129.9454 85.1178)" class="st0" width="53.4" height="53.4"/>
	<polygon class="st0" points="102.3,226.1 167.4,291.2 232.4,226.1 270.2,263.9 270.2,263.9 167.4,366.8 64.5,263.9 64.5,263.9 	"/>
	
		<rect x="270.2" y="172.7" transform="matrix(0.7071 -0.7071 0.7071 0.7071 -54.0443 268.3678)" class="st0" width="53.4" height="53.4"/>
	<polygon class="st0" points="205.7,199.4 205.7,199.4 167.4,161.1 139.1,189.4 139.1,189.4 135.6,192.5 129,199.4 129,199.4 
		129,199.4 129,199.4 167.4,237.7 205.7,199.4 	"/>
</g>
</svg>
