<?xml version="1.0" encoding="utf-8"?>
<!-- Generator: Adobe Illustrator 21.0.0, SVG Export Plug-In . SVG Version: 6.00 Build 0)  -->
<svg version="1.1" id="Layer_1" xmlns="http://www.w3.org/2000/svg" xmlns:xlink="http://www.w3.org/1999/xlink" x="0px" y="0px"
	 viewBox="0 0 334.7 396.3" style="enable-background:new 0 0 334.7 396.3;" xml:space="preserve">
<style type="text/css">
	.st0{fill:#FAC693;}
</style>
<g>
	<path class="st0" d="M330.4,25.7C280.9,17.9,231.5,9.9,182,2c-6.4-1-12.6-2.8-19.3-1.7c-30.5,5-61.1,9.8-91.7,14.8
		c-14,2.3-27.9,4.7-41.8,7.1c-8,0.4-15.8,2.6-23.7,3.3C1,25.9,0,27.6,0,32c0.1,75.7,0.3,151.3,0,227c0,14.2,4.2,26.4,12.3,37.7
		C19.8,307,28.7,316,38.6,324c38.1,31,81.3,53,126.3,71.8c2.3,1,4.2,0.3,6.2-0.5c15.6-6.3,30.8-13.3,45.8-21
		c30.3-15.5,59.6-32.6,85.2-55.4c9.1-8.1,17.6-16.7,23.6-27.5c5.8-8.3,8.9-17.4,8.9-27.5c0-77.6,0-155.2,0.1-232.9
		C334.7,27.4,333.8,26.2,330.4,25.7z M86.5,141c0.3-4,0.2-8,0-12c-0.1-2.6,0.7-3.5,3.4-3.5c30.3,0.1,60.7,0.1,91,0
		c2.6,0,3.5,1,3.4,3.5c-0.2,4.2-0.3,8.4,0,12.5c0.2,3.4-0.8,4.6-4.4,4.5c-14.8-0.2-29.7-0.1-44.5-0.1c-14.7,0-29.3-0.2-44,0.1
		C87.3,146.1,86.2,144.8,86.5,141z M133.2,309.8c0,4.7-1.4,5.9-5.8,5.6c-4.8-0.4-9.7-0.4-14.5,0c-4.1,0.3-5.3-0.9-5.3-5.1
		c0.2-34.3,0.1-68.6,0.1-102.9c0-2.2-0.3-4.3-0.4-6.5c0.1-0.2,0.1-0.3,0.1-0.5c0.8-9.4,0.8-9.4,10.2-9.4c25.5,0,51,0,76.5,0
		c15.3,0,29.5-3.7,40.7-14.7c14.7-14.3,17.6-32.6,14.9-51.7c-3.9-28.2-23.9-44.6-53.5-44.8c-29-0.2-58,0-87,0.3
		c-4.7,0-6.6-0.8-6.1-5.9c0.5-4.5,0.3-9,0-13.5c-0.2-3.2,1.1-3.9,4-3.9c31.2,0.1,62.3-0.6,93.5,0.3c49.3,1.4,81.8,37.9,74.9,90
		c-5.4,41-35.3,66.2-76.9,66.6c-20.2,0.2-40.3,0.2-60.5,0c-4,0-5.9,0.8-5.3,5.1c0.4,2.6,0.2,5.3,0.2,8
		C133.2,254.6,133,282.2,133.2,309.8z"/>
</g>
</svg>
