<svg width="332" height="314" viewBox="0 0 332 314" fill="none" xmlns="http://www.w3.org/2000/svg">
<rect width="166" height="157" fill="black" fill-opacity="0" transform="scale(2)"/>
<rect width="166" height="157" fill="black" fill-opacity="0" transform="scale(2)"/>
<rect width="166" height="157" fill="black" fill-opacity="0" transform="scale(2)"/>
<path d="M148.594 293.389C142.635 288.797 139.584 283.005 140.293 274.598C142.635 275.728 144.55 276.435 146.324 277.424C152.284 280.885 156.683 285.618 158.386 292.4C158.882 294.378 159.805 295.155 161.791 294.944C162.572 294.873 163.423 294.873 164.274 295.014C169.596 295.65 173.356 295.085 175.343 288.515C177.542 281.38 184.069 277.565 191.59 274.739C192.654 283.005 189.32 288.727 183.857 294.237C189.745 293.036 195.705 291.976 201.523 290.564C202.233 290.352 202.871 288.374 202.942 287.173C203.794 278.059 208.973 271.984 216.706 266.827C219.473 274.668 217.345 280.956 213.372 287.455C218.835 285.053 224.369 282.793 229.761 280.249C230.4 279.967 230.754 278.271 230.613 277.282C229.194 267.886 233.167 260.61 239.765 253.616C243.951 260.61 243.384 267.18 240.191 273.891C240.404 274.103 240.617 274.386 240.829 274.598C245.796 271.065 250.833 267.533 255.658 263.789C256.084 263.506 255.729 261.882 255.445 260.963C252.394 252.133 254.381 244.15 259.631 236.096C265.236 242.03 266.088 248.6 264.669 256.301C266.513 254.464 268.358 252.698 270.203 250.861C271.48 249.589 272.544 248.176 273.892 247.046C276.943 244.291 277.936 241.96 275.382 237.65C271.196 230.586 272.26 222.815 275.595 214.832C282.051 219.636 284.393 225.782 284.535 233.482C285.457 232.14 286.45 230.868 287.373 229.526C288.508 227.831 289.43 226.065 290.565 224.44C293.332 220.342 295.39 217.022 290.494 212.289C285.67 207.626 284.96 199.149 286.663 191.095C293.971 194.062 297.235 199.855 298.583 207.132C298.937 207.132 299.221 207.132 299.576 207.132C301.492 201.551 303.407 195.97 305.181 190.389C305.394 189.824 304.684 188.623 304.046 188.199C295.816 183.112 292.836 175.271 292.055 165.239C300.214 166.793 304.684 171.668 307.451 178.803C307.735 178.732 308.019 178.591 308.374 178.52C309.012 172.727 309.793 167.005 310.218 161.212C310.289 160.365 308.799 159.022 307.735 158.598C299.15 154.925 294.893 148.002 292.339 138.959C300.569 138.676 305.961 142.633 310.006 148.92C310.289 148.779 310.573 148.708 310.857 148.567C310.36 142.703 309.935 136.769 309.225 130.905C309.154 130.128 307.168 129.281 305.961 128.998C297.376 127.303 291.842 121.792 287.798 114.516C287.585 114.163 287.656 113.597 287.585 113.174C294.184 111.337 298.228 112.608 307.309 118.684C305.536 112.962 303.762 107.169 301.775 101.517C301.562 100.881 299.576 100.599 298.441 100.599C289.146 100.669 282.477 96.0774 276.517 88.9423C284.038 85.6219 290.636 86.8935 297.022 90.991C297.235 90.779 297.447 90.5671 297.589 90.3552C294.68 85.1981 291.842 79.9703 288.721 74.8839C288.366 74.2481 286.45 74.1774 285.457 74.3894C276.375 76.4381 268.784 73.5416 261.263 67.5368C267.79 62.4503 274.389 62.521 281.413 65.2055C281.626 64.9229 281.838 64.711 282.051 64.4284C278.007 59.8364 273.963 55.2445 269.777 50.7939C269.422 50.37 267.648 51.0058 266.655 51.4297C258.212 55.2445 250.195 53.761 241.61 49.5929C247.286 43.5174 253.671 41.8926 261.192 43.3055C261.334 43.0229 261.476 42.7403 261.618 42.4577C256.651 38.7842 251.756 35.04 246.718 31.5077C246.293 31.2252 244.874 32.0023 244.093 32.5674C236.572 38.1484 228.342 38.7842 219.119 36.0997C222.95 28.9645 229.052 26.4919 236.36 25.8561C236.501 25.5029 236.572 25.1497 236.714 24.8671C233.38 23.5955 230.116 21.6174 226.639 21.3348C216.706 20.4165 209.115 16.1071 204.29 7.3471C203.652 6.14613 203.368 4.80387 202.942 3.53226C210.747 0.847742 223.518 5.72226 228.413 13.4932C230.967 17.5906 234.941 18.7916 238.985 21.0523C237.566 17.2374 235.792 13.9877 235.153 10.5261C234.515 7.20581 235.011 3.67355 235.011 0.14129C243.809 2.11935 251.401 14.9061 249.131 23.7368C248.492 26.28 249.131 27.481 251.117 28.8939C255.658 32.0729 259.915 35.4639 264.952 39.2787C262.611 31.7197 261.405 24.7964 264.952 17.9439C273.608 21.0523 277.369 35.3226 272.544 46.6258C276.73 51.5003 280.987 56.3748 285.954 62.1677C285.315 54.1142 285.528 46.979 290.565 41.0448C297.731 47.4735 299.221 61.1787 293.545 68.4552C291.984 70.3626 291.984 71.6342 293.261 73.6123C296.099 78.2748 298.724 83.22 301.775 88.7303C302.769 80.8181 304.613 74.0361 310.644 69.1616C316.32 76.4381 314.901 90.6377 307.948 96.5719C305.961 98.2674 305.819 99.539 306.671 101.87C308.516 106.957 309.864 112.185 311.779 118.401C314.263 110.63 317.597 104.414 324.479 100.952C328.453 109.783 324.337 122.711 316.107 127.161C313.766 128.433 313.411 129.634 313.766 132.106C314.475 137.475 314.688 142.845 315.114 148.567C317.455 145.67 319.442 142.633 322.067 140.301C324.692 137.97 327.885 136.345 331.149 134.226C333.49 144.257 326.537 156.338 317.597 158.81C315.327 159.446 314.688 160.294 314.475 162.555C313.979 168.135 313.127 173.716 312.347 180.075C317.739 174.352 323.131 169.619 332 169.478C330.723 172.798 329.872 175.695 328.453 178.379C324.905 185.09 319.797 189.753 311.637 190.106C310.857 190.106 309.651 190.742 309.438 191.307C307.38 197.1 305.465 203.034 303.194 209.534C309.722 205.083 315.965 201.763 323.557 203.175C322.067 212.43 310.431 220.625 300.782 219.565C299.718 219.424 298.086 219.777 297.66 220.484C294.397 225.641 291.346 230.939 288.082 236.379C291.275 235.46 294.184 234.118 297.235 233.765C300.427 233.341 303.762 233.694 307.026 233.906C309.154 234.047 309.793 235.248 308.303 236.944C302.84 243.302 293.403 249.801 282.974 245.704C282.193 245.421 280.774 245.563 280.278 246.128C276.021 250.508 271.976 255.029 267.648 259.692C271.409 259.48 274.956 258.773 278.433 259.126C281.909 259.48 285.244 260.822 289.004 261.811C282.974 270.924 269.493 272.973 259.134 266.968C253.813 270.712 248.421 274.456 242.106 278.836C250.337 278.766 257.361 279.896 262.824 285.406C256.084 291.694 241.965 291.976 235.508 285.901C233.38 283.852 231.89 283.923 229.406 285.124C224.653 287.455 219.686 289.292 213.797 291.835C221.744 293.46 228.342 296.074 232.67 302.432C224.937 307.095 210.747 305.116 205.851 297.487C204.219 294.944 202.587 294.732 200.033 295.297C194.854 296.498 189.674 297.416 183.431 298.688C190.739 301.867 196.699 305.752 199.678 313.453C193.151 314.512 187.546 313.453 182.225 310.768C178.323 308.79 175.626 305.611 173.711 301.584C173.214 300.595 171.653 299.818 170.447 299.465C169.383 299.112 168.106 299.535 166.9 299.394C161.862 298.829 158.315 299.465 155.548 305.046C152.071 312.04 139.229 315.855 132.205 313.099C134.759 305.682 140.79 302.079 148.24 298.617C144.054 297.84 140.79 297.275 137.526 296.71C136.249 296.498 134.901 296.356 133.695 295.933C129.935 294.52 127.31 294.944 124.613 298.688C120.002 305.187 107.231 306.953 98.8586 302.644C103.116 296.074 109.501 293.46 116.88 291.411C115.816 290.987 114.68 290.564 113.616 290.14C111.133 289.08 108.437 288.303 106.096 286.961C101.697 284.488 98.2201 283.57 93.4664 287.526C87.5066 292.471 75.4451 290.917 68.634 285.548C74.0261 279.825 80.9792 278.695 89.4223 278.836C83.2496 274.456 77.8574 270.712 72.4652 266.897C62.6742 273.962 49.6903 270.288 42.7372 262.447C49.2646 257.925 56.3596 258.42 64.1641 260.045C59.4814 254.958 55.2954 250.366 50.9674 245.916C50.4708 245.351 48.8389 245.492 47.9166 245.775C39.1188 248.742 26.7735 243.938 22.4456 235.814C22.3037 235.531 22.3746 235.107 22.3037 234.471C29.4696 231.716 36.2808 233.553 43.6596 236.803C39.7573 230.445 36.3517 224.793 32.8752 219.141C21.0975 220.625 10.2422 213.843 7.61704 203.175C15.3506 201.692 21.5942 204.942 28.4054 209.675C27.0573 206.001 25.9931 203.246 24.9998 200.42C24.0774 197.665 23.297 194.769 22.2327 192.084C21.878 191.236 20.8137 190.177 19.9623 190.035C8.96509 188.34 1.51535 180.922 0.0963491 169.902C5.13379 168.63 10.526 171.385 19.04 179.863C18.3305 174.423 17.55 169.548 17.1953 164.674C16.9824 161.212 16.131 159.305 12.2997 158.033C4.42429 155.49 -1.2517 144.328 0.238249 135.497C5.20474 135.427 9.17794 138.676 16.4858 148.779C16.6986 147.79 16.9115 147.083 16.9824 146.377C17.4081 141.361 17.621 136.275 18.1886 131.259C18.4014 129.21 17.8338 128.433 16.131 127.444C7.61704 122.852 3.43099 110.701 7.12039 101.023C14.2863 104.272 17.4081 110.63 20.1042 118.401C20.8137 115.929 21.3104 114.375 21.807 112.82C22.5165 110.418 22.8713 107.946 23.8646 105.756C25.8512 101.376 25.9931 98.1968 21.878 94.3113C15.8472 88.7303 16.6986 75.661 21.0266 69.1616C27.2702 73.8948 29.1149 80.6061 29.9663 88.3064C30.6048 87.6 31.1015 87.2468 31.3853 86.6816C33.9395 82.0897 36.5646 77.4271 38.9769 72.7645C39.4735 71.8461 39.4026 69.9387 38.764 69.2323C31.74 61.32 35.1456 47.191 40.8216 41.3274C44.7238 44.1532 45.5043 46.979 46.2138 61.7439C50.7546 56.5868 54.9406 51.6416 59.1976 46.7671C54.7987 34.6161 57.4948 23.8074 66.6474 17.6613C70.6206 24.5845 69.2725 31.5784 67.0021 39.1374C72.5362 34.9694 77.6446 31.2958 82.5401 27.3397C83.1787 26.8452 82.9658 25.0084 82.682 23.8781C80.6954 14.9768 87.5776 2.75516 96.5882 0C98.5748 7.41774 96.3754 13.9877 92.9698 20.5577C96.872 18.6503 100.845 17.5906 103.399 13.4932C108.224 5.72226 120.569 0.989032 129.154 3.03774C128.729 4.38 128.516 5.72226 127.877 6.92323C123.336 15.33 116.17 19.71 106.663 20.911C102.832 21.4055 99.2134 23.101 95.524 24.8671C102.903 26.0681 109.004 28.6819 112.836 35.2519C105.528 39.2081 93.8921 37.7952 85.8748 30.5894C80.8373 34.4042 75.7999 38.219 70.6915 42.1045C70.7625 42.3871 70.7625 42.6697 70.8334 42.9523C78.2831 41.7513 84.8105 43.0935 90.3446 49.0984C85.0943 52.3481 79.7021 53.6903 74.0971 53.2665C70.9753 52.9839 67.9954 51.571 64.9446 50.9352C63.8803 50.7232 62.2485 50.6526 61.6809 51.2884C57.7077 55.5271 53.9473 59.9071 50.3289 64.711C57.4948 62.309 64.1641 62.3797 70.9753 67.3248C64.0932 72.8352 57.1401 76.2261 48.8389 74.46C44.8657 73.6123 42.8791 74.46 41.2473 77.9923C39.2607 82.231 36.9193 86.1871 34.9328 90.6377C41.4601 86.6816 48.0585 85.6219 55.5792 88.801C49.9032 95.7948 43.4467 100.599 34.4361 100.387C31.1015 100.316 29.8244 101.446 29.0439 104.343C27.7668 109.147 26.2769 113.88 25.2126 118.966C30.7467 113.739 36.9193 111.549 45.0076 112.962C41.0344 120.803 35.8551 126.737 27.483 128.574C23.8646 129.351 22.3037 130.552 22.3037 134.367C22.3037 139.1 21.6651 143.834 21.6651 148.708C26.2059 142.774 31.4562 138.818 39.1188 138.888C39.2607 145.812 32.5914 155.278 24.9998 158.175C22.1618 159.234 21.3813 160.576 21.807 163.332C22.5875 168.418 23.1551 173.505 24.2193 178.732C27.483 172.092 31.74 166.793 40.0411 165.522C39.4026 174.847 36.7065 182.547 28.973 187.634C27.0573 188.905 26.4897 189.965 27.3411 192.155C29.2568 197.1 30.8886 202.186 33.0881 207.273C34.7909 199.996 38.1964 194.345 45.6462 190.954C47.0652 200.208 46.1428 208.403 39.5445 215.185C37.9126 216.881 37.6998 218.082 38.9059 219.918C41.8149 224.44 44.511 229.032 47.7747 233.553C47.8456 225.994 49.9741 219.636 56.5725 214.973C60.049 223.592 60.6876 231.787 55.792 239.628C54.3021 241.96 54.6568 243.231 56.3596 244.997C60.049 248.742 63.5965 252.627 67.6407 256.371C66.0088 248.954 66.8602 242.384 71.9686 236.661C77.4317 241.465 79.7021 252.91 76.6513 260.751C75.7999 262.941 76.0837 264.142 77.9993 265.414C82.4692 268.381 86.8681 271.56 91.6217 274.456C88.8547 267.533 88.0033 260.822 92.2603 253.828C98.6458 260.186 102.619 267.109 101.484 275.94C101.058 279.119 101.839 280.603 104.747 281.733C109.43 283.499 114.042 285.548 118.937 287.173C114.539 281.097 112.694 274.81 115.106 267.039C121.775 270.783 126.032 275.94 128.303 282.793C128.587 283.711 129.012 284.629 128.87 285.548C128.303 289.998 130.644 291.411 134.617 291.906C139.158 292.471 143.628 293.531 148.169 294.378C148.311 293.884 148.453 293.601 148.594 293.389Z" fill="#EFB77C"/>
<path d="M88.6562 152.719C91.7292 152.719 94.3854 153.279 96.625 154.398C98.8646 155.518 100.87 157.432 102.641 160.141H102.875C102.719 156.859 102.641 153.643 102.641 150.492V135.219H106.469V196H103.93L102.953 189.516H102.641C99.4115 194.359 94.776 196.781 88.7344 196.781C82.875 196.781 78.3958 194.958 75.2969 191.312C72.1979 187.667 70.6484 182.354 70.6484 175.375C70.6484 168.031 72.1849 162.419 75.2578 158.539C78.3307 154.659 82.7969 152.719 88.6562 152.719ZM88.6562 156.234C84.0208 156.234 80.5312 157.862 78.1875 161.117C75.8698 164.372 74.7109 169.099 74.7109 175.297C74.7109 187.328 79.3854 193.344 88.7344 193.344C93.526 193.344 97.0417 191.951 99.2812 189.164C101.521 186.378 102.641 181.781 102.641 175.375V174.711C102.641 168.148 101.534 163.435 99.3203 160.57C97.1328 157.68 93.5781 156.234 88.6562 156.234ZM155.492 138.891H159.828L138.461 196H134.945L113.656 138.891H117.914L132.289 177.758C134.477 183.617 135.948 188.018 136.703 190.961C137.224 189.008 138.253 185.974 139.789 181.859L155.492 138.891ZM202.289 155.297C202.289 160.818 200.414 165.049 196.664 167.992C192.914 170.935 187.602 172.406 180.727 172.406H171.898V196H167.914V138.891H181.898C195.492 138.891 202.289 144.359 202.289 155.297ZM171.898 168.969H179.75C186.182 168.969 190.831 167.914 193.695 165.805C196.56 163.669 197.992 160.219 197.992 155.453C197.992 151.052 196.638 147.797 193.93 145.688C191.221 143.552 187.029 142.484 181.352 142.484H171.898V168.969ZM256.234 196H252.211L218.383 145.297H218.07C218.383 151.339 218.539 155.896 218.539 158.969V196H214.711V138.891H218.695L252.484 189.516H252.719C252.484 184.828 252.367 180.375 252.367 176.156V138.891H256.234V196Z" fill="#4FAEE7"/>
</svg>
