<?xml version="1.0" encoding="utf-8"?>
<!-- Generator: Adobe Illustrator 19.0.0, SVG Export Plug-In . SVG Version: 6.00 Build 0)  -->
<svg version="1.1" id="Layer_1" xmlns="http://www.w3.org/2000/svg" xmlns:xlink="http://www.w3.org/1999/xlink" x="0px" y="0px"
	 viewBox="-235 558.5 78.9 85.1" style="enable-background:new -235 558.5 78.9 85.1;" xml:space="preserve">
<style type="text/css">
	.st0{fill:#142D51;}
	.st1{fill:none;stroke:#00B6FA;stroke-width:2.463;stroke-miterlimit:10;}
	.st2{clip-path:url(#SVGID_2_);fill:url(#XMLID_2_);}
	.st3{clip-path:url(#SVGID_4_);fill:url(#XMLID_3_);}
	.st4{clip-path:url(#SVGID_6_);fill:url(#XMLID_4_);}
	.st5{clip-path:url(#SVGID_8_);fill:url(#XMLID_5_);}
	.st6{clip-path:url(#SVGID_10_);fill:url(#XMLID_6_);}
</style>
<path id="XMLID_59_" class="st0" d="M-157.4,559.7v31.7c0,6.6,0.6,18.9-5,28.4c-7.2,12.1-20.3,21.3-33.1,22.4
	c-12.8-1.2-25.9-10.4-33.1-22.5c-5.6-9.4-5-21.8-5-28.4v-31.6H-157.4z"/>
<path id="XMLID_58_" class="st1" d="M-157.3,559.7v31.8c0,6.6,0.6,19-5.1,28.4c-7.2,12.1-20.4,21.3-33.1,22.4
	c-12.8-1.1-26-10.3-33.2-22.4c-5.6-9.5-5-21.8-5-28.4v-31.8H-157.3z"/>
<g id="XMLID_53_">
	<g>
		<defs>
			<path id="SVGID_1_" d="M-172.2,606.2c-0.4,2.2-7.7,17.7-21.8,20.2c-5.7,1-6.5,2.6-5.1,4.1c1.2,0.3,2.4,0.5,3.6,0.6
				c9.2-0.8,18.7-7.5,24-16.4c1.3-2.3,2.2-4.8,2.7-7.3c-0.9-1.1-1.9-2.1-2.6-2.1C-171.8,605.3-172,605.5-172.2,606.2"/>
		</defs>
		<clipPath id="SVGID_2_">
			<use xlink:href="#SVGID_1_"  style="overflow:visible;"/>
		</clipPath>
		
			<linearGradient id="XMLID_2_" gradientUnits="userSpaceOnUse" x1="-374.916" y1="1080.2781" x2="-373.4764" y2="1080.2781" gradientTransform="matrix(23.1773 0 0 23.1773 8489.8633 -24419.6289)">
			<stop  offset="0" style="stop-color:#01AAE4"/>
			<stop  offset="1" style="stop-color:#1F96F4"/>
		</linearGradient>
		<rect id="XMLID_55_" x="-200.5" y="605.3" class="st2" width="31.6" height="25.9"/>
	</g>
</g>
<g id="XMLID_50_">
	<g>
		<defs>
			<rect id="SVGID_3_" x="-216.4" y="570.6" width="44" height="4.5"/>
		</defs>
		<clipPath id="SVGID_4_">
			<use xlink:href="#SVGID_3_"  style="overflow:visible;"/>
		</clipPath>
		
			<linearGradient id="XMLID_3_" gradientUnits="userSpaceOnUse" x1="-376.3949" y1="1074.4518" x2="-374.9553" y2="1074.4518" gradientTransform="matrix(30.5289 0 0 30.5289 11274.5225 -32228.9316)">
			<stop  offset="0" style="stop-color:#01AAE4"/>
			<stop  offset="1" style="stop-color:#1F96F4"/>
		</linearGradient>
		<rect id="XMLID_52_" x="-216.4" y="570.6" class="st3" width="44" height="4.5"/>
	</g>
</g>
<g id="XMLID_47_">
	<g>
		<defs>
			<path id="SVGID_5_" d="M-223.2,570.6v16.5l46.2,34.6c2.1-2.1,3.9-4.4,5.4-7c2.1-3.5,3-7.6,3.4-11.4l-43.8-32.7H-223.2z"/>
		</defs>
		<clipPath id="SVGID_6_">
			<use xlink:href="#SVGID_5_"  style="overflow:visible;"/>
		</clipPath>
		
			<linearGradient id="XMLID_4_" gradientUnits="userSpaceOnUse" x1="-378.7061" y1="1065.2843" x2="-377.2665" y2="1065.2843" gradientTransform="matrix(68.2215 0 0 68.2215 25592.7969 -72079.0859)">
			<stop  offset="0" style="stop-color:#01AAE4"/>
			<stop  offset="1" style="stop-color:#1F96F4"/>
		</linearGradient>
		<rect id="XMLID_49_" x="-223.2" y="570.6" class="st4" width="54.9" height="51.1"/>
	</g>
</g>
<g id="XMLID_44_">
	<g>
		<defs>
			<path id="SVGID_7_" d="M-205.1,570.6l37.1,27.8c0-1.7,0-3.3,0-4.6v-23.3L-205.1,570.6L-205.1,570.6z"/>
		</defs>
		<clipPath id="SVGID_8_">
			<use xlink:href="#SVGID_7_"  style="overflow:visible;"/>
		</clipPath>
		
			<linearGradient id="XMLID_5_" gradientUnits="userSpaceOnUse" x1="-378.8655" y1="1064.3951" x2="-377.4259" y2="1064.3951" gradientTransform="matrix(78.4981 0 0 78.4981 29511.8848 -82968.4453)">
			<stop  offset="0" style="stop-color:#01AAE4"/>
			<stop  offset="1" style="stop-color:#1F96F4"/>
		</linearGradient>
		<rect id="XMLID_46_" x="-205.1" y="570.6" class="st5" width="37.2" height="27.8"/>
	</g>
</g>
<g id="XMLID_41_">
	<g>
		<defs>
			<path id="SVGID_9_" d="M-223.2,593.9c0,4.8-0.4,13.9,3.7,20.8c5.2,8.9,14.7,15.6,24,16.4c5.3-0.5,10.7-2.9,15.3-6.5l-43-32.1
				V593.9z"/>
		</defs>
		<clipPath id="SVGID_10_">
			<use xlink:href="#SVGID_9_"  style="overflow:visible;"/>
		</clipPath>
		
			<linearGradient id="XMLID_6_" gradientUnits="userSpaceOnUse" x1="-379.1174" y1="1063.9122" x2="-377.6777" y2="1063.9122" gradientTransform="matrix(82.1759 0 0 82.1759 30876.2285 -86816.0469)">
			<stop  offset="0" style="stop-color:#01AAE4"/>
			<stop  offset="1" style="stop-color:#1F96F4"/>
		</linearGradient>
		<rect id="XMLID_43_" x="-223.6" y="592.5" class="st6" width="43.3" height="38.7"/>
	</g>
</g>
</svg>
