<svg aria-hidden="true" style="position: absolute; width: 0; height: 0; overflow: hidden;" version="1.1" xmlns="http://www.w3.org/2000/svg" xmlns:xlink="http://www.w3.org/1999/xlink">
<defs>
<symbol id="icon-idex" viewBox="0 0 90 32">
<title>idex</title>
<path fill="#07506e" style="fill: var(--color1, #07506e)" d="M21.822 10.945c0.017 6.018-4.842 10.86-10.894 10.86-5.49 0-10.894-4.16-10.928-10.86-0.034-6.189 4.705-10.928 10.911-10.945 6.461-0.034 11.047 5.302 10.911 10.945zM8.831 15.94c0.869 0.631 1.739 1.040 2.796 0.972 0.955-0.068 1.926-0.051 2.898 0 0.614 0.034 0.767-0.188 0.75-0.767-0.017-3.018 0-6.018 0-9.036 0-0.273-0.153-0.75 0.29-0.75 0.46 0 0.307 0.46 0.307 0.733 0.017 3.069 0.051 6.137 0.017 9.206-0.017 0.733 0.409 0.648 0.818 0.58 0.392-0.068 0.256-0.46 0.256-0.716 0-2.983 0-5.967 0-8.95 0-1.909 0.017-1.875-1.926-1.909-0.665-0.017-0.801 0.205-0.801 0.835 0.034 2.932-0.017 5.848 0.034 8.78 0.017 0.818-0.205 1.091-1.040 1.057-1.466-0.085-2.932-0.034-4.399-0.034zM5.882 14.559c0.75 0.494 1.449 1.057 2.387 1.023 0.904-0.017 1.824-0.034 2.728 0 0.597 0.034 0.767-0.171 0.767-0.767-0.034-1.875-0.017-3.751 0-5.626 0-0.256-0.102-0.648 0.307-0.682 0.511-0.034 0.358 0.409 0.358 0.682 0.017 1.875 0.017 3.751 0 5.626 0 0.409 0.034 0.682 0.563 0.716 0.597 0.034 0.46-0.375 0.46-0.682 0-1.841 0-3.7 0-5.541 0-1.858 0-1.824-1.875-1.858-0.665-0.017-0.835 0.205-0.818 0.835 0.034 1.824-0.017 3.631 0.034 5.455 0.017 0.631-0.136 0.852-0.801 0.835-1.398-0.034-2.745-0.017-4.109-0.017zM2.898 13.281c1.585 1.176 3.256 0.955 4.893 0.938 0.392 0 0.409-0.307 0.409-0.614 0-0.767-0.017-1.534-0.017-2.302 0-0.273-0.051-0.631 0.375-0.631 0.409 0 0.375 0.341 0.375 0.614 0 0.801 0 1.585 0 2.387 0 0.324 0.085 0.546 0.477 0.546 0.324-0.017 0.443-0.171 0.443-0.477 0-1.193-0.017-2.387 0-3.563 0-0.46-0.273-0.546-0.597-0.46-0.648 0.171-1.449-0.426-1.978 0.358-0.068 0.102-0.017 0.273-0.017 0.426 0 0.563-0.051 1.142 0.017 1.705 0.085 0.835-0.188 1.193-1.074 1.125-1.057-0.102-2.114-0.051-3.307-0.051z"></path>
<path fill="#07506e" style="fill: var(--color1, #07506e)" d="M32.733 11.815c0-2.182 0-4.381 0-6.564 0-1.551 0.494-2.063 2.012-2.063 2.677 0 5.336 0 8.013 0 4.279 0.017 7.297 3.018 7.297 7.297 0 1.381 0.119 2.779-0.119 4.16-0.58 3.256-3.154 5.643-6.461 5.762-3.035 0.119-6.069 0.068-9.121 0.051-1.074 0-1.62-0.631-1.637-1.756 0-2.285 0.017-4.586 0.017-6.888zM35.904 11.815c0 1.654 0.017 3.29 0 4.944 0 0.409 0.051 0.614 0.546 0.614 2.233-0.034 4.484 0.034 6.717-0.034 2.080-0.051 3.563-1.551 3.7-3.614 0.068-1.074 0.051-2.148 0.034-3.239-0.034-2.54-1.534-4.075-4.092-4.126-2.097-0.051-4.194 0-6.308-0.017-0.494 0-0.614 0.17-0.614 0.631 0.034 1.603 0.017 3.222 0.017 4.842z"></path>
<path fill="#b9b9b9" style="fill: var(--color2, #b9b9b9)" d="M70.206 20.492c0.477-0.546 0.818-0.955 1.159-1.347 1.926-2.25 3.836-4.501 5.779-6.717 0.375-0.426 0.375-0.682 0-1.108-2.114-2.421-4.177-4.876-6.274-7.314-0.188-0.205-0.358-0.426-0.665-0.801 1.466 0 2.779 0 4.092 0 0.29 0 0.409 0.29 0.563 0.477 1.466 1.705 2.949 3.393 4.381 5.115 0.409 0.494 0.614 0.443 0.989-0.017 1.415-1.705 2.881-3.359 4.313-5.063 0.324-0.375 0.648-0.563 1.142-0.546 1.142 0.034 2.267 0.017 3.41 0.017 0.119 0.307-0.153 0.409-0.273 0.563-2.148 2.506-4.279 5.012-6.444 7.484-0.443 0.494-0.392 0.767 0.017 1.245 2.097 2.387 4.16 4.808 6.223 7.229 0.171 0.205 0.426 0.375 0.494 0.767-1.296 0-2.557 0-3.836 0-0.375 0-0.528-0.29-0.733-0.511-1.466-1.705-2.932-3.393-4.381-5.115-0.358-0.426-0.528-0.426-0.869 0-1.432 1.722-2.915 3.41-4.364 5.132-0.307 0.358-0.614 0.529-1.091 0.511-1.142-0.034-2.302 0-3.631 0z"></path>
<path fill="#b9b9b9" style="fill: var(--color2, #b9b9b9)" d="M61.477 3.188c2.216 0 4.433 0.017 6.649-0.017 0.58-0.017 0.75 0.171 0.699 0.716-0.085 0.784 0.341 1.824-0.171 2.284-0.443 0.392-1.466 0.136-2.216 0.136-3.154 0-6.308 0.017-9.462-0.017-0.58 0-0.767 0.136-0.767 0.75 0.034 2.932 0.017 5.848 0.017 8.78 0 1.159 0.358 1.5 1.534 1.5 3.444 0 6.871 0.017 10.314-0.017 0.58 0 0.818 0.136 0.767 0.75-0.068 0.75 0.239 1.756-0.153 2.216-0.443 0.546-1.483 0.171-2.267 0.171-2.847 0.034-5.677 0.017-8.524 0.017-3.188 0-4.808-1.654-4.825-4.842 0-3.444 0-6.871 0-10.314 0-1.688 0.46-2.131 2.097-2.131 2.097 0.017 4.194 0.017 6.308 0.017z"></path>
<path fill="#07506e" style="fill: var(--color1, #07506e)" d="M25.965 11.798c0-2.557 0.034-5.115-0.017-7.672-0.017-0.818 0.256-1.023 0.989-0.955 0.511 0.051 1.023 0.051 1.534 0 0.563-0.051 0.648 0.188 0.648 0.682-0.017 5.319-0.017 10.621 0 15.94 0 0.58-0.188 0.733-0.733 0.699-0.597-0.034-1.193-0.051-1.79 0-0.546 0.051-0.665-0.188-0.648-0.682 0.017-2.677 0.017-5.336 0.017-8.013z"></path>
<path fill="#b9b9b9" style="fill: var(--color2, #b9b9b9)" d="M62.517 10.246c1.398 0 2.779 0.034 4.177-0.017 0.58-0.017 0.75 0.188 0.699 0.733-0.068 0.784 0.324 1.807-0.153 2.302s-1.5 0.136-2.284 0.153c-2.25 0.017-4.484 0-6.734 0.017-0.546 0-0.852-0.068-0.784-0.716 0.085-0.784-0.324-1.807 0.153-2.302 0.477-0.511 1.5-0.136 2.285-0.153 0.887-0.034 1.756-0.017 2.642-0.017z"></path>
<path fill="#b9b9b9" style="fill: var(--color2, #b9b9b9)" d="M5.575 30.636c-1.483 0-1.483 0-1.228-1.279 0.205-1.006 0.392-2.012 0.58-3.001 0.068-0.409 0.222-0.665 0.716-0.614 0.392 0.051 0.801 0 1.193 0.017 0.938 0.051 1.756 0.341 2.097 1.296s0.119 1.858-0.563 2.608c-0.818 0.869-1.858 1.040-2.796 0.972zM4.927 29.954c0.494 0 0.938 0.017 1.381 0 1.193-0.068 2.063-0.972 2.012-2.080-0.034-1.023-0.682-1.466-2.046-1.483-0.46 0-0.716 0.051-0.784 0.597-0.119 0.972-0.358 1.944-0.563 2.966z"></path>
<path fill="#b9b9b9" style="fill: var(--color2, #b9b9b9)" d="M84.254 30.176c-1.057 0.409-1.773 0.256-2.182-0.426-0.426-0.699-0.239-1.739 0.409-2.336 0.665-0.614 1.5-0.682 2.233-0.102 0.341 0.273 0.307 0.051 0.375-0.153 0.085-0.239 0.273-0.273 0.494-0.222 0.307 0.068 0.188 0.307 0.153 0.477-0.222 1.091-0.392 2.182-0.699 3.239-0.341 1.245-2.080 1.739-3.171 0.972-0.119-0.085-0.324-0.153-0.205-0.375s0.256-0.273 0.477-0.119c0.29 0.205 0.631 0.239 0.972 0.222 0.665-0.034 1.159-0.273 1.279-0.989 0.017-0.068 0.034-0.136 0.051-0.222-0.051 0.017-0.119 0.017-0.188 0.034zM83.555 29.835c0.699-0.017 1.279-0.648 1.228-1.347-0.051-0.58-0.358-0.938-0.972-0.938-0.699 0-1.313 0.597-1.279 1.296 0.034 0.631 0.375 0.989 1.023 0.989z"></path>
<path fill="#b9b9b9" style="fill: var(--color2, #b9b9b9)" d="M57.232 30.636c-1.688 0-1.688 0-1.381-1.637 0.17-0.887 0.375-1.773 0.511-2.66 0.068-0.443 0.256-0.631 0.716-0.597 0.733 0.034 1.466 0 2.216 0.017 0.222 0 0.546-0.119 0.529 0.324-0.034 0.392-0.307 0.324-0.546 0.341-0.546 0-1.074 0.017-1.62 0-0.392-0.017-0.597 0.068-0.699 0.511-0.188 0.921-0.188 0.938 0.75 0.938 0.341 0 0.682 0 1.023 0 0.188 0 0.426-0.051 0.392 0.273-0.017 0.239-0.136 0.341-0.375 0.341-0.511 0-1.023 0.017-1.534 0-0.972-0.051-0.682 0.784-0.767 1.21-0.085 0.494 0.426 0.239 0.682 0.256 0.511 0.051 1.023 0 1.534 0.017 0.17 0 0.443-0.085 0.426 0.239 0 0.256-0.119 0.426-0.409 0.426-0.477 0-0.972 0-1.449 0z"></path>
<path fill="#b9b9b9" style="fill: var(--color2, #b9b9b9)" d="M52.117 27.636c0.136-0.648 0.239-1.176 0.341-1.705 0.051-0.29 0.136-0.494 0.477-0.443 0.392 0.051 0.239 0.324 0.205 0.511-0.273 1.415-0.563 2.83-0.835 4.245-0.051 0.273-0.29 0.511-0.426 0.358-0.477-0.529-0.852-0.034-1.262 0.034-1.006 0.153-1.858-0.563-1.841-1.62 0.017-0.852 0.358-1.551 1.176-1.909 0.784-0.358 1.5-0.256 2.165 0.529zM50.958 27.55c-0.904 0.017-1.551 0.699-1.5 1.466 0.051 0.665 0.426 1.040 1.091 1.057 0.733 0 1.381-0.716 1.33-1.483-0.017-0.665-0.375-1.040-0.921-1.040z"></path>
<path fill="#b9b9b9" style="fill: var(--color2, #b9b9b9)" d="M69.421 27.192c0.409-0.222 0.835-0.375 1.313-0.273 0.716 0.153 1.108 0.58 1.006 1.33-0.085 0.665-0.239 1.33-0.375 2.012-0.051 0.256-0.171 0.409-0.46 0.375-0.392-0.034-0.239-0.307-0.205-0.511 0.068-0.443 0.171-0.887 0.256-1.33 0.102-0.46 0.188-0.955-0.375-1.159-0.597-0.222-1.125-0.017-1.449 0.546-0.29 0.494-0.29 1.091-0.443 1.637-0.051 0.188-0.068 0.392-0.119 0.58-0.068 0.256-0.273 0.273-0.477 0.239-0.239-0.034-0.205-0.222-0.171-0.392 0.29-1.466 0.597-2.949 0.869-4.433 0.051-0.307 0.239-0.358 0.477-0.324 0.392 0.051 0.205 0.324 0.188 0.511-0.051 0.341-0.119 0.665-0.171 1.006-0.017 0.068-0.034 0.153-0.051 0.222 0.051-0.017 0.119-0.017 0.188-0.034z"></path>
<path fill="#b9b9b9" style="fill: var(--color2, #b9b9b9)" d="M35.376 27.567c0.188-0.307 0.153-0.767 0.614-0.631 0.511 0.153 0.136 0.529 0.102 0.767-0.119 0.835-0.324 1.654-0.477 2.489-0.051 0.239-0.205 0.563-0.375 0.409-0.529-0.477-0.955 0-1.432 0.034-0.869 0.068-1.551-0.46-1.688-1.313-0.136-0.904 0.256-1.756 1.006-2.165 0.801-0.426 1.466-0.324 2.25 0.409zM34.336 27.55c-0.921-0.017-1.534 0.597-1.534 1.398 0 0.682 0.358 1.074 1.023 1.108 0.733 0.051 1.398-0.648 1.381-1.415-0.017-0.665-0.324-1.057-0.869-1.091z"></path>
<path fill="#b9b9b9" style="fill: var(--color2, #b9b9b9)" d="M75.746 27.602c0.153-0.341 0.153-0.818 0.648-0.648 0.409 0.136 0.119 0.494 0.085 0.733-0.136 0.818-0.307 1.603-0.477 2.421-0.051 0.256-0.171 0.682-0.392 0.511-0.563-0.426-1.006 0.017-1.5 0.051-1.108 0.051-1.858-0.887-1.637-2.046 0.153-0.784 0.597-1.33 1.364-1.585 0.733-0.256 1.364-0.119 1.909 0.563zM74.161 30.074c0.767 0.017 1.432-0.665 1.398-1.449-0.017-0.648-0.341-1.074-1.040-1.074-0.767 0-1.398 0.648-1.381 1.432 0.017 0.665 0.392 1.023 1.023 1.091z"></path>
<path fill="#b9b9b9" style="fill: var(--color2, #b9b9b9)" d="M88.533 29.068c-0.29 0-0.563-0.017-0.852 0-0.188 0.017-0.511-0.153-0.563 0.188-0.034 0.222 0.136 0.426 0.324 0.563 0.46 0.358 0.955 0.307 1.449 0.085 0.222-0.102 0.443-0.222 0.563 0.085 0.136 0.324-0.188 0.375-0.358 0.46-0.767 0.392-1.858 0.188-2.353-0.426-0.528-0.665-0.477-1.739 0.153-2.438 0.597-0.665 1.688-0.887 2.404-0.477 0.46 0.256 0.665 0.682 0.733 1.176 0.068 0.511-0.051 0.835-0.665 0.767-0.256-0.017-0.546 0.017-0.835 0.017zM88.277 28.522c0 0 0 0 0 0 0.29 0 0.563 0 0.852 0 0.153 0 0.307-0.034 0.273-0.239-0.085-0.494-0.375-0.75-0.869-0.767-0.58-0.017-1.176 0.205-1.245 0.784-0.051 0.443 0.528 0.119 0.818 0.222 0.051 0.017 0.119 0 0.171 0z"></path>
<path fill="#b9b9b9" style="fill: var(--color2, #b9b9b9)" d="M19.742 29.068c-0.256 0-0.511-0.017-0.767 0-0.205 0.017-0.511-0.153-0.58 0.153-0.085 0.307 0.153 0.529 0.409 0.682 0.426 0.256 0.869 0.205 1.313 0.017 0.205-0.085 0.426-0.273 0.58 0.034 0.171 0.375-0.188 0.409-0.392 0.511-0.801 0.375-1.841 0.153-2.319-0.46-0.494-0.631-0.426-1.688 0.153-2.353 0.58-0.682 1.654-0.938 2.387-0.546 0.563 0.29 0.784 0.784 0.784 1.398 0 0.375-0.102 0.597-0.529 0.563-0.358-0.017-0.699 0-1.040 0zM18.378 28.522c0.631 0 1.142 0.017 1.637-0.017 0.222-0.017 0.563 0.171 0.597-0.239 0.017-0.29-0.171-0.529-0.443-0.665-0.58-0.29-1.262 0.017-1.79 0.921z"></path>
<path fill="#b9b9b9" style="fill: var(--color2, #b9b9b9)" d="M46.713 29.068c-0.29 0-0.563-0.017-0.852 0-0.188 0.017-0.443-0.102-0.529 0.136-0.102 0.273 0.102 0.494 0.307 0.648 0.46 0.341 0.972 0.29 1.449 0.051 0.239-0.119 0.443-0.153 0.546 0.119 0.102 0.256-0.153 0.324-0.324 0.409-0.767 0.426-1.909 0.239-2.404-0.409-0.511-0.648-0.443-1.739 0.17-2.421 0.631-0.699 1.756-0.887 2.472-0.426 0.239 0.153 0.426 0.375 0.529 0.648 0.375 0.887 0.136 1.245-0.801 1.245-0.17 0-0.375 0-0.563 0zM45.315 28.522c0.58 0 1.074 0.017 1.568 0 0.222-0.017 0.597 0.153 0.648-0.205s-0.17-0.665-0.546-0.75c-0.767-0.188-1.296 0.119-1.671 0.955z"></path>
<path fill="#b9b9b9" style="fill: var(--color2, #b9b9b9)" d="M11.576 29.068c-0.256 0-0.511-0.017-0.767 0-0.205 0.017-0.511-0.136-0.597 0.136-0.102 0.307 0.153 0.529 0.392 0.682 0.443 0.273 0.938 0.205 1.381 0 0.205-0.085 0.375-0.188 0.494 0.051 0.188 0.324-0.119 0.392-0.29 0.477-0.784 0.426-1.909 0.222-2.404-0.426-0.494-0.631-0.426-1.688 0.136-2.353 0.597-0.716 1.722-0.955 2.455-0.511 0.188 0.119 0.358 0.29 0.477 0.46 0.256 0.375 0.341 0.818 0.188 1.227-0.171 0.46-0.648 0.171-0.972 0.239-0.153 0.034-0.324 0.017-0.494 0.017zM10.212 28.522c0.631 0 1.125 0.017 1.637 0 0.222-0.017 0.563 0.153 0.597-0.239 0.017-0.29-0.153-0.529-0.443-0.682-0.597-0.29-1.262 0.017-1.79 0.921z"></path>
<path fill="#b9b9b9" style="fill: var(--color2, #b9b9b9)" d="M81.151 28.369c-0.102 0.529-0.256 1.21-0.375 1.909-0.051 0.29-0.222 0.375-0.477 0.341-0.375-0.051-0.222-0.324-0.188-0.529 0.068-0.426 0.188-0.835 0.256-1.245 0.085-0.494 0.239-1.074-0.46-1.262-0.665-0.171-1.193 0.119-1.432 0.75-0.205 0.529-0.273 1.091-0.409 1.654-0.068 0.29 0 0.699-0.477 0.631-0.546-0.085-0.222-0.494-0.188-0.733 0.119-0.818 0.307-1.62 0.46-2.421 0.051-0.273 0.188-0.733 0.46-0.511 0.511 0.392 0.852 0.017 1.262-0.051 0.972-0.136 1.603 0.392 1.568 1.466z"></path>
<path fill="#b9b9b9" style="fill: var(--color2, #b9b9b9)" d="M25.743 28.318c-0.102 0.546-0.256 1.262-0.392 1.995-0.051 0.29-0.239 0.358-0.494 0.324-0.307-0.051-0.205-0.29-0.188-0.46 0.085-0.443 0.188-0.887 0.273-1.33 0.085-0.477 0.222-1.023-0.409-1.227-0.648-0.205-1.21 0.051-1.466 0.682-0.222 0.546-0.307 1.142-0.426 1.722-0.068 0.29-0.034 0.699-0.494 0.614-0.511-0.102-0.205-0.511-0.171-0.75 0.119-0.818 0.307-1.603 0.477-2.421 0.051-0.256 0.153-0.665 0.392-0.511 0.563 0.392 1.023-0.051 1.517-0.051 0.852-0.034 1.381 0.426 1.381 1.415z"></path>
<path fill="#b9b9b9" style="fill: var(--color2, #b9b9b9)" d="M41.786 30.039c0.511 0 1.006 0 1.517 0 0.17 0 0.392-0.017 0.409 0.188 0.017 0.188-0.085 0.392-0.341 0.392-0.818 0-1.654 0.051-2.455-0.017-0.563-0.051-0.273-0.443-0.085-0.648 0.511-0.529 1.040-1.040 1.568-1.551 0.239-0.239 0.494-0.46 0.801-0.75-0.529-0.256-1.006-0.102-1.466-0.153-0.188-0.017-0.443 0.051-0.443-0.256 0-0.222 0.102-0.358 0.375-0.358 0.767 0.017 1.534-0.068 2.285 0.034 0.699 0.085 0.239 0.477 0.034 0.682-0.648 0.665-1.33 1.313-2.012 1.961-0.102 0.085-0.256 0.119-0.375 0.188 0.085 0.119 0.136 0.205 0.188 0.29z"></path>
<path fill="#b9b9b9" style="fill: var(--color2, #b9b9b9)" d="M61.715 28.13c0.699-0.239 0.801-1.398 2.012-1.108-1.313 1.006-2.012 2.097-0.648 3.478-0.75 0.153-0.75 0.153-1.449-1.159-0.733 0.273-0.869 1.449-1.961 1.279 0.17-0.494 0.563-0.801 0.887-1.108 0.546-0.511 0.75-0.989 0.273-1.671-0.153-0.222-0.631-0.631-0.153-0.869 0.494-0.239 0.614 0.324 0.784 0.665 0.085 0.153 0.17 0.324 0.256 0.494z"></path>
<path fill="#b9b9b9" style="fill: var(--color2, #b9b9b9)" d="M13.69 28.965c0-1.5 1.5-2.489 2.864-1.875 0.205 0.102 0.631 0.153 0.409 0.58-0.171 0.341-0.392 0.153-0.631 0.034-0.426-0.222-0.869-0.222-1.296 0.017-0.58 0.324-0.852 1.227-0.511 1.79 0.409 0.665 1.023 0.597 1.654 0.358 0.222-0.085 0.443-0.392 0.631-0.017 0.171 0.341-0.205 0.409-0.392 0.529-1.33 0.716-2.728-0.017-2.728-1.415z"></path>
<path fill="#b9b9b9" style="fill: var(--color2, #b9b9b9)" d="M65.875 26.92c0.136 0.034 0.426 0.068 0.682 0.188 0.205 0.085 0.546 0.171 0.426 0.511-0.136 0.392-0.392 0.222-0.665 0.085-0.818-0.358-1.654-0.034-1.875 0.733-0.136 0.477-0.153 0.972 0.273 1.33 0.443 0.375 0.955 0.29 1.449 0.085 0.222-0.085 0.46-0.375 0.614 0 0.136 0.341-0.222 0.426-0.426 0.529-0.733 0.375-1.5 0.409-2.148-0.153-0.631-0.546-0.665-1.279-0.392-2.029 0.307-0.801 1.040-1.279 2.063-1.279z"></path>
<path fill="#b9b9b9" style="fill: var(--color2, #b9b9b9)" d="M26.834 29.562c0.068-0.392 0.171-0.852 0.239-1.33 0.051-0.256 0.324-0.631-0.239-0.665-0.034 0-0.068-0.085-0.085-0.136-0.034-0.085 1.040-1.364 1.125-1.364 0.307 0 0.307 0.205 0.256 0.409-0.153 0.529 0.102 0.631 0.546 0.58 0.171-0.017 0.443-0.068 0.409 0.256-0.017 0.256-0.239 0.256-0.443 0.29-0.273 0.051-0.682-0.205-0.784 0.256-0.136 0.665-0.409 1.313-0.29 1.995 0.034 0.222 0.341 0.119 0.529 0.085s0.341-0.051 0.392 0.188c0.034 0.205-0.051 0.307-0.239 0.392-0.358 0.136-0.699 0.222-1.057 0.017-0.375-0.205-0.392-0.529-0.358-0.972z"></path>
<path fill="#b9b9b9" style="fill: var(--color2, #b9b9b9)" d="M36.927 30.142c0.29-1.449 0.58-2.881 0.852-4.33 0.051-0.307 0.222-0.358 0.477-0.341 0.324 0.017 0.256 0.256 0.222 0.426-0.273 1.449-0.58 2.881-0.852 4.33-0.051 0.256-0.153 0.409-0.443 0.392-0.392 0-0.273-0.273-0.256-0.477z"></path>
<path fill="#b9b9b9" style="fill: var(--color2, #b9b9b9)" d="M29.392 30.244c0.205-1.023 0.392-1.978 0.58-2.915 0.017-0.085 0.034-0.239 0.068-0.239 0.648-0.034 1.279-0.068 1.926-0.034 0.068 0 0.068 0.443-0.136 0.477-1.466 0.239-1.466 1.449-1.688 2.506-0.051 0.222-0.034 0.494-0.29 0.563-0.375 0.102-0.58-0.034-0.46-0.358z"></path>
<path fill="#b9b9b9" style="fill: var(--color2, #b9b9b9)" d="M38.973 30.056c0.153-0.835 0.358-1.79 0.529-2.762 0.051-0.273 0.188-0.392 0.46-0.358 0.307 0.034 0.256 0.256 0.222 0.443-0.188 0.972-0.375 1.944-0.563 2.898-0.051 0.256-0.17 0.409-0.46 0.358-0.307-0.034-0.239-0.256-0.188-0.58z"></path>
<path fill="#b9b9b9" style="fill: var(--color2, #b9b9b9)" d="M40.098 26.34c-0.273-0.068-0.409-0.205-0.375-0.426 0.051-0.273 0.239-0.443 0.546-0.409 0.188 0.017 0.29 0.153 0.273 0.358-0.017 0.324-0.239 0.409-0.443 0.477z"></path>
<path fill="#b9b9b9" style="fill: var(--color2, #b9b9b9)" d="M8.831 15.94c1.466 0 2.932-0.051 4.399 0.017 0.835 0.034 1.057-0.239 1.040-1.057-0.051-2.932 0-5.848-0.034-8.78 0-0.614 0.136-0.835 0.801-0.835 1.944 0.034 1.926 0 1.926 1.909 0 2.983 0 5.967 0 8.95 0 0.256 0.136 0.648-0.256 0.716-0.409 0.068-0.818 0.171-0.818-0.58 0.034-3.069 0-6.137-0.017-9.206 0-0.273 0.153-0.75-0.307-0.733-0.46 0-0.29 0.477-0.29 0.75-0.017 3.018-0.034 6.018 0 9.036 0 0.58-0.153 0.801-0.75 0.767-0.955-0.051-1.926-0.051-2.898 0-1.057 0.085-1.926-0.324-2.796-0.955z"></path>
<path fill="#b9b9b9" style="fill: var(--color2, #b9b9b9)" d="M5.882 14.559c1.364 0 2.728-0.034 4.092 0.017 0.665 0.017 0.801-0.205 0.801-0.835-0.034-1.824 0-3.631-0.034-5.456-0.017-0.614 0.153-0.835 0.818-0.835 1.875 0.034 1.875 0.017 1.875 1.858s0 3.7 0 5.541c0 0.307 0.136 0.716-0.46 0.682-0.528-0.034-0.563-0.29-0.563-0.716 0.017-1.875 0.017-3.751 0-5.626 0-0.273 0.153-0.716-0.358-0.682-0.409 0.017-0.29 0.426-0.307 0.682 0 1.875-0.034 3.751 0 5.626 0.017 0.597-0.171 0.801-0.767 0.767-0.904-0.051-1.824-0.034-2.728 0-0.921 0.034-1.62-0.528-2.37-1.023z"></path>
<path fill="#b9b9b9" style="fill: var(--color2, #b9b9b9)" d="M2.898 13.281c1.193 0 2.25-0.051 3.29 0.017 0.887 0.068 1.159-0.29 1.074-1.125-0.051-0.563-0.017-1.125-0.017-1.705 0-0.136-0.051-0.324 0.017-0.426 0.529-0.784 1.33-0.171 1.978-0.358 0.324-0.085 0.614 0 0.597 0.46-0.017 1.193-0.017 2.387 0 3.563 0 0.307-0.119 0.477-0.443 0.477-0.392 0.017-0.477-0.205-0.477-0.546 0-0.801 0-1.585 0-2.387 0-0.29 0.034-0.614-0.375-0.614-0.426 0-0.375 0.358-0.375 0.631 0 0.767 0 1.534 0.017 2.302 0 0.307-0.017 0.597-0.409 0.614-1.62 0.051-3.29 0.273-4.876-0.904z"></path>
<path fill="#b9b9b9" style="fill: var(--color2, #b9b9b9)" d="M84.254 30.176c0.068 0 0.136-0.017 0.188-0.017-0.017 0.068-0.034 0.136-0.051 0.222-0.034-0.085-0.085-0.136-0.136-0.205z"></path>
<path fill="#b9b9b9" style="fill: var(--color2, #b9b9b9)" d="M69.421 27.192c-0.068 0.017-0.136 0.017-0.188 0.034 0.017-0.068 0.034-0.153 0.051-0.222 0.034 0.068 0.085 0.119 0.136 0.188z"></path>
</symbol>
<symbol id="icon-russia" viewBox="0 0 32 32">
<title>Russian</title>
<path fill="#f5f5f5" style="fill: var(--color1, #f5f5f5)" d="M32 12.506h-32v-6.437c0-0.305 0.247-0.552 0.552-0.552h30.896c0.305 0 0.552 0.247 0.552 0.552l-0 6.437z"></path>
<path fill="#ff4b55" style="fill: var(--color2, #ff4b55)" d="M31.448 26.483h-30.896c-0.305 0-0.552-0.247-0.552-0.552v-6.437h32v6.437c0 0.305-0.247 0.552-0.552 0.552z"></path>
<path fill="#41479b" style="fill: var(--color3, #41479b)" d="M0 12.506h32v6.988h-32v-6.988z"></path>
</symbol>
<symbol id="icon-BNB" viewBox="0 0 32 32">
<title>BNB</title>
<path fill="#bfc2c5" style="fill: var(--color1, #bfc2c5)" d="M16.16 0c0.064 0.32 0.336 0.464 0.544 0.672 2.864 2.864 5.712 5.744 8.608 8.592 0.496 0.48 0.464 0.736-0.016 1.184-0.896 0.832-1.76 1.696-2.608 2.592-0.384 0.4-0.592 0.336-0.928-0.016-1.728-1.776-3.504-3.504-5.248-5.28-0.384-0.4-0.608-0.416-1.008 0-1.728 1.76-3.504 3.488-5.248 5.264-0.336 0.352-0.544 0.448-0.928 0.032-0.864-0.944-1.776-1.84-2.72-2.72-0.432-0.4-0.336-0.64 0.032-1.008 2.896-2.864 5.776-5.76 8.656-8.64 0.208-0.208 0.496-0.352 0.544-0.672 0.112 0 0.208 0 0.32 0z"></path>
<path fill="#bfc2c5" style="fill: var(--color1, #bfc2c5)" d="M15.84 32c-0.048-0.32-0.336-0.464-0.528-0.672-2.864-2.864-5.712-5.744-8.608-8.592-0.496-0.48-0.464-0.736 0.016-1.184 0.88-0.8 1.744-1.648 2.544-2.544 0.432-0.48 0.656-0.384 1.056 0.032 1.712 1.76 3.472 3.472 5.184 5.216 0.4 0.4 0.624 0.384 1.008-0.016 1.728-1.776 3.504-3.504 5.248-5.28 0.352-0.352 0.56-0.416 0.928-0.016 0.832 0.896 1.696 1.776 2.608 2.592 0.48 0.448 0.496 0.704 0.016 1.184-2.896 2.848-5.744 5.712-8.608 8.592-0.208 0.208-0.48 0.352-0.544 0.672-0.112 0.016-0.208 0.016-0.32 0.016z"></path>
<path fill="#bfc2c5" style="fill: var(--color1, #bfc2c5)" d="M0 15.84c1.136-0.832 2.048-1.92 3.024-2.912 0.48-0.48 0.736-0.464 1.184 0.016 0.848 0.912 1.744 1.792 2.656 2.656 0.336 0.32 0.336 0.496 0 0.816-0.944 0.896-1.872 1.824-2.768 2.768-0.352 0.384-0.592 0.4-0.944 0.016-0.816-0.864-1.68-1.712-2.528-2.544-0.176-0.176-0.32-0.432-0.608-0.48-0.016-0.128-0.016-0.224-0.016-0.336z"></path>
<path fill="#bfc2c5" style="fill: var(--color1, #bfc2c5)" d="M32 16.16c-1.152 0.864-2.064 1.968-3.072 2.976-0.432 0.432-0.672 0.4-1.072-0.016-0.864-0.928-1.776-1.824-2.704-2.704-0.336-0.32-0.336-0.496 0-0.816 0.928-0.88 1.84-1.776 2.704-2.704 0.4-0.432 0.64-0.448 1.072-0.016 1.008 1.008 1.936 2.112 3.072 2.976 0 0.096 0 0.192 0 0.304z"></path>
<path fill="#bfc2c5" style="fill: var(--color1, #bfc2c5)" d="M19.664 16c-0.112 0.128-0.208 0.256-0.32 0.352-0.992 0.992-2 1.984-2.992 2.992-0.272 0.288-0.432 0.272-0.704 0-0.976-1.008-1.984-2.016-2.992-2.992-0.272-0.256-0.304-0.416-0.016-0.704 1.040-1.008 2.048-2.032 3.056-3.040 0.192-0.192 0.336-0.288 0.592-0.048 1.040 1.056 2.112 2.112 3.152 3.168 0.064 0.080 0.128 0.16 0.224 0.272z"></path>
</symbol>
<symbol id="icon-united-states" viewBox="0 0 32 32">
<title>English</title>
<path fill="#f5f5f5" style="fill: var(--color1, #f5f5f5)" d="M31.448 26.483h-30.896c-0.305 0-0.552-0.247-0.552-0.552v-19.862c0-0.305 0.247-0.552 0.552-0.552h30.896c0.305 0 0.552 0.247 0.552 0.552v19.862c-0 0.305-0.247 0.552-0.552 0.552z"></path>
<path fill="#ff4b55" style="fill: var(--color2, #ff4b55)" d="M32 7.13h-32v-1.061c0-0.305 0.247-0.552 0.552-0.552h30.896c0.305 0 0.552 0.247 0.552 0.552l-0 1.061z"></path>
<path fill="#ff4b55" style="fill: var(--color2, #ff4b55)" d="M0 11.968h32v1.613h-32v-1.613z"></path>
<path fill="#ff4b55" style="fill: var(--color2, #ff4b55)" d="M0 8.743h32v1.613h-32v-1.613z"></path>
<path fill="#ff4b55" style="fill: var(--color2, #ff4b55)" d="M32 16.806h-31.448c-0.305 0-0.552-0.247-0.552-0.552v-1.061h32v1.613z"></path>
<path fill="#ff4b55" style="fill: var(--color2, #ff4b55)" d="M0 21.645h32v1.613h-32v-1.613z"></path>
<path fill="#ff4b55" style="fill: var(--color2, #ff4b55)" d="M31.448 26.483h-30.896c-0.305 0-0.552-0.247-0.552-0.552v-1.061h32v1.061c0 0.305-0.247 0.552-0.552 0.552z"></path>
<path fill="#ff4b55" style="fill: var(--color2, #ff4b55)" d="M0 18.419h32v1.613h-32v-1.613z"></path>
<path fill="#41479b" style="fill: var(--color3, #41479b)" d="M14.345 5.517h-13.793c-0.305 0-0.552 0.247-0.552 0.552v10.186c0 0.305 0.247 0.552 0.552 0.552h13.793c0.305 0 0.552-0.247 0.552-0.552v-10.186c-0-0.305-0.247-0.552-0.552-0.552z"></path>
<path fill="#f5f5f5" style="fill: var(--color1, #f5f5f5)" d="M1.549 6.784l0.122 0.366 0.386 0.003c0.050 0 0.071 0.064 0.030 0.094l-0.311 0.229 0.117 0.368c0.015 0.048-0.039 0.087-0.080 0.058l-0.314-0.224-0.314 0.224c-0.041 0.029-0.095-0.010-0.080-0.058l0.117-0.368-0.311-0.229c-0.040-0.030-0.019-0.093 0.030-0.094l0.386-0.003 0.122-0.366c0.016-0.048 0.083-0.048 0.099-0z"></path>
<path fill="#f5f5f5" style="fill: var(--color1, #f5f5f5)" d="M1.549 8.699l0.122 0.366 0.386 0.003c0.050 0 0.071 0.064 0.030 0.094l-0.311 0.229 0.117 0.368c0.015 0.048-0.039 0.087-0.080 0.058l-0.314-0.224-0.314 0.225c-0.041 0.029-0.095-0.010-0.080-0.058l0.117-0.368-0.311-0.229c-0.040-0.030-0.019-0.093 0.030-0.094l0.386-0.003 0.122-0.366c0.016-0.047 0.083-0.047 0.099-0z"></path>
<path fill="#f5f5f5" style="fill: var(--color1, #f5f5f5)" d="M1.549 10.615l0.122 0.366 0.386 0.003c0.050 0 0.071 0.064 0.030 0.094l-0.311 0.229 0.117 0.368c0.015 0.048-0.039 0.087-0.080 0.058l-0.314-0.224-0.314 0.225c-0.041 0.029-0.095-0.010-0.080-0.058l0.117-0.368-0.311-0.229c-0.040-0.030-0.019-0.093 0.030-0.094l0.386-0.003 0.122-0.366c0.016-0.047 0.083-0.047 0.099-0z"></path>
<path fill="#f5f5f5" style="fill: var(--color1, #f5f5f5)" d="M1.549 12.531l0.122 0.366 0.386 0.003c0.050 0 0.071 0.064 0.030 0.094l-0.311 0.229 0.117 0.368c0.015 0.048-0.039 0.087-0.080 0.058l-0.314-0.224-0.314 0.225c-0.041 0.029-0.095-0.010-0.080-0.058l0.117-0.368-0.311-0.229c-0.040-0.030-0.019-0.093 0.030-0.094l0.386-0.003 0.122-0.366c0.016-0.047 0.083-0.047 0.099-0z"></path>
<path fill="#f5f5f5" style="fill: var(--color1, #f5f5f5)" d="M1.549 14.447l0.122 0.366 0.386 0.003c0.050 0 0.071 0.064 0.030 0.094l-0.311 0.229 0.117 0.368c0.015 0.048-0.039 0.087-0.080 0.058l-0.314-0.224-0.314 0.225c-0.041 0.029-0.095-0.010-0.080-0.058l0.117-0.368-0.311-0.229c-0.040-0.030-0.019-0.093 0.030-0.094l0.386-0.003 0.122-0.366c0.016-0.048 0.083-0.048 0.099-0z"></path>
<path fill="#f5f5f5" style="fill: var(--color1, #f5f5f5)" d="M3.036 7.723l0.122 0.366 0.386 0.003c0.050 0 0.071 0.064 0.030 0.094l-0.311 0.229 0.116 0.368c0.015 0.048-0.039 0.087-0.080 0.058l-0.314-0.225-0.314 0.225c-0.041 0.029-0.095-0.010-0.080-0.058l0.116-0.368-0.311-0.229c-0.040-0.030-0.019-0.093 0.030-0.094l0.386-0.003 0.122-0.366c0.016-0.047 0.083-0.047 0.099 0z"></path>
<path fill="#f5f5f5" style="fill: var(--color1, #f5f5f5)" d="M3.036 9.639l0.122 0.366 0.386 0.003c0.050 0 0.071 0.064 0.030 0.094l-0.311 0.229 0.116 0.368c0.015 0.048-0.039 0.087-0.080 0.058l-0.314-0.225-0.314 0.225c-0.041 0.029-0.095-0.010-0.080-0.058l0.116-0.368-0.311-0.229c-0.040-0.030-0.019-0.093 0.030-0.094l0.386-0.003 0.122-0.366c0.016-0.047 0.083-0.047 0.099 0z"></path>
<path fill="#f5f5f5" style="fill: var(--color1, #f5f5f5)" d="M3.036 11.555l0.122 0.366 0.386 0.003c0.050 0 0.071 0.064 0.030 0.094l-0.311 0.229 0.116 0.368c0.015 0.048-0.039 0.087-0.080 0.058l-0.314-0.225-0.314 0.225c-0.041 0.029-0.095-0.010-0.080-0.058l0.116-0.368-0.311-0.229c-0.040-0.030-0.019-0.093 0.030-0.094l0.386-0.003 0.122-0.366c0.016-0.047 0.083-0.047 0.099 0z"></path>
<path fill="#f5f5f5" style="fill: var(--color1, #f5f5f5)" d="M3.036 13.471l0.122 0.366 0.386 0.003c0.050 0 0.071 0.064 0.030 0.094l-0.311 0.229 0.116 0.368c0.015 0.048-0.039 0.087-0.080 0.058l-0.314-0.225-0.314 0.225c-0.041 0.029-0.095-0.010-0.080-0.058l0.116-0.368-0.311-0.229c-0.040-0.030-0.019-0.093 0.030-0.094l0.386-0.003 0.122-0.366c0.016-0.047 0.083-0.047 0.099 0z"></path>
<path fill="#f5f5f5" style="fill: var(--color1, #f5f5f5)" d="M4.523 6.784l0.122 0.366 0.386 0.003c0.050 0 0.071 0.064 0.030 0.094l-0.311 0.229 0.117 0.368c0.015 0.048-0.039 0.087-0.080 0.058l-0.314-0.224-0.314 0.224c-0.041 0.029-0.095-0.010-0.080-0.058l0.117-0.368-0.311-0.229c-0.040-0.030-0.019-0.093 0.030-0.094l0.386-0.003 0.122-0.366c0.016-0.047 0.083-0.047 0.099 0z"></path>
<path fill="#f5f5f5" style="fill: var(--color1, #f5f5f5)" d="M4.523 8.699l0.122 0.366 0.386 0.003c0.050 0 0.071 0.064 0.030 0.094l-0.311 0.229 0.117 0.368c0.015 0.048-0.039 0.087-0.080 0.058l-0.314-0.225-0.314 0.225c-0.041 0.029-0.095-0.010-0.080-0.058l0.117-0.368-0.311-0.229c-0.040-0.030-0.019-0.093 0.030-0.094l0.386-0.003 0.122-0.366c0.016-0.047 0.083-0.047 0.099 0z"></path>
<path fill="#f5f5f5" style="fill: var(--color1, #f5f5f5)" d="M4.523 10.615l0.122 0.366 0.386 0.003c0.050 0 0.071 0.064 0.030 0.094l-0.311 0.229 0.117 0.368c0.015 0.048-0.039 0.087-0.080 0.058l-0.314-0.225-0.314 0.225c-0.041 0.029-0.095-0.010-0.080-0.058l0.117-0.368-0.311-0.229c-0.040-0.030-0.019-0.093 0.030-0.094l0.386-0.003 0.122-0.366c0.016-0.047 0.083-0.047 0.099 0z"></path>
<path fill="#f5f5f5" style="fill: var(--color1, #f5f5f5)" d="M4.523 12.531l0.122 0.366 0.386 0.003c0.050 0 0.071 0.064 0.030 0.094l-0.311 0.229 0.117 0.368c0.015 0.048-0.039 0.087-0.080 0.058l-0.314-0.225-0.314 0.225c-0.041 0.029-0.095-0.010-0.080-0.058l0.117-0.368-0.311-0.229c-0.040-0.030-0.019-0.093 0.030-0.094l0.386-0.003 0.122-0.366c0.016-0.047 0.083-0.047 0.099 0z"></path>
<path fill="#f5f5f5" style="fill: var(--color1, #f5f5f5)" d="M4.523 14.447l0.122 0.366 0.386 0.003c0.050 0 0.071 0.064 0.030 0.094l-0.311 0.229 0.117 0.368c0.015 0.048-0.039 0.087-0.080 0.058l-0.314-0.225-0.314 0.225c-0.041 0.029-0.095-0.010-0.080-0.058l0.117-0.368-0.311-0.229c-0.040-0.030-0.019-0.093 0.030-0.094l0.386-0.003 0.122-0.366c0.016-0.047 0.083-0.047 0.099 0z"></path>
<path fill="#f5f5f5" style="fill: var(--color1, #f5f5f5)" d="M6.011 7.723l0.122 0.366 0.386 0.003c0.050 0 0.071 0.064 0.030 0.094l-0.311 0.229 0.117 0.368c0.015 0.048-0.039 0.087-0.080 0.058l-0.314-0.225-0.314 0.225c-0.041 0.029-0.095-0.010-0.080-0.058l0.117-0.368-0.311-0.229c-0.040-0.030-0.019-0.093 0.030-0.094l0.386-0.003 0.122-0.366c0.016-0.047 0.083-0.047 0.099 0z"></path>
<path fill="#f5f5f5" style="fill: var(--color1, #f5f5f5)" d="M6.011 9.639l0.122 0.366 0.386 0.003c0.050 0 0.071 0.064 0.030 0.094l-0.311 0.229 0.117 0.368c0.015 0.048-0.039 0.087-0.080 0.058l-0.314-0.225-0.314 0.225c-0.041 0.029-0.095-0.010-0.080-0.058l0.117-0.368-0.311-0.229c-0.040-0.030-0.019-0.093 0.030-0.094l0.386-0.003 0.122-0.366c0.016-0.047 0.083-0.047 0.099 0z"></path>
<path fill="#f5f5f5" style="fill: var(--color1, #f5f5f5)" d="M6.011 11.555l0.122 0.366 0.386 0.003c0.050 0 0.071 0.064 0.030 0.094l-0.311 0.229 0.117 0.368c0.015 0.048-0.039 0.087-0.080 0.058l-0.314-0.225-0.314 0.225c-0.041 0.029-0.095-0.010-0.080-0.058l0.117-0.368-0.311-0.229c-0.040-0.030-0.019-0.093 0.030-0.094l0.386-0.003 0.122-0.366c0.016-0.047 0.083-0.047 0.099 0z"></path>
<path fill="#f5f5f5" style="fill: var(--color1, #f5f5f5)" d="M6.011 13.471l0.122 0.366 0.386 0.003c0.050 0 0.071 0.064 0.030 0.094l-0.311 0.229 0.117 0.368c0.015 0.048-0.039 0.087-0.080 0.058l-0.314-0.225-0.314 0.225c-0.041 0.029-0.095-0.010-0.080-0.058l0.117-0.368-0.311-0.229c-0.040-0.030-0.019-0.093 0.030-0.094l0.386-0.003 0.122-0.366c0.016-0.047 0.083-0.047 0.099 0z"></path>
<path fill="#f5f5f5" style="fill: var(--color1, #f5f5f5)" d="M7.498 6.784l0.122 0.366 0.386 0.003c0.050 0 0.071 0.064 0.030 0.094l-0.311 0.229 0.117 0.368c0.015 0.048-0.039 0.087-0.080 0.058l-0.314-0.224-0.314 0.224c-0.041 0.029-0.095-0.010-0.080-0.058l0.117-0.368-0.311-0.229c-0.040-0.030-0.019-0.093 0.030-0.094l0.386-0.003 0.122-0.366c0.016-0.047 0.083-0.047 0.099 0z"></path>
<path fill="#f5f5f5" style="fill: var(--color1, #f5f5f5)" d="M7.498 8.699l0.122 0.366 0.386 0.003c0.050 0 0.071 0.064 0.030 0.094l-0.311 0.229 0.117 0.368c0.015 0.048-0.039 0.087-0.080 0.058l-0.314-0.225-0.314 0.225c-0.041 0.029-0.095-0.010-0.080-0.058l0.117-0.368-0.311-0.229c-0.040-0.030-0.019-0.093 0.030-0.094l0.386-0.003 0.122-0.366c0.016-0.047 0.083-0.047 0.099 0z"></path>
<path fill="#f5f5f5" style="fill: var(--color1, #f5f5f5)" d="M7.498 10.615l0.122 0.366 0.386 0.003c0.050 0 0.071 0.064 0.030 0.094l-0.311 0.229 0.117 0.368c0.015 0.048-0.039 0.087-0.080 0.058l-0.314-0.225-0.314 0.225c-0.041 0.029-0.095-0.010-0.080-0.058l0.117-0.368-0.311-0.229c-0.040-0.030-0.019-0.093 0.030-0.094l0.386-0.003 0.122-0.366c0.016-0.047 0.083-0.047 0.099 0z"></path>
<path fill="#f5f5f5" style="fill: var(--color1, #f5f5f5)" d="M7.498 12.531l0.122 0.366 0.386 0.003c0.050 0 0.071 0.064 0.030 0.094l-0.311 0.229 0.117 0.368c0.015 0.048-0.039 0.087-0.080 0.058l-0.314-0.225-0.314 0.225c-0.041 0.029-0.095-0.010-0.080-0.058l0.117-0.368-0.311-0.229c-0.040-0.030-0.019-0.093 0.030-0.094l0.386-0.003 0.122-0.366c0.016-0.047 0.083-0.047 0.099 0z"></path>
<path fill="#f5f5f5" style="fill: var(--color1, #f5f5f5)" d="M7.498 14.447l0.122 0.366 0.386 0.003c0.050 0 0.071 0.064 0.030 0.094l-0.311 0.229 0.117 0.368c0.015 0.048-0.039 0.087-0.080 0.058l-0.314-0.225-0.314 0.225c-0.041 0.029-0.095-0.010-0.080-0.058l0.117-0.368-0.311-0.229c-0.040-0.030-0.019-0.093 0.030-0.094l0.386-0.003 0.122-0.366c0.016-0.047 0.083-0.047 0.099 0z"></path>
<path fill="#f5f5f5" style="fill: var(--color1, #f5f5f5)" d="M8.985 7.723l0.122 0.366 0.386 0.003c0.050 0 0.071 0.064 0.030 0.094l-0.311 0.229 0.117 0.368c0.015 0.048-0.039 0.087-0.080 0.058l-0.314-0.225-0.314 0.225c-0.041 0.029-0.095-0.010-0.080-0.058l0.117-0.368-0.311-0.229c-0.040-0.030-0.020-0.093 0.030-0.094l0.386-0.003 0.122-0.366c0.016-0.047 0.083-0.047 0.099 0z"></path>
<path fill="#f5f5f5" style="fill: var(--color1, #f5f5f5)" d="M8.985 9.639l0.122 0.366 0.386 0.003c0.050 0 0.071 0.064 0.030 0.094l-0.311 0.229 0.117 0.368c0.015 0.048-0.039 0.087-0.080 0.058l-0.314-0.225-0.314 0.225c-0.041 0.029-0.095-0.010-0.080-0.058l0.117-0.368-0.311-0.229c-0.040-0.030-0.020-0.093 0.030-0.094l0.386-0.003 0.122-0.366c0.016-0.047 0.083-0.047 0.099 0z"></path>
<path fill="#f5f5f5" style="fill: var(--color1, #f5f5f5)" d="M8.985 11.555l0.122 0.366 0.386 0.003c0.050 0 0.071 0.064 0.030 0.094l-0.311 0.229 0.117 0.368c0.015 0.048-0.039 0.087-0.080 0.058l-0.314-0.225-0.314 0.225c-0.041 0.029-0.095-0.010-0.080-0.058l0.117-0.368-0.311-0.229c-0.040-0.030-0.020-0.093 0.030-0.094l0.386-0.003 0.122-0.366c0.016-0.047 0.083-0.047 0.099 0z"></path>
<path fill="#f5f5f5" style="fill: var(--color1, #f5f5f5)" d="M8.985 13.471l0.122 0.366 0.386 0.003c0.050 0 0.071 0.064 0.030 0.094l-0.311 0.229 0.117 0.368c0.015 0.048-0.039 0.087-0.080 0.058l-0.314-0.225-0.314 0.225c-0.041 0.029-0.095-0.010-0.080-0.058l0.117-0.368-0.311-0.229c-0.040-0.030-0.020-0.093 0.030-0.094l0.386-0.003 0.122-0.366c0.016-0.047 0.083-0.047 0.099 0z"></path>
<path fill="#f5f5f5" style="fill: var(--color1, #f5f5f5)" d="M10.472 6.784l0.122 0.366 0.386 0.003c0.050 0 0.071 0.064 0.030 0.094l-0.311 0.229 0.117 0.368c0.015 0.048-0.039 0.087-0.080 0.058l-0.314-0.224-0.314 0.224c-0.041 0.029-0.095-0.010-0.080-0.058l0.117-0.368-0.311-0.229c-0.040-0.030-0.020-0.093 0.030-0.094l0.386-0.003 0.122-0.366c0.016-0.047 0.083-0.047 0.099 0z"></path>
<path fill="#f5f5f5" style="fill: var(--color1, #f5f5f5)" d="M10.472 8.699l0.122 0.366 0.386 0.003c0.050 0 0.071 0.064 0.030 0.094l-0.311 0.229 0.117 0.368c0.015 0.048-0.039 0.087-0.080 0.058l-0.314-0.225-0.314 0.225c-0.041 0.029-0.095-0.010-0.080-0.058l0.117-0.368-0.311-0.229c-0.040-0.030-0.020-0.093 0.030-0.094l0.386-0.003 0.122-0.366c0.016-0.047 0.083-0.047 0.099 0z"></path>
<path fill="#f5f5f5" style="fill: var(--color1, #f5f5f5)" d="M10.472 10.615l0.122 0.366 0.386 0.003c0.050 0 0.071 0.064 0.030 0.094l-0.311 0.229 0.117 0.368c0.015 0.048-0.039 0.087-0.080 0.058l-0.314-0.225-0.314 0.225c-0.041 0.029-0.095-0.010-0.080-0.058l0.117-0.368-0.311-0.229c-0.040-0.030-0.020-0.093 0.030-0.094l0.386-0.003 0.122-0.366c0.016-0.047 0.083-0.047 0.099 0z"></path>
<path fill="#f5f5f5" style="fill: var(--color1, #f5f5f5)" d="M10.472 12.531l0.122 0.366 0.386 0.003c0.050 0 0.071 0.064 0.030 0.094l-0.311 0.229 0.117 0.368c0.015 0.048-0.039 0.087-0.080 0.058l-0.314-0.225-0.314 0.225c-0.041 0.029-0.095-0.010-0.080-0.058l0.117-0.368-0.311-0.229c-0.040-0.030-0.020-0.093 0.030-0.094l0.386-0.003 0.122-0.366c0.016-0.047 0.083-0.047 0.099 0z"></path>
<path fill="#f5f5f5" style="fill: var(--color1, #f5f5f5)" d="M10.472 14.447l0.122 0.366 0.386 0.003c0.050 0 0.071 0.064 0.030 0.094l-0.311 0.229 0.117 0.368c0.015 0.048-0.039 0.087-0.080 0.058l-0.314-0.225-0.314 0.225c-0.041 0.029-0.095-0.010-0.080-0.058l0.117-0.368-0.311-0.229c-0.040-0.030-0.020-0.093 0.030-0.094l0.386-0.003 0.122-0.366c0.016-0.047 0.083-0.047 0.099 0z"></path>
<path fill="#f5f5f5" style="fill: var(--color1, #f5f5f5)" d="M11.959 7.723l0.122 0.366 0.386 0.003c0.050 0 0.071 0.064 0.030 0.094l-0.311 0.229 0.117 0.368c0.015 0.048-0.039 0.087-0.080 0.058l-0.314-0.225-0.314 0.225c-0.041 0.029-0.095-0.010-0.080-0.058l0.117-0.368-0.311-0.229c-0.040-0.030-0.020-0.093 0.030-0.094l0.386-0.003 0.122-0.366c0.016-0.047 0.083-0.047 0.099 0z"></path>
<path fill="#f5f5f5" style="fill: var(--color1, #f5f5f5)" d="M11.959 9.639l0.122 0.366 0.386 0.003c0.050 0 0.071 0.064 0.030 0.094l-0.311 0.229 0.117 0.368c0.015 0.048-0.039 0.087-0.080 0.058l-0.314-0.225-0.314 0.225c-0.041 0.029-0.095-0.010-0.080-0.058l0.117-0.368-0.311-0.229c-0.040-0.030-0.020-0.093 0.030-0.094l0.386-0.003 0.122-0.366c0.016-0.047 0.083-0.047 0.099 0z"></path>
<path fill="#f5f5f5" style="fill: var(--color1, #f5f5f5)" d="M11.959 11.555l0.122 0.366 0.386 0.003c0.050 0 0.071 0.064 0.030 0.094l-0.311 0.229 0.117 0.368c0.015 0.048-0.039 0.087-0.080 0.058l-0.314-0.225-0.314 0.225c-0.041 0.029-0.095-0.010-0.080-0.058l0.117-0.368-0.311-0.229c-0.040-0.030-0.020-0.093 0.030-0.094l0.386-0.003 0.122-0.366c0.016-0.047 0.083-0.047 0.099 0z"></path>
<path fill="#f5f5f5" style="fill: var(--color1, #f5f5f5)" d="M11.959 13.471l0.122 0.366 0.386 0.003c0.050 0 0.071 0.064 0.030 0.094l-0.311 0.229 0.117 0.368c0.015 0.048-0.039 0.087-0.080 0.058l-0.314-0.225-0.314 0.225c-0.041 0.029-0.095-0.010-0.080-0.058l0.117-0.368-0.311-0.229c-0.040-0.030-0.020-0.093 0.030-0.094l0.386-0.003 0.122-0.366c0.016-0.047 0.083-0.047 0.099 0z"></path>
<path fill="#f5f5f5" style="fill: var(--color1, #f5f5f5)" d="M13.446 6.784l0.122 0.366 0.386 0.003c0.050 0 0.071 0.064 0.030 0.094l-0.311 0.229 0.117 0.368c0.015 0.048-0.039 0.087-0.080 0.058l-0.314-0.224-0.314 0.224c-0.041 0.029-0.095-0.010-0.080-0.058l0.117-0.368-0.311-0.229c-0.040-0.030-0.020-0.093 0.030-0.094l0.386-0.003 0.122-0.366c0.016-0.047 0.083-0.047 0.099 0z"></path>
<path fill="#f5f5f5" style="fill: var(--color1, #f5f5f5)" d="M13.446 8.699l0.122 0.366 0.386 0.003c0.050 0 0.071 0.064 0.030 0.094l-0.311 0.229 0.117 0.368c0.015 0.048-0.039 0.087-0.080 0.058l-0.314-0.225-0.314 0.225c-0.041 0.029-0.095-0.010-0.080-0.058l0.117-0.368-0.311-0.229c-0.040-0.030-0.020-0.093 0.030-0.094l0.386-0.003 0.122-0.366c0.016-0.047 0.083-0.047 0.099 0z"></path>
<path fill="#f5f5f5" style="fill: var(--color1, #f5f5f5)" d="M13.446 10.615l0.122 0.366 0.386 0.003c0.050 0 0.071 0.064 0.030 0.094l-0.311 0.229 0.117 0.368c0.015 0.048-0.039 0.087-0.080 0.058l-0.314-0.225-0.314 0.225c-0.041 0.029-0.095-0.010-0.080-0.058l0.117-0.368-0.311-0.229c-0.040-0.030-0.020-0.093 0.030-0.094l0.386-0.003 0.122-0.366c0.016-0.047 0.083-0.047 0.099 0z"></path>
<path fill="#f5f5f5" style="fill: var(--color1, #f5f5f5)" d="M13.446 12.531l0.122 0.366 0.386 0.003c0.050 0 0.071 0.064 0.030 0.094l-0.311 0.229 0.117 0.368c0.015 0.048-0.039 0.087-0.080 0.058l-0.314-0.225-0.314 0.225c-0.041 0.029-0.095-0.010-0.080-0.058l0.117-0.368-0.311-0.229c-0.040-0.030-0.020-0.093 0.030-0.094l0.386-0.003 0.122-0.366c0.016-0.047 0.083-0.047 0.099 0z"></path>
<path fill="#f5f5f5" style="fill: var(--color1, #f5f5f5)" d="M13.446 14.447l0.122 0.366 0.386 0.003c0.050 0 0.071 0.064 0.030 0.094l-0.311 0.229 0.117 0.368c0.015 0.048-0.039 0.087-0.080 0.058l-0.314-0.225-0.314 0.225c-0.041 0.029-0.095-0.010-0.080-0.058l0.117-0.368-0.311-0.229c-0.040-0.030-0.020-0.093 0.030-0.094l0.386-0.003 0.122-0.366c0.016-0.047 0.083-0.047 0.099 0z"></path>
</symbol>
<symbol id="icon-yobit" viewBox="0 0 162 32">
<title>yobit</title>
<path fill="#f9f9f9" style="fill: var(--color1, #f9f9f9)" d="M10.006 31.146v-12.636l-9.733-18.203h7.957l3.142 7.411c0.956 2.254 1.605 3.893 2.391 5.908h0.102c0.683-1.912 1.434-3.723 2.322-5.908l3.108-7.411h7.821l-10.143 17.998v12.875h-6.967z"></path>
<path fill="#f9f9f9" style="fill: var(--color1, #f9f9f9)" d="M38.42 31.863c-4.474 0-7.718-1.264-9.699-3.791-2.015-2.527-3.005-6.557-3.005-12.055 0-5.464 0.99-9.46 3.005-11.987s5.225-3.791 9.699-3.791c4.474 0 7.718 1.264 9.699 3.791 2.015 2.527 3.005 6.523 3.005 11.987 0 5.498-0.99 9.528-3.005 12.056-1.981 2.527-5.225 3.791-9.699 3.791zM45.080 15.983c0-2.152-0.137-3.927-0.376-5.362-0.273-1.434-0.649-2.561-1.195-3.415s-1.229-1.469-2.083-1.81c-0.854-0.341-1.844-0.546-3.005-0.546s-2.152 0.171-3.005 0.546c-0.854 0.341-1.537 0.956-2.083 1.81s-0.922 1.981-1.195 3.415c-0.273 1.434-0.376 3.21-0.376 5.362 0 2.186 0.137 3.996 0.376 5.43 0.273 1.434 0.649 2.596 1.195 3.449s1.229 1.434 2.083 1.776c0.854 0.341 1.844 0.512 3.005 0.512s2.152-0.171 3.005-0.512c0.854-0.341 1.537-0.922 2.083-1.776s0.922-2.015 1.195-3.449c0.239-1.434 0.376-3.244 0.376-5.43z"></path>
<path fill="#0aadef" style="fill: var(--color2, #0aadef)" d="M57.58 0.239c0.854 0 1.298 0.41 1.298 1.264v9.050c0.649-0.444 1.434-0.888 2.356-1.264 0.888-0.376 1.981-0.546 3.244-0.546 1.229 0 2.322 0.239 3.279 0.683s1.776 1.127 2.425 2.049c0.649 0.922 1.161 2.117 1.503 3.586s0.512 3.21 0.512 5.259c0 2.049-0.171 3.757-0.546 5.191s-0.922 2.596-1.708 3.518c-0.785 0.922-1.776 1.571-3.005 2.015-1.229 0.41-2.664 0.615-4.371 0.615-1.639 0-3.074-0.137-4.337-0.444-1.264-0.273-2.186-0.546-2.835-0.82-0.342-0.137-0.581-0.307-0.717-0.546-0.137-0.205-0.205-0.512-0.205-0.922v-28.653h3.108zM58.877 27.799c0.581 0.137 1.161 0.273 1.708 0.341 0.581 0.102 1.229 0.137 1.981 0.137 0.888 0 1.673-0.102 2.322-0.307s1.195-0.581 1.639-1.195c0.444-0.581 0.751-1.4 0.956-2.425s0.307-2.391 0.307-4.030c0-1.537-0.102-2.835-0.273-3.859s-0.478-1.844-0.854-2.459c-0.376-0.615-0.854-1.059-1.434-1.332s-1.264-0.41-2.049-0.41c-0.922 0-1.742 0.137-2.425 0.41-0.717 0.273-1.332 0.615-1.878 1.025v14.105z"></path>
<path fill="#0aadef" style="fill: var(--color2, #0aadef)" d="M79.197 5.806c-0.956 0-1.639-0.171-2.049-0.546-0.41-0.341-0.615-0.956-0.615-1.844 0-0.82 0.205-1.434 0.615-1.81s1.093-0.546 2.049-0.546c0.922 0 1.605 0.171 2.015 0.546 0.444 0.376 0.649 0.99 0.649 1.81 0 0.854-0.205 1.469-0.649 1.844s-1.093 0.546-2.015 0.546zM81.383 31.146h-3.313c-0.683 0-1.025-0.341-1.025-0.99v-20.901h3.313c0.683 0 1.025 0.341 1.025 0.99v20.901z"></path>
<path fill="#0aadef" style="fill: var(--color2, #0aadef)" d="M97.537 31.010c-0.649 0.171-1.298 0.307-1.878 0.376-0.581 0.102-1.195 0.137-1.844 0.137-2.049 0-3.552-0.444-4.508-1.366-0.922-0.922-1.4-2.356-1.4-4.337v-13.114h-1.469c-0.683 0-1.025-0.341-1.025-0.99v-2.459h2.63l0.205-5.669h3.005c0.683 0 1.025 0.341 1.025 0.99v4.679h4.201c0.307 0 0.581 0.102 0.751 0.273s0.273 0.41 0.273 0.717v2.459h-5.191v12.909c0 0.785 0.137 1.366 0.376 1.81s0.785 0.649 1.537 0.649c0.478 0 0.888 0 1.229-0.034 0.341 0 0.649-0.034 0.922-0.034 0.785 0 1.161 0.341 1.161 0.99v2.015z"></path>
<path fill="#9aa8b9" style="fill: var(--color3, #9aa8b9)" d="M105.699 28.653c0 0.99-0.239 1.708-0.683 2.117s-1.195 0.615-2.186 0.615c-1.025 0-1.776-0.205-2.22-0.615s-0.683-1.127-0.683-2.117c0-0.99 0.239-1.673 0.683-2.083s1.195-0.615 2.186-0.615c0.99 0 1.742 0.205 2.186 0.615 0.478 0.41 0.717 1.093 0.717 2.083z"></path>
<path fill="#9aa8b9" style="fill: var(--color3, #9aa8b9)" d="M110.514 31.146c-0.683 0-1.025-0.341-1.025-0.99v-20.901h2.63c0.307 0 0.581 0.068 0.785 0.205s0.341 0.444 0.41 0.854l0.171 1.332c1.776-1.912 4.064-2.869 6.83-2.869 2.356 0 4.030 0.683 5.020 2.049s1.503 3.176 1.503 5.43v14.89h-3.313c-0.307 0-0.581-0.102-0.751-0.273s-0.273-0.41-0.273-0.717v-13.558c0-1.503-0.307-2.561-0.956-3.21-0.615-0.649-1.537-0.956-2.766-0.956-1.161 0-2.186 0.239-3.005 0.717s-1.503 0.956-1.981 1.434v16.564h-3.279z"></path>
<path fill="#9aa8b9" style="fill: var(--color3, #9aa8b9)" d="M134.318 21.789c0.068 1.161 0.171 2.117 0.376 2.937s0.546 1.469 1.025 1.947c0.478 0.512 1.127 0.854 1.912 1.093 0.82 0.239 1.844 0.341 3.108 0.341 1.127 0 2.152-0.068 3.040-0.171 0.922-0.102 1.537-0.171 1.878-0.171 0.649 0 0.99 0.307 0.99 0.956v1.81c-0.683 0.273-1.639 0.546-2.835 0.751s-2.561 0.307-4.098 0.307c-1.639 0-3.040-0.205-4.269-0.615-1.195-0.41-2.186-1.059-3.005-1.947-0.786-0.888-1.366-2.083-1.742-3.518s-0.546-3.21-0.546-5.259 0.171-3.825 0.546-5.293c0.376-1.469 0.956-2.664 1.708-3.586s1.708-1.605 2.835-2.015c1.127-0.41 2.425-0.615 3.927-0.615 1.673 0 3.040 0.239 4.098 0.717s1.878 1.127 2.493 1.912c0.615 0.82 1.025 1.742 1.264 2.835 0.239 1.059 0.341 2.22 0.341 3.449 0 0.82-0.034 1.639-0.137 2.425s-0.205 1.366-0.341 1.776h-12.568zM143.402 18.749c0.034-0.273 0.034-0.512 0.034-0.649s0-0.341 0-0.546c0-1.844-0.273-3.21-0.854-4.166-0.546-0.922-1.673-1.4-3.279-1.4-0.99 0-1.776 0.171-2.425 0.478-0.615 0.307-1.127 0.751-1.503 1.332s-0.649 1.298-0.786 2.117c-0.171 0.854-0.239 1.776-0.273 2.835h9.084z"></path>
<path fill="#9aa8b9" style="fill: var(--color3, #9aa8b9)" d="M161.537 31.010c-0.649 0.171-1.298 0.307-1.878 0.376-0.581 0.102-1.195 0.137-1.844 0.137-2.049 0-3.552-0.444-4.508-1.366-0.922-0.922-1.4-2.356-1.4-4.337v-13.114h-1.503c-0.683 0-1.025-0.341-1.025-0.99v-2.459h2.63l0.205-5.669h3.005c0.683 0 1.025 0.341 1.025 0.99v4.679h4.201c0.307 0 0.581 0.102 0.751 0.273s0.273 0.41 0.273 0.717v2.459h-5.259v12.909c0 0.785 0.137 1.366 0.376 1.81 0.273 0.444 0.786 0.649 1.537 0.649 0.478 0 0.888 0 1.229-0.034 0.341 0 0.649-0.034 0.922-0.034 0.786 0 1.161 0.341 1.161 0.99v2.015z"></path>
</symbol>
<symbol id="icon-X" viewBox="0 0 32 32">
	<title>X</title>
	<path fill="#c3c8cf" style="fill: var(--color4, #c3c8cf)" d="M7.971 29.796c1.609-1.207 3.202-2.397 4.786-3.579 1.509-1.131 3.026-2.246 4.526-3.394 0.26-0.201 0.402-0.159 0.612 0.050 0.721 0.721 1.458 1.425 2.171 2.154 0.201 0.201 0.352 0.226 0.603 0.092 1.517-0.805 2.783-1.903 3.763-3.319 0.067-0.101 0.142-0.201 0.243-0.352 0.712 0.939 1.408 1.844 2.095 2.757 0.427 0.57 0.83 1.157 1.274 1.718 0.193 0.243 0.184 0.394-0.025 0.629-2.355 2.632-5.247 4.367-8.7 5.087-3.847 0.805-7.518 0.26-10.988-1.609-0.075-0.042-0.151-0.084-0.218-0.126-0.042-0.025-0.075-0.050-0.142-0.109z"></path>
	<path fill="#c3c8cf" style="fill: var(--color4, #c3c8cf)" d="M2.129 8.038c0.226 0.293 0.427 0.553 0.629 0.813 2.129 2.799 4.266 5.59 6.403 8.381 0.201 0.268 0.193 0.411-0.050 0.645-0.738 0.721-1.442 1.483-2.179 2.204-0.21 0.201-0.184 0.352-0.067 0.578 0.805 1.517 1.894 2.791 3.319 3.755 0.285 0.193 0.319 0.285 0.025 0.503-1.416 1.039-2.825 2.095-4.224 3.16-0.193 0.151-0.31 0.142-0.486-0.017-3.252-2.917-5.113-6.537-5.448-10.913-0.243-3.068 0.402-5.959 1.836-8.683 0.067-0.126 0.151-0.251 0.243-0.427z"></path>
	<path fill="#c3c8cf" style="fill: var(--color4, #c3c8cf)" d="M24.046 2.188c-3.235 2.322-6.412 4.601-9.58 6.881-0.193 0.142-0.293 0.101-0.444-0.059-0.687-0.696-1.4-1.366-2.087-2.062-0.201-0.201-0.352-0.226-0.603-0.084-1.534 0.821-2.808 1.919-3.788 3.353-0.059 0.092-0.092 0.21-0.26 0.268-0.821-1.090-1.66-2.188-2.489-3.294-0.302-0.402-0.578-0.821-0.888-1.215-0.134-0.168-0.159-0.277 0-0.453 2.816-3.16 6.311-5.004 10.527-5.439 3.285-0.335 6.387 0.327 9.287 1.911 0.101 0.059 0.193 0.117 0.327 0.193z"></path>
	<path fill="#c3c8cf" style="fill: var(--color4, #c3c8cf)" d="M31.983 16.008c0 2.657-0.645 5.163-1.877 7.518-0.159 0.293-0.235 0.369-0.469 0.050-2.221-2.959-4.451-5.9-6.697-8.842-0.21-0.268-0.184-0.419 0.050-0.645 0.712-0.704 1.4-1.442 2.104-2.154 0.159-0.168 0.184-0.277 0.075-0.495-0.805-1.576-1.911-2.875-3.378-3.864-0.31-0.21-0.277-0.302-0.008-0.503 1.383-1.064 2.774-2.112 4.182-3.135 0.201-0.142 0.319-0.176 0.528 0.008 3.193 2.866 5.029 6.412 5.439 10.695 0.034 0.444 0.059 0.905 0.050 1.366z"></path>
</symbol>

<symbol id="icon-etherium" viewBox="0 0 20 32">
	<title>Etherium</title>
	<path fill="#c3c8cf" opacity="0.45" style="fill: var(--color4, #c3c8cf)" d="M0 16.567l9.986 5.901v-22.468z"></path>
	<path fill="#c3c8cf" opacity="0.6" style="fill: var(--color4, #c3c8cf)" d="M0 16.567l9.986-4.539 9.986 4.539-9.986 5.901z"></path>
	<path fill="#c3c8cf" opacity="0.8" style="fill: var(--color4, #c3c8cf)" d="M19.972 16.567l-9.986 5.901v-22.468z"></path>
	<path fill="#c3c8cf" opacity="0.45" style="fill: var(--color4, #c3c8cf)" d="M9.986 32v-8.17l-9.986-5.901z"></path>
	<path fill="#c3c8cf" opacity="0.8" style="fill: var(--color4, #c3c8cf)" d="M9.986 32v-8.17l9.991-5.901z"></path>
</symbol>

<symbol id="icon-golem" viewBox="0 0 15 32">
	<title>golem</title>
	<path fill="#c3c8cf" style="fill: var(--color4, #c3c8cf)" d="M6.318 2.097c1.275 0.027 2.535 0.301 3.591 1.179 0.329 0.274 0.534 0.219 0.809-0.069 0.973-1 1.987-1.973 2.96-2.988 0.274-0.288 0.439-0.329 0.713-0.027 0.48 0.507 0.507 0.493 0 0.987-0.932 0.932-1.836 1.878-2.796 2.782-0.356 0.329-0.315 0.534-0.069 0.877 1.151 1.59 1.439 3.371 0.918 5.208-0.713 2.563-2.439 4.125-5.057 4.632-0.329 0.069-0.452 0.137-0.452 0.507 0.027 1.247 0.014 2.494 0 3.755 0 0.302 0.069 0.439 0.397 0.493 1.576 0.26 2.823 1.014 3.878 2.248 1.96 2.302 1.85 5.646 0.219 7.77-1.48 1.932-3.755 3.015-6.688 2.343-2.371-0.548-4.276-2.672-4.646-5.071-0.233-1.466-0.041-2.878 0.699-4.125 1.028-1.74 2.522-2.919 4.605-3.179 0.247-0.027 0.343-0.123 0.343-0.384-0.014-1.316-0.014-2.631 0-3.961 0-0.274-0.11-0.343-0.356-0.37-3.892-0.644-6.29-4.509-5.057-8.305 0.795-2.412 3.083-4.262 5.989-4.303zM6.085 3.289c-1.412 0.055-2.563 0.644-3.522 1.658-1 1.042-1.425 2.302-1.37 3.714 0.11 2.809 2.522 5.112 5.523 4.92 2.494-0.164 4.975-2.302 4.742-5.605-0.192-2.782-2.672-4.81-5.372-4.687zM6.345 20.543c-3.193 0-5.221 2.302-5.098 6.044 0.027 1.014 0.685 1.96 1.453 2.727 1 1 2.22 1.494 3.618 1.508 2.851 0.014 5.139-2.289 5.167-5.139 0.027-2.672-2.275-5.249-5.139-5.139z"></path>
</symbol>

<symbol id="icon-omsigo" viewBox="0 0 32 32">
	<title>omsigo</title>
	<path fill="#c3c8cf" style="fill: var(--color4, #c3c8cf)" d="M13.239 2.197c0.817 0.835 1.398 1.671 1.798 2.633 2.070 4.958-1.417 10.479-6.792 10.788-3.977 0.236-7.555-2.597-8.154-6.611-0.617-4.086 1.98-7.864 5.975-8.808 0.636-0.145 1.289-0.2 1.943-0.2 2.252 0 4.504 0.018 6.756 0 0.327 0 0.418 0.091 0.4 0.418-0.018 0.49-0.018 0.981 0 1.489 0 0.236-0.073 0.309-0.291 0.291-0.508-0.018-0.999 0-1.635 0zM13.439 7.827c0-3.142-2.506-5.666-5.757-5.63-3.033 0.054-5.466 2.488-5.503 5.63-0.018 3.069 2.543 5.612 5.63 5.63s5.63-2.543 5.63-5.63z"></path>
	<path fill="#c3c8cf" style="fill: var(--color4, #c3c8cf)" d="M16.363 7.827c0-4.322 3.487-7.827 7.791-7.827 4.322 0 7.846 3.523 7.827 7.846-0.018 4.25-3.378 7.791-7.827 7.791-4.359 0-7.791-3.487-7.791-7.809zM24.173 13.457c3.069 0 5.648-2.561 5.63-5.63 0-3.069-2.561-5.63-5.63-5.63-3.087 0-5.612 2.543-5.612 5.63-0.018 3.106 2.506 5.63 5.612 5.63z"></path>
	<path fill="#c3c8cf" style="fill: var(--color4, #c3c8cf)" d="M7.791 32c-4.341 0-7.809-3.505-7.791-7.864 0.018-4.268 3.541-7.755 7.827-7.755 4.304 0 7.827 3.505 7.809 7.809-0.036 4.649-3.814 7.864-7.846 7.809zM13.439 24.191c-0.018-3.087-2.561-5.63-5.63-5.612-3.087 0-5.648 2.579-5.63 5.666s2.579 5.594 5.666 5.594c3.087-0.036 5.63-2.579 5.594-5.648z"></path>
</symbol>

<symbol id="icon-linux" viewBox="0 0 28 32">
	<title>linux</title>
	<path d="M12.256 7.725c-0.012-0.088 0.119-0.144 0.2-0.181 0.106-0.044 0.244-0.063 0.344-0.006 0.025 0.013 0.050 0.044 0.037 0.069-0.025 0.075-0.15 0.063-0.219 0.1-0.063 0.031-0.113 0.106-0.188 0.106-0.063 0.006-0.169-0.025-0.175-0.088zM13.8 7.706c0.063 0.031 0.113 0.106 0.188 0.106 0.069 0 0.175-0.025 0.181-0.094 0.012-0.088-0.119-0.144-0.2-0.181-0.106-0.044-0.244-0.063-0.344-0.006-0.025 0.013-0.050 0.044-0.037 0.069 0.019 0.081 0.144 0.069 0.213 0.106zM27.219 27.094c-0.031 0.512-0.406 0.863-0.869 1.144-0.931 0.563-2.331 0.988-3.181 2.012v0c-0.887 1.056-1.981 1.663-3.019 1.744-1.031 0.081-2-0.394-2.519-1.438v-0.006c-0.069-0.131-0.119-0.275-0.156-0.419-1.344 0.075-2.512-0.331-3.444-0.256-1.375 0.075-2.237 0.406-3.019 0.413-0.3 0.663-0.894 1.1-1.619 1.262-1 0.231-2.256 0-3.494-0.65v0c-1.156-0.613-2.625-0.556-3.706-0.781-0.544-0.113-1.019-0.313-1.256-0.769-0.231-0.456-0.188-1.081 0.137-1.981 0.106-0.319 0.025-0.794-0.050-1.3-0.037-0.244-0.075-0.494-0.075-0.738 0-0.269 0.044-0.531 0.175-0.775 0.281-0.531 0.738-0.756 1.156-0.906s0.8-0.25 1.063-0.519c0.325-0.344 0.631-0.9 1.038-1.262-0.162-1.075 0.013-2.212 0.388-3.331 0.787-2.369 2.45-4.637 3.631-6.044 1.006-1.431 1.3-2.581 1.406-4.044 0.069-1.987-1.531-8.463 4.869-8.45 5.056 0.006 4.769 5.338 4.737 8.206-0.019 1.881 1.019 3.156 2.087 4.5 0.95 1.125 2.194 2.769 2.906 4.65 0.581 1.538 0.806 3.238 0.231 4.944 0.087 0.031 0.175 0.075 0.256 0.125 0.087 0.050 0.169 0.113 0.25 0.181 0.413 0.35 0.544 0.894 0.656 1.4 0.119 0.506 0.225 0.981 0.45 1.231 0.694 0.775 0.994 1.344 0.969 1.856zM13.8 6.819c0.225 0.056 0.556 0.15 0.813 0.275-0.131-0.763 0.281-1.469 0.738-1.438 0.556 0.019 0.869 0.969 0.569 1.706-0.050 0.119-0.175 0.213-0.244 0.287 0.419 0.144 0.688 0.256 0.788 0.306 0.494-0.594 0.675-1.638 0.269-2.525-0.613-1.338-2.137-1.362-2.75 0.025-0.2 0.45-0.244 0.931-0.181 1.362zM10.912 7.994c0.488-0.356 0.431-0.294 0.369-0.344-0.5-0.431-0.412-1.713 0.113-1.756 0.394-0.031 0.675 0.669 0.6 1.225 0.194-0.131 0.419-0.225 0.637-0.287 0.106-1.206-0.563-2.094-1.194-2.094-1.181 0-1.5 2.344-0.525 3.256zM10.325 9.3c0.094 0.306 0.381 0.656 0.919 0.956 0.488 0.287 0.75 0.719 1.25 0.938 0.162 0.069 0.356 0.119 0.6 0.131 1.15 0.069 1.694-0.706 2.388-0.931 0.731-0.231 1.256-0.688 1.419-1.131 0.2-0.531-0.131-0.919-0.656-1.137-0.706-0.306-1.019-0.325-1.412-0.581-0.644-0.412-1.175-0.556-1.619-0.556-0.9 0-1.45 0.612-1.744 0.888-0.031 0.031-0.494 0.369-0.881 0.656-0.262 0.206-0.35 0.463-0.262 0.769zM8.231 25.1l-1.225-2.225c-0.425-0.575-0.862-0.925-1.369-1-0.481-0.075-0.787 0.087-1.106 0.431-0.3 0.319-0.55 0.769-0.894 1.125-0.487 0.406-0.581 0.387-1.225 0.619-0.394 0.137-0.706 0.288-0.925 0.706-0.169 0.313-0.131 0.762-0.056 1.25 0.075 0.494 0.188 1.019 0.038 1.494v0.012c-0.313 0.856-0.313 1.356-0.163 1.65 0.494 0.962 2.912 0.381 4.781 1.369 1.962 1.025 4.538 1.069 4.706-1.125 0.131-1.281-1.969-3.063-2.563-4.306zM17.85 27.337c0.2-0.688 0.394-1.331 0.425-1.813 0.050-0.95 0.1-1.794 0.275-2.494 0.194-0.788 0.581-1.444 1.337-1.706 0.144-1.319 1.169-1.319 2.394-0.781 1.181 0.531 1.625 1 1.425 1.631 0.063 0 0.125-0.006 0.262 0 0.325-1.056-0.894-1.75-1.919-2.175 0.181-0.75 0.15-1.506-0.025-2.231-0.375-1.581-1.413-2.988-2.2-3.688-0.144-0.006-0.131 0.119 0.163 0.406 0.725 0.669 2.319 3.075 1.456 5.306-0.244-0.063-0.475-0.094-0.681-0.087-0.331-1.819-1.094-3.325-1.475-4.037-0.719-1.338-1.844-4.081-2.325-5.981-0.281 0.4-0.775 0.744-1.394 0.938-0.294 0.094-0.606 0.344-0.994 0.563-0.869 0.5-1.875 0.55-2.65-0.075-0.281-0.225-0.5-0.475-0.787-0.644-0.1-0.056-0.319-0.206-0.387-0.256-0.125 2.362-1.706 5.331-2.456 7.044-0.519 1.231-0.825 2.55-0.862 3.844-1.362-1.819-0.369-4.144 0.162-5.15 0.594-1.1 0.688-1.406 0.544-1.3-0.537 0.875-1.375 2.269-1.7 3.7-0.169 0.744-0.2 1.5 0.019 2.2s0.694 1.344 1.537 1.869c0 0 1.55 0.894 2.394 2.031 0.463 0.625 0.606 1.169 0.463 1.556-0.156 0.419-0.6 0.556-1.044 0.556 0.3 0.375 0.644 0.813 0.9 1.225 2.35 1.606 5.137 0.981 7.144-0.45zM25.938 25.531c-0.625-0.706-0.45-2.069-1.069-2.6-0.431-0.375-0.85-0.337-1.413-0.319-0.481 0.55-1.613 1.225-2.4 1.019-0.719-0.181-1.125-1.019-1.175-1.844-0.019 0.012-0.044 0.019-0.063 0.031-0.444 0.244-0.694 0.675-0.856 1.319-0.156 0.637-0.212 1.469-0.262 2.419-0.044 0.738-0.387 1.65-0.619 2.538-0.219 0.825-0.363 1.575-0.069 2.269 0.45 0.906 1.219 1.275 2.106 1.206s1.9-0.613 2.725-1.594c1.375-1.663 3.894-1.856 3.95-2.906 0.019-0.319-0.194-0.813-0.856-1.538zM10.831 9.294c0.125 0.119 0.294 0.281 0.5 0.444 0.412 0.325 0.988 0.662 1.706 0.662 0.725 0 1.406-0.369 1.988-0.675 0.306-0.162 0.681-0.438 0.925-0.65s0.369-0.394 0.194-0.412c-0.175-0.019-0.162 0.162-0.375 0.319-0.275 0.2-0.606 0.463-0.869 0.613-0.463 0.262-1.219 0.637-1.869 0.637s-1.169-0.3-1.556-0.606c-0.194-0.156-0.356-0.313-0.481-0.431-0.094-0.088-0.119-0.287-0.269-0.306-0.088-0.006-0.113 0.231 0.106 0.406z"></path>
</symbol>

<symbol id="icon-github-alt" viewBox="0 0 30 32">
	<title>Github</title>
	<path d="M11.631 20.544c0 1.306-0.681 3.444-2.294 3.444s-2.294-2.137-2.294-3.444 0.681-3.444 2.294-3.444 2.294 2.137 2.294 3.444zM30 17.387c0 1.994-0.2 4.106-1.094 5.938-2.369 4.787-8.881 4.675-13.544 4.675-4.738 0-11.637 0.169-14.1-4.675-0.912-1.813-1.262-3.944-1.262-5.938 0-2.619 0.869-5.094 2.594-7.1-0.325-0.988-0.481-2.025-0.481-3.050 0-1.344 0.306-2.019 0.913-3.237 2.831 0 4.644 0.563 6.8 2.25 1.813-0.431 3.675-0.625 5.544-0.625 1.688 0 3.387 0.181 5.025 0.575 2.125-1.669 3.938-2.2 6.738-2.2 0.613 1.219 0.913 1.894 0.913 3.237 0 1.025-0.163 2.044-0.481 3.013 1.719 2.025 2.438 4.519 2.438 7.137zM25.981 20.544c0-2.744-1.669-5.162-4.594-5.162-1.181 0-2.313 0.213-3.5 0.375-0.931 0.144-1.863 0.2-2.819 0.2-0.95 0-1.881-0.056-2.819-0.2-1.169-0.162-2.313-0.375-3.5-0.375-2.925 0-4.594 2.419-4.594 5.162 0 5.488 5.025 6.331 9.4 6.331h3.013c4.394 0 9.413-0.837 9.413-6.331zM20.819 17.1c-1.613 0-2.294 2.137-2.294 3.444s0.681 3.444 2.294 3.444 2.294-2.137 2.294-3.444-0.681-3.444-2.294-3.444z"></path>
</symbol>

<symbol id="icon-medium-m" viewBox="0 0 32 32">
	<title>Medium</title>
	<path d="M4.469 8.894c0.037-0.369-0.106-0.738-0.381-0.987l-2.819-3.4v-0.506h8.762l6.775 14.856 5.956-14.856h8.356v0.506l-2.413 2.313c-0.206 0.156-0.313 0.419-0.269 0.675v17c-0.044 0.256 0.063 0.519 0.269 0.675l2.356 2.313v0.506h-11.856v-0.506l2.444-2.369c0.238-0.238 0.238-0.313 0.238-0.675v-13.738l-6.794 17.244h-0.919l-7.9-17.244v11.556c-0.069 0.488 0.094 0.975 0.438 1.325l3.175 3.85v0.506h-9v-0.5l3.175-3.856c0.338-0.35 0.494-0.844 0.406-1.325v-13.363z"></path>
</symbol>

<symbol id="icon-telegram-plane" viewBox="0 0 28 32">
	<title>Telegram</title>
	<path d="M27.919 6.162l-4.225 19.925c-0.319 1.406-1.15 1.756-2.331 1.094l-6.438-4.744-3.106 2.988c-0.344 0.344-0.631 0.631-1.294 0.631l0.463-6.556 11.931-10.781c0.519-0.463-0.113-0.719-0.806-0.256l-14.75 9.287-6.35-1.988c-1.381-0.431-1.406-1.381 0.288-2.044l24.837-9.569c1.15-0.431 2.156 0.256 1.781 2.013z"></path>
</symbol>

<symbol id="icon-HitBTC" viewBox="0 0 74 32">
<title>HitBTc</title>
<path fill="#278bbc" style="fill: var(--color1, #278bbc)" d="M64.687 14.513c0 0.034 0 0.068 0 0.101 0.023 0.045 0.056 0.079 0.079 0.124 0.090 0.146 0.225 0.259 0.237 0.451-0.101 0.068-0.068 0.146-0.034 0.248 0.439 1.093 0.868 2.186 1.296 3.279 0.642 1.645 1.341 3.279 1.904 4.946-0.856 1.093-1.814 2.096-2.738 3.132-0.124 0.146-0.361 0.248-0.225 0.507 0 0-0.034-0.023-0.034-0.023-0.079 0-0.113 0.045-0.135 0.113 0 0 0.011-0.011 0.011-0.011-0.045 0.034-0.090 0.068-0.135 0.101-0.192 0.214-0.338 0.135-0.462-0.068 0-0.101 0.011-0.225-0.158-0.225 0 0-0.034 0.011-0.034 0.011 0.135-0.214-0.011-0.406-0.079-0.575-0.789-1.792-1.6-3.583-2.4-5.386-0.845-1.916-1.69-3.831-2.546-5.746-0.372-0.845-0.766-1.679-1.194-2.614-0.789 1.307-1.521 2.49-2.22 3.707-0.473 0.823-1.115 1.555-1.408 2.479-0.034 0-0.056 0-0.090 0-2.186-0.079-4.372-0.158-6.558-0.237 0 0-0.011 0.011-0.011 0.011 0.946-1.994 1.882-3.989 2.828-5.983 0.113-0.011 0.214-0.011 0.327-0.023 2.344 0.011 4.687 0.011 7.031 0.023 0.113 0 0.225 0 0.316-0.090 0.777-0.248 1.555-0.496 2.332-0.755 1.408-0.473 2.828-0.946 4.237-1.431 0.259-0.090 0.439-0.158 0.349 0.259-0.113 0.485-0.192 0.98-0.237 1.487-0.056 0.71-0.372 1.42-0.248 2.186z"></path>
<path fill="#81caf0" style="fill: var(--color2, #81caf0)" d="M64.687 14.513c-0.113-0.766 0.192-1.476 0.259-2.22 0.045-0.496 0.135-0.992 0.237-1.487 0.090-0.417-0.090-0.349-0.349-0.259-1.408 0.485-2.817 0.958-4.237 1.431-0.777 0.259-1.555 0.507-2.332 0.755-0.113-0.090-0.101-0.169-0.034-0.293 0.394-0.654 0.789-1.307 1.172-1.972 0.484-0.823 0.969-1.656 1.442-2.479-0.428 0.068-0.766 0.203-1.104 0.372-2.592 1.262-5.206 2.524-7.808 3.808-0.349 0.169-0.8 0.237-1.014 0.642-0.113 0.011-0.214 0.011-0.327 0.023 0.113-1.048 0.518-2.017 0.721-3.042 0.214-1.059 0.62-2.073 0.732-3.155 0.71-0.169 1.397 0.079 2.084 0.146 1.645 0.169 3.29 0.417 4.935 0.62 0.439 0.056 0.89 0.090 1.33 0.192 0.451 0.101 0.744-0.011 0.958-0.428 0.158-0.316 0.316-0.642 0.575-0.89 0.192 0.056 0.282 0.214 0.406 0.372 0.935 1.172 1.87 2.344 2.918 3.639 0.158-2.107 0.293-4.079 0.439-6.039 0.721-0.214 1.465-0.18 2.197-0.27 0.958-0.113 1.927-0.169 2.885-0.248-0.552 0.834-1.296 1.521-1.927 2.287-0.259 0.304-0.586 0.563-0.665 0.992-0.901 1.048-1.792 2.107-2.704 3.155-0.225 0.259-0.068 0.451 0.056 0.654 0.924 1.544 1.859 3.076 2.783 4.62 0.068 0.113 0.113 0.225 0.225 0.439-1.341-0.485-2.603-0.924-3.854-1.363z"></path>
<path fill="#53aada" style="fill: var(--color3, #53aada)" d="M52.056 6.637c-0.113 1.082-0.518 2.096-0.732 3.155-0.203 1.025-0.62 1.994-0.721 3.042-0.946 1.994-1.882 3.989-2.828 5.983-2.524-1.431-5.037-2.862-7.561-4.293-0.327-0.18-0.372-0.282-0.023-0.496 3.955-2.468 7.91-4.935 11.865-7.392z"></path>
<path fill="#53aada" style="fill: var(--color3, #53aada)" d="M26.051 26.975c1.161 0.541 1.454 1.476 1.33 2.592-0.101 1.014-0.687 1.679-1.623 2.028-0.417 0.158-0.856 0.27-1.307 0.27-1.296 0.011-2.592-0.011-3.887 0.011-0.361 0.011-0.485-0.090-0.485-0.473 0.011-2.851 0.011-5.701 0-8.552 0-0.293 0.045-0.462 0.394-0.451 1.442 0.056 2.884-0.090 4.327 0.101 1.656 0.225 2.648 1.6 2.242 3.166-0.135 0.563-0.485 0.958-0.992 1.307zM23.583 28.034c-0.282 0-0.563 0.011-0.845 0-0.372-0.023-0.349 0.248-0.293 0.451 0.101 0.406-0.327 1.037 0.259 1.206 0.552 0.158 1.194 0.056 1.78 0 0.507-0.045 0.811-0.439 0.755-0.879-0.056-0.507-0.383-0.755-0.868-0.777-0.27-0.011-0.53 0-0.789 0zM23.448 26.028c0-0.011 0-0.011 0 0 0.259-0.011 0.53 0 0.789-0.011 0.451-0.023 0.687-0.259 0.676-0.71-0.011-0.428-0.259-0.642-0.676-0.654-0.507-0.011-1.014 0-1.521-0.011-0.169 0-0.259 0.045-0.293 0.248-0.18 0.946-0.023 1.149 0.913 1.149 0.034-0.011 0.079-0.011 0.113-0.011z"></path>
<path fill="#094451" style="fill: var(--color4, #094451)" d="M7.561 27.223c0 1.431-0.011 2.851 0.011 4.282 0.011 0.406-0.113 0.518-0.496 0.485-0.462-0.034-0.935-0.034-1.408 0-0.417 0.034-0.496-0.124-0.484-0.507 0.023-0.935-0.011-1.882 0.023-2.817 0.011-0.383-0.135-0.428-0.451-0.417-0.642 0.023-1.273 0.023-1.915 0-0.361-0.011-0.485 0.079-0.473 0.451 0.034 0.958 0 1.916 0.011 2.873 0.011 0.316-0.079 0.417-0.406 0.406-0.541-0.023-1.093-0.023-1.634 0-0.282 0.011-0.338-0.090-0.338-0.349 0.011-2.963 0.011-5.927 0-8.901 0-0.282 0.090-0.349 0.349-0.338 0.563 0.023 1.127 0.023 1.69 0 0.293-0.011 0.338 0.101 0.338 0.361-0.011 0.935 0.011 1.882-0.011 2.817-0.011 0.327 0.056 0.462 0.417 0.451 0.654-0.034 1.318-0.034 1.972 0 0.338 0.011 0.451-0.068 0.439-0.428-0.023-0.935 0-1.882-0.011-2.817 0-0.293 0.079-0.394 0.372-0.372 0.53 0.023 1.048 0.034 1.577 0 0.361-0.023 0.439 0.101 0.428 0.439-0.011 1.454 0 2.918 0 4.383z"></path>
<path fill="#2074a6" style="fill: var(--color5, #2074a6)" d="M47.786 18.794c2.186 0.079 4.372 0.158 6.558 0.237-0.068 0.349 0.090 0.665 0.101 1.003 0.056 1.792 0.225 3.583 0.316 5.375 0.101 2.096 0.27 4.18 0.372 6.265-0.169 0.135-0.18-0.056-0.214-0.124-2.377-4.214-4.744-8.428-7.11-12.642-0.023-0.034-0.023-0.079-0.023-0.113z"></path>
<path fill="#2074a6" style="fill: var(--color5, #2074a6)" d="M54.423 19.031c0.293-0.924 0.935-1.656 1.408-2.479 0.699-1.217 1.431-2.4 2.22-3.707 0.428 0.935 0.823 1.769 1.194 2.614 0.856 1.915 1.69 3.831 2.546 5.746 0.8 1.792 1.6 3.583 2.4 5.386 0.079 0.169 0.225 0.361 0.079 0.575-1.566-1.454-2.963-3.065-4.451-4.575-0.665-0.676-1.285-1.408-2.017-2.017-0.282-0.146-0.563-0.293-0.845-0.428-0.834-0.383-1.724-0.665-2.535-1.116z"></path>
<path fill="#53aada" style="fill: var(--color3, #53aada)" d="M36.946 26.456c0.045-1.386 1.014-2.873 2.873-3.707 1.803-0.8 3.504-0.485 5.048 0.732 0.349 0.282 0.507 0.53 0.034 0.823-0.113 0.068-0.203 0.169-0.293 0.27-0.462 0.496-0.845 0.676-1.577 0.259-1.352-0.789-3.020-0.169-3.572 1.138-0.62 1.476-0.045 3.121 1.33 3.639 0.958 0.372 1.882 0.192 2.727-0.361 0.248-0.169 0.394-0.18 0.608 0.045 0.293 0.316 0.597 0.62 0.935 0.89 0.27 0.214 0.192 0.338-0.023 0.518-1.555 1.318-3.29 1.679-5.183 0.901-1.837-0.755-2.93-2.49-2.907-5.149z"></path>
<path fill="#53aada" style="fill: var(--color3, #53aada)" d="M33.352 28.237c0 1.048-0.011 2.096 0.011 3.155 0.011 0.349-0.079 0.518-0.462 0.485-0.462-0.034-0.935-0.034-1.408 0-0.406 0.034-0.507-0.113-0.496-0.507 0.023-2.039-0.011-4.090 0.023-6.13 0.011-0.496-0.124-0.699-0.62-0.608-0.034 0.011-0.079 0-0.113 0-1.825 0-1.893-0.090-1.668-1.927 0.034-0.259 0.158-0.293 0.361-0.293 2.141 0 4.282 0 6.411 0 0.225 0 0.349 0.068 0.338 0.316-0.011 0.53-0.011 1.048 0 1.577 0.011 0.293-0.135 0.338-0.383 0.338-0.473-0.011-0.935 0.023-1.408-0.011-0.451-0.034-0.62 0.090-0.608 0.575 0.045 1.003 0.023 2.017 0.023 3.031z"></path>
<path fill="#094451" style="fill: var(--color4, #094451)" d="M14.997 29.577c0-0.642-0.023-1.273 0.011-1.916 0.023-0.361-0.101-0.485-0.439-0.417-0.417 0.079-0.518-0.113-0.473-0.496 0.034-0.282 0.023-0.563 0-0.845-0.023-0.485-0.068-0.958 0.665-0.811 0.27 0.056 0.237-0.169 0.237-0.327 0-0.53 0.011-1.048 0-1.577-0.011-0.27 0.079-0.383 0.349-0.338 0.034 0 0.079 0 0.113 0 0.575 0.011 1.341-0.203 1.69 0.090 0.361 0.304 0.113 1.093 0.101 1.668 0 0.361 0.045 0.586 0.473 0.507 0.293-0.056 0.338 0.101 0.327 0.349-0.011 0.394-0.023 0.789 0 1.183 0.023 0.406 0.011 0.699-0.53 0.608-0.361-0.056-0.259 0.237-0.259 0.417-0.011 1.296-0.011 2.592 0 3.887 0 0.338-0.079 0.462-0.428 0.439-0.507-0.034-1.014-0.023-1.521 0-0.248 0.011-0.316-0.079-0.316-0.327 0-0.71 0-1.408 0-2.096z"></path>
<path fill="#094451" style="fill: var(--color4, #094451)" d="M54.423 19.031c0.811 0.451 1.701 0.721 2.535 1.127 0.282 0.135 0.563 0.282 0.845 0.428-0.451 1.859-0.901 3.718-1.352 5.577-0.439 1.837-0.879 3.673-1.33 5.521-0.101-2.096-0.27-4.18-0.372-6.265-0.090-1.792-0.259-3.572-0.316-5.375-0.011-0.338-0.169-0.654-0.101-1.003 0.034-0.011 0.068-0.011 0.090-0.011z"></path>
<path fill="#094451" style="fill: var(--color4, #094451)" d="M10.152 28.777c0-0.901 0.011-1.803 0-2.693-0.011-0.428 0.135-0.575 0.507-0.304 0.406 0.293 0.755 0.27 1.172 0.023 0.496-0.293 0.575-0.214 0.575 0.372 0 1.758-0.023 3.527 0.011 5.285 0.011 0.473-0.146 0.563-0.563 0.53-0.372-0.034-0.755-0.034-1.127 0-0.451 0.045-0.62-0.068-0.597-0.563 0.056-0.879 0.023-1.769 0.023-2.648z"></path>
<path fill="#53aada" style="fill: var(--color3, #53aada)" d="M65.69 4.237c-0.146 1.972-0.282 3.932-0.439 6.039-1.048-1.296-1.983-2.468-2.918-3.639-0.113-0.146-0.203-0.316-0.406-0.372 0.428-0.439 1.014-0.608 1.532-0.89 0.732-0.394 1.454-0.834 2.231-1.138z"></path>
<path fill="#53aada" style="fill: var(--color3, #53aada)" d="M68.169 23.662c-0.563-1.679-1.262-3.301-1.904-4.946-0.428-1.093-0.856-2.186-1.296-3.279-0.034-0.090-0.068-0.169 0.034-0.248 0.372 0.282 0.451 0.766 0.789 1.070 1.014 1.679 2.006 3.369 3.042 5.037 0.304 0.496 0.484 1.093 1.003 1.454 0.192 0.428 0.124 0.642-0.417 0.687-0.327 0.034-0.744-0.034-1.014 0.304-0.079-0.034-0.158-0.056-0.237-0.079z"></path>
<path fill="#81caf0" style="fill: var(--color2, #81caf0)" d="M69.837 22.749c-0.518-0.349-0.687-0.958-1.003-1.454-1.037-1.668-2.028-3.358-3.042-5.037 0.687-0.011 1.386-0.023 2.073-0.045 0.192 0 0.338 0.068 0.383 0.259 0.507 2.096 1.149 4.158 1.589 6.276z"></path>
<path fill="#81caf0" style="fill: var(--color2, #81caf0)" d="M70.963 3.662c0.98-1.217 1.949-2.445 2.93-3.662 0.045 0.023 0.090 0.045 0.135 0.068-0.304 1.318-0.316 2.682-0.777 3.977-0.744-0.27-1.532-0.237-2.287-0.383z"></path>
<path fill="#53aada" style="fill: var(--color3, #53aada)" d="M70.963 3.662c0.755 0.146 1.544 0.101 2.287 0.372-1.69 0.98-3.38 1.972-5.070 2.952 0.079-0.428 0.406-0.687 0.665-0.992 0.631-0.766 1.375-1.454 1.927-2.287 0.068 0 0.124-0.023 0.192-0.045z"></path>
<path fill="#094451" style="fill: var(--color4, #094451)" d="M11.177 22.513c0.8 0 1.217 0.372 1.217 1.093 0 0.699-0.428 1.048-1.262 1.048-0.8 0-1.217-0.372-1.217-1.093 0.011-0.699 0.428-1.048 1.262-1.048z"></path>
<path fill="#2074a6" style="fill: var(--color5, #2074a6)" d="M68.169 23.662c0.079 0.023 0.158 0.056 0.237 0.079 0.406 0.225 0.811 0.451 1.318 0.732-1.566 0.969-3.042 1.893-4.53 2.828-0.124-0.259 0.101-0.361 0.237-0.507 0.924-1.048 1.882-2.051 2.738-3.132z"></path>
<path fill="#2074a6" style="fill: var(--color5, #2074a6)" d="M64.293 27.166c0.169 0 0.146 0.113 0.158 0.225-0.079-0.045-0.18-0.090-0.158-0.225z"></path>
<path fill="#53aada" style="fill: var(--color3, #53aada)" d="M64.766 14.738c-0.023-0.045-0.056-0.079-0.079-0.124 0.056 0.023 0.090 0.056 0.079 0.124z"></path>
<path fill="#2074a6" style="fill: var(--color5, #2074a6)" d="M65.025 27.38c0.023-0.068 0.056-0.113 0.135-0.113 0 0.090-0.068 0.101-0.135 0.113z"></path>
<path fill="#2074a6" style="fill: var(--color5, #2074a6)" d="M64.901 27.47c0.045-0.034 0.090-0.068 0.135-0.101-0.034 0.034-0.079 0.068-0.135 0.101z"></path>
<path fill="#53aada" style="fill: var(--color3, #53aada)" d="M50.93 12.8c0.214-0.406 0.665-0.462 1.014-0.642 2.603-1.284 5.206-2.546 7.82-3.808 0.327-0.158 0.676-0.293 1.104-0.372-0.484 0.823-0.958 1.656-1.442 2.479-0.383 0.665-0.777 1.318-1.172 1.972-0.068 0.113-0.079 0.203 0.034 0.293-0.090 0.090-0.203 0.090-0.316 0.090-2.366 0.011-4.71 0-7.042-0.011z"></path>
</symbol>


<symbol id="icon-android" viewBox="0 0 32 32">
<title>Google Play Store dVPN App URL</title>
<path d="M24.122 10.566h-16.236c-0.364 0-0.651 0.294-0.651 0.651v13.61c0 0.364 0.294 0.651 0.651 0.651h2.897v4.586c0 1.061 0.86 1.929 1.929 1.929v0c1.061 0 1.929-0.86 1.929-1.929v-4.578h2.696v4.586c0 1.061 0.86 1.929 1.929 1.929v0c1.061 0 1.929-0.86 1.929-1.929v-4.586h2.936c0.364 0 0.651-0.294 0.651-0.651v-13.618c-0.008-0.356-0.302-0.651-0.658-0.651z"></path>
<path d="M4.485 10.566v0c-1.061 0-1.929 0.86-1.929 1.929v7.832c0 1.061 0.86 1.929 1.929 1.929v0c1.061 0 1.929-0.86 1.929-1.929v-7.839c-0.008-1.061-0.868-1.921-1.929-1.921z"></path>
<path d="M27.523 10.566v0c-1.061 0-1.929 0.86-1.929 1.929v7.832c0 1.061 0.86 1.929 1.929 1.929v0c1.061 0 1.929-0.86 1.929-1.929v-7.839c0-1.061-0.868-1.921-1.929-1.921z"></path>
<path d="M8.017 9.613h15.934c0.418 0 0.728-0.38 0.643-0.79-0.535-2.518-2.13-4.632-4.299-5.856l1.363-2.456c0.093-0.163 0.031-0.38-0.132-0.465-0.17-0.093-0.38-0.031-0.465 0.132l-1.371 2.479c-1.123-0.519-2.378-0.813-3.695-0.813-1.325 0-2.572 0.294-3.695 0.813l-1.371-2.479c-0.093-0.163-0.302-0.225-0.465-0.132s-0.225 0.302-0.132 0.465l1.363 2.456c-2.169 1.224-3.772 3.339-4.299 5.848-0.108 0.411 0.201 0.798 0.62 0.798zM20.737 5.949c0 0.411-0.333 0.744-0.744 0.744s-0.744-0.333-0.744-0.744c0-0.411 0.333-0.744 0.744-0.744s0.744 0.333 0.744 0.744zM11.968 5.206c0.411 0 0.744 0.333 0.744 0.744s-0.333 0.744-0.744 0.744c-0.411 0-0.744-0.333-0.744-0.744s0.333-0.744 0.744-0.744z"></path>
</symbol>

<symbol id="icon-twitter-logo" viewBox="0 0 32 32">
	<title>twitter-logo</title>
	<path d="M32 6.079c-1.178 0.522-2.442 0.876-3.769 1.034 1.356-0.812 2.394-2.1 2.885-3.629-1.272 0.752-2.675 1.298-4.171 1.594-1.198-1.278-2.901-2.074-4.791-2.074-3.625 0-6.565 2.939-6.565 6.563 0 0.514 0.058 1.016 0.17 1.496-5.455-0.274-10.292-2.887-13.529-6.859-0.566 0.968-0.888 2.096-0.888 3.299 0 2.278 1.16 4.287 2.919 5.463-1.076-0.036-2.088-0.332-2.973-0.824v0.082c0 3.179 2.264 5.833 5.265 6.437-0.55 0.148-1.13 0.23-1.73 0.23-0.424 0-0.834-0.042-1.236-0.122 0.836 2.61 3.259 4.507 6.131 4.559-2.246 1.76-5.077 2.805-8.152 2.805-0.53 0-1.052-0.032-1.566-0.090 2.905 1.866 6.355 2.953 10.062 2.953 12.076 0 18.677-10.002 18.677-18.677l-0.022-0.85c1.29-0.92 2.405-2.076 3.283-3.391z"></path>
</symbol>

<symbol id="icon-facebook" viewBox="0 0 32 32">
	<title>facebook</title>
	<path d="M19 6h5v-6h-5c-3.86 0-7 3.14-7 7v3h-4v6h4v16h6v-16h5l1-6h-6v-3c0-0.542 0.458-1 1-1z"></path>
</symbol>

<symbol id="icon-appleinc" viewBox="0 0 32 32">
	<title>appleinc</title>
	<path d="M24.734 17.003c-0.040-4.053 3.305-5.996 3.454-6.093-1.88-2.751-4.808-3.127-5.851-3.171-2.492-0.252-4.862 1.467-6.127 1.467-1.261 0-3.213-1.43-5.28-1.392-2.716 0.040-5.221 1.579-6.619 4.012-2.822 4.897-0.723 12.151 2.028 16.123 1.344 1.944 2.947 4.127 5.051 4.049 2.026-0.081 2.793-1.311 5.242-1.311s3.138 1.311 5.283 1.271c2.18-0.041 3.562-1.981 4.897-3.931 1.543-2.255 2.179-4.439 2.216-4.551-0.048-0.022-4.252-1.632-4.294-6.473zM20.705 5.11c1.117-1.355 1.871-3.235 1.665-5.11-1.609 0.066-3.559 1.072-4.713 2.423-1.036 1.199-1.942 3.113-1.699 4.951 1.796 0.14 3.629-0.913 4.747-2.264z"></path>
</symbol>

<symbol id="icon-windows8" viewBox="0 0 32 32">
	<title>windows8</title>
	<path d="M0.011 16l-0.011-9.752 12-1.63v11.382zM14 4.328l15.996-2.328v14h-15.996zM30 18l-0.004 14-15.996-2.25v-11.75zM12 29.495l-11.99-1.644-0.001-9.851h11.991z"></path>
</symbol>

<symbol id="icon-file-pdf" viewBox="0 0 32 32">
	<title>file-pdf</title>
	<path d="M26.313 18.421c-0.427-0.42-1.372-0.643-2.812-0.662-0.974-0.011-2.147 0.075-3.38 0.248-0.552-0.319-1.122-0.665-1.568-1.083-1.202-1.122-2.205-2.68-2.831-4.394 0.041-0.16 0.075-0.301 0.108-0.444 0 0 0.677-3.846 0.498-5.146-0.025-0.178-0.040-0.23-0.088-0.369l-0.059-0.151c-0.184-0.425-0.545-0.875-1.111-0.85l-0.341-0.011c-0.631 0-1.146 0.323-1.281 0.805-0.411 1.514 0.013 3.778 0.781 6.711l-0.197 0.478c-0.55 1.34-1.238 2.689-1.846 3.88l-0.079 0.155c-0.639 1.251-1.22 2.313-1.745 3.213l-0.543 0.287c-0.040 0.021-0.97 0.513-1.188 0.645-1.852 1.106-3.079 2.361-3.282 3.357-0.065 0.318-0.017 0.725 0.313 0.913l0.525 0.264c0.228 0.114 0.468 0.172 0.714 0.172 1.319 0 2.85-1.643 4.959-5.324 2.435-0.793 5.208-1.452 7.638-1.815 1.852 1.043 4.129 1.767 5.567 1.767 0.255 0 0.475-0.024 0.654-0.072 0.276-0.073 0.508-0.23 0.65-0.444 0.279-0.42 0.335-0.998 0.26-1.59-0.023-0.176-0.163-0.393-0.315-0.541zM6.614 25.439c0.241-0.658 1.192-1.958 2.6-3.111 0.088-0.072 0.306-0.276 0.506-0.466-1.472 2.348-2.458 3.283-3.106 3.577zM14.951 6.24c0.424 0 0.665 1.069 0.685 2.070s-0.214 1.705-0.505 2.225c-0.241-0.77-0.357-1.984-0.357-2.778 0 0-0.018-1.517 0.177-1.517v0zM12.464 19.922c0.295-0.529 0.603-1.086 0.917-1.677 0.765-1.447 1.249-2.58 1.609-3.511 0.716 1.303 1.608 2.41 2.656 3.297 0.131 0.111 0.269 0.222 0.415 0.333-2.132 0.422-3.974 0.935-5.596 1.558v0zM25.903 19.802c-0.13 0.081-0.502 0.128-0.741 0.128-0.772 0-1.727-0.353-3.066-0.927 0.515-0.038 0.986-0.057 1.409-0.057 0.774 0 1.004-0.003 1.761 0.19s0.767 0.585 0.637 0.667v0z"></path>
	<path d="M28.681 7.159c-0.694-0.947-1.662-2.053-2.724-3.116s-2.169-2.030-3.116-2.724c-1.612-1.182-2.393-1.319-2.841-1.319h-15.5c-1.378 0-2.5 1.121-2.5 2.5v27c0 1.378 1.121 2.5 2.5 2.5h23c1.378 0 2.5-1.122 2.5-2.5v-19.5c0-0.448-0.137-1.23-1.319-2.841v0zM24.543 5.457c0.959 0.959 1.712 1.825 2.268 2.543h-4.811v-4.811c0.718 0.556 1.584 1.309 2.543 2.268v0zM28 29.5c0 0.271-0.229 0.5-0.5 0.5h-23c-0.271 0-0.5-0.229-0.5-0.5v-27c0-0.271 0.229-0.5 0.5-0.5 0 0 15.499-0 15.5 0v7c0 0.552 0.448 1 1 1h7v19.5z"></path>
</symbol>

<symbol id="icon-china" viewBox="0 0 512.001 512.001">
	<title>China</title>
	<path style="fill:#FF4B55;" d="M503.172,423.725H8.828c-4.875,0-8.828-3.953-8.828-8.828V97.104c0-4.875,3.953-8.828,8.828-8.828
	h494.345c4.875,0,8.828,3.953,8.828,8.828v317.793C512,419.773,508.047,423.725,503.172,423.725z"/>
	<path style="fill:#FFE15A;" d="M85.007,140.733l8.416,25.234l26.6,0.206c3.444,0.026,4.872,4.422,2.101,6.467l-21.398,15.801
		l8.023,25.362c1.038,3.284-2.7,5.999-5.502,3.997l-21.64-15.469l-21.64,15.468c-2.802,2.003-6.54-0.714-5.502-3.997l8.023-25.362
		l-21.398-15.8c-2.771-2.046-1.343-6.441,2.101-6.467l26.6-0.206l8.416-25.234C79.297,137.465,83.918,137.465,85.007,140.733z"/>
	<path style="fill:#FFE15A;" d="M181.599,146.951l6.035,8.23l9.739-3.046c1.261-0.394,2.298,1.044,1.526,2.115l-5.962,8.281
		l5.906,8.321c0.765,1.077-0.282,2.508-1.54,2.105l-9.719-3.111l-6.089,8.189c-0.788,1.06-2.473,0.506-2.478-0.814l-0.045-10.205
		l-9.67-3.261c-1.251-0.423-1.246-2.195,0.009-2.609l9.69-3.196l0.114-10.204C179.129,146.427,180.818,145.886,181.599,146.951z"/>
	<path style="fill:#FFE15A;" d="M144.857,122.421l10.145,1.102l4.328-9.241c0.561-1.196,2.321-0.991,2.591,0.302l2.086,9.988
		l10.126,1.26c1.311,0.163,1.66,1.901,0.513,2.558l-8.855,5.07l1.931,10.02c0.25,1.298-1.295,2.166-2.274,1.279l-7.559-6.855
		l-8.932,4.932c-1.156,0.639-2.461-0.563-1.919-1.768l4.183-9.308l-7.452-6.972C142.805,123.89,143.544,122.279,144.857,122.421z"/>
	<path style="fill:#FFE15A;" d="M160.895,221.314l-6.035,8.23l-9.739-3.046c-1.261-0.394-2.298,1.044-1.526,2.115l5.962,8.281
		l-5.906,8.321c-0.765,1.077,0.282,2.508,1.54,2.105l9.719-3.111l6.089,8.189c0.788,1.06,2.473,0.506,2.478-0.814l0.045-10.205
		l9.67-3.261c1.252-0.423,1.246-2.195-0.009-2.609l-9.69-3.196l-0.114-10.204C163.363,220.791,161.676,220.248,160.895,221.314z"/>
	<path style="fill:#FFE15A;" d="M197.635,198.263l-10.145,1.102l-4.328-9.241c-0.561-1.196-2.321-0.991-2.591,0.302l-2.087,9.988
		l-10.126,1.26c-1.311,0.163-1.66,1.901-0.513,2.558l8.855,5.07l-1.931,10.02c-0.25,1.298,1.295,2.166,2.274,1.279l7.559-6.855
		l8.932,4.932c1.156,0.639,2.461-0.563,1.919-1.768l-4.183-9.308l7.452-6.972C199.689,199.732,198.95,198.121,197.635,198.263z"/>
</symbol>


<symbol id="icon-japan" viewBox="0 0 512.001 512.001">
	<title>Japanese</title>
	<path style="fill:#F5F5F5;" d="M503.172,423.725H8.828c-4.875,0-8.828-3.953-8.828-8.828V97.104c0-4.875,3.953-8.828,8.828-8.828
	h494.345c4.875,0,8.828,3.953,8.828,8.828v317.793C512,419.773,508.047,423.725,503.172,423.725z"/>
<circle style="fill:#FF4B55;" cx="256" cy="256.001" r="97.1"/>
</symbol>

<symbol id="icon-korea" viewBox="0 0 512.001 512.001">
	<title>Korea</title>
	<path style="fill:#F5F5F5;" d="M503.172,423.725H8.828c-4.875,0-8.828-3.953-8.828-8.828V97.104c0-4.875,3.953-8.828,8.828-8.828
		h494.345c4.875,0,8.828,3.953,8.828,8.828v317.793C512,419.773,508.047,423.725,503.172,423.725z"/>
	<path style="fill:#FF4B55;" d="M305.009,182.533c-40.563-27.041-95.35-15.986-122.374,24.506
		c-13.555,20.211-8.045,47.674,12.235,61.195c20.265,13.521,47.64,8.03,61.161-12.252c13.521-20.281,40.914-25.704,61.178-12.254
		c20.298,13.521,25.757,40.984,12.217,61.195C356.468,264.363,345.537,209.575,305.009,182.533"/>
	<path style="fill:#41479B;" d="M182.634,207.04c-13.555,20.211-8.045,47.674,12.235,61.195c20.265,13.521,47.64,8.03,61.161-12.252
		c13.521-20.281,40.914-25.704,61.178-12.254c20.298,13.521,25.757,40.984,12.217,61.195
	c-27.006,40.632-81.775,51.549-122.338,24.507C166.561,302.391,155.593,247.603,182.634,207.04"/>
	<path style="fill:#464655;" d="M349.92,149.191l16.035,24.102c1.347,2.025,0.802,4.759-1.219,6.112l-4.066,2.723
		c-2.029,1.358-4.775,0.812-6.129-1.22l-16.055-24.096c-1.351-2.027-0.803-4.766,1.223-6.119l4.086-2.728
		C345.825,146.61,348.568,147.159,349.92,149.191z"/>
	<path style="fill:#464655;" d="M374.66,186.352l16.087,24.087c1.358,2.034,0.803,4.786-1.237,6.134l-4.084,2.699
		c-2.026,1.34-4.754,0.789-6.103-1.23l-16.078-24.062c-1.354-2.026-0.81-4.767,1.217-6.122l4.074-2.724
		C370.563,183.779,373.305,184.324,374.66,186.352z"/>
	<path style="fill:#464655;" d="M367.089,137.733l40.829,61.273c1.352,2.028,0.803,4.768-1.225,6.12l-4.102,2.734
		c-2.028,1.353-4.769,0.804-6.121-1.224l-40.843-61.269c-1.353-2.029-0.803-4.771,1.227-6.122l4.115-2.739
		C362.998,135.157,365.737,135.705,367.089,137.733z"/>
	<path style="fill:#464655;" d="M384.211,126.293l16.07,24.149c1.354,2.034,0.798,4.78-1.241,6.127l-4.086,2.7
		c-2.028,1.34-4.757,0.789-6.105-1.234l-16.082-24.117c-1.353-2.028-0.804-4.769,1.224-6.121l4.099-2.732
		C380.117,123.712,382.859,124.261,384.211,126.293z"/>
	<path style="fill:#464655;" d="M408.967,163.532l16.045,24.099c1.35,2.026,0.803,4.762-1.22,6.115l-4.075,2.724
		c-2.029,1.357-4.775,0.809-6.127-1.223l-16.045-24.099c-1.349-2.026-0.803-4.762,1.22-6.115l4.075-2.724
		C404.868,160.952,407.614,161.499,408.967,163.532z"/>
	<path style="fill:#464655;" d="M132.721,293.983l40.824,61.207c1.352,2.027,0.806,4.767-1.222,6.12l-4.088,2.73
		c-2.028,1.354-4.769,0.807-6.123-1.222l-40.824-61.207c-1.352-2.027-0.806-4.767,1.222-6.12l4.088-2.73
		C128.626,291.407,131.368,291.955,132.721,293.983z"/>
	<path style="fill:#464655;" d="M115.582,305.432l16.028,24.041c1.351,2.026,0.806,4.761-1.217,6.116l-4.066,2.722
		c-2.027,1.357-4.771,0.812-6.126-1.217l-16.047-24.035c-1.354-2.027-0.808-4.768,1.22-6.122l4.086-2.728
		C111.487,302.856,114.229,303.403,115.582,305.432z"/>
	<path style="fill:#464655;" d="M140.351,342.606l16.046,24.102c1.35,2.026,0.803,4.763-1.222,6.115l-4.078,2.726
		c-2.029,1.356-4.772,0.809-6.126-1.221l-16.056-24.097c-1.351-2.027-0.803-4.766,1.222-6.119l4.088-2.73
		C136.255,340.026,138.998,340.575,140.351,342.606z"/>
	<path style="fill:#464655;" d="M98.442,316.877l40.798,61.21c1.351,2.026,0.804,4.764-1.219,6.118l-4.077,2.726
		c-2.028,1.356-4.771,0.81-6.125-1.22l-40.822-61.202c-1.353-2.028-0.804-4.769,1.224-6.122l4.102-2.734
		C94.349,314.301,97.09,314.849,98.442,316.877z"/>
	<path style="fill:#464655;" d="M121.294,210.443l40.818-61.257c1.353-2.03,4.095-2.578,6.124-1.224l4.087,2.729
		c2.027,1.353,2.573,4.093,1.222,6.12l-40.834,61.223c-1.35,2.023-4.081,2.573-6.108,1.231l-4.071-2.695
		C120.494,215.222,119.94,212.475,121.294,210.443z"/>
	<path style="fill:#464655;" d="M104.147,199.01l40.825-61.269c1.353-2.03,4.097-2.578,6.126-1.222l4.077,2.726
		c2.024,1.353,2.57,4.089,1.22,6.116l-40.814,61.272c-1.353,2.03-4.095,2.579-6.124,1.224l-4.088-2.729
		C103.343,203.776,102.796,201.037,104.147,199.01z"/>
	<path style="fill:#464655;" d="M86.99,187.626l40.829-61.33c1.353-2.031,4.098-2.58,6.127-1.224l4.077,2.726
		c2.024,1.353,2.57,4.087,1.222,6.114l-40.804,61.339c-1.351,2.031-4.094,2.581-6.123,1.228l-4.102-2.734
		C86.189,192.393,85.641,189.654,86.99,187.626z"/>
	<path style="fill:#464655;" d="M338.493,355.19l16.047-24.035c1.355-2.029,4.099-2.574,6.126-1.217l4.066,2.723
		c2.023,1.354,2.567,4.09,1.217,6.116l-16.028,24.04c-1.353,2.029-4.095,2.577-6.123,1.223l-4.086-2.728
		C337.685,359.958,337.139,357.218,338.493,355.19z"/>
	<path style="fill:#464655;" d="M363.243,318.142l16.073-24.154c1.352-2.03,4.094-2.58,6.123-1.227l4.096,2.73
		c2.029,1.353,2.577,4.096,1.223,6.124l-16.107,24.116c-1.351,2.023-4.082,2.571-6.109,1.227l-4.062-2.692
		C362.445,322.917,361.891,320.173,363.243,318.142z"/>
	<path style="fill:#464655;" d="M355.626,366.699l16.057-24.098c1.352-2.029,4.093-2.578,6.122-1.225l4.104,2.737
		c2.027,1.352,2.575,4.09,1.225,6.119l-16.047,24.1c-1.351,2.029-4.09,2.579-6.12,1.228l-4.115-2.739
		C354.824,371.47,354.274,368.728,355.626,366.699z"/>
	<path style="fill:#464655;" d="M380.403,329.464l16.066-24.042c1.354-2.025,4.092-2.571,6.119-1.22l4.102,2.734
		c2.029,1.353,2.577,4.096,1.221,6.124l-16.065,24.042c-1.353,2.025-4.092,2.571-6.118,1.22l-4.103-2.734
		C379.594,334.237,379.047,331.493,380.403,329.464z"/>
	<path style="fill:#464655;" d="M372.771,378.082l16.075-24.056c1.35-2.019,4.077-2.569,6.103-1.23l4.086,2.7
		c2.039,1.348,2.595,4.097,1.239,6.131l-16.063,24.088c-1.352,2.028-4.093,2.575-6.121,1.224l-4.099-2.732
		C371.962,382.853,371.415,380.11,372.771,378.082z"/>
	<path style="fill:#464655;" d="M397.554,340.97l16.035-24.085c1.353-2.031,4.098-2.58,6.127-1.223l4.072,2.722
		c2.025,1.354,2.57,4.093,1.218,6.119l-16.049,24.053c-1.349,2.024-4.083,2.573-6.11,1.229l-4.06-2.69
		C396.754,345.747,396.201,343.002,397.554,340.97z"/>
</symbol>
<symbol id="icon-ddex" viewBox="0 0 155 32">
<title>DDEX</title>
<path fill="#e8e8e8" style="fill: var(--color1, #e8e8e8)" d="M0 15.963c0 4.667 0 9.333 0 14 0 0.741 0.148 1.259 0.704 1.704 0.222 0.185 0.407 0.296 0.704 0.296 6.111 0 12.222 0 18.333 0 1.556 0 3.037-0.185 4.519-0.593 6.593-1.889 11.222-7.556 11.593-14.407 0.296-5.481-1.741-10-5.963-13.481-2.852-2.333-6.222-3.444-9.926-3.481-6.037 0-12.037 0-18.074 0-0.63 0-1.074 0.148-1.481 0.63-0.259 0.259-0.407 0.519-0.407 0.926 0.037 4.815 0 9.593 0 14.407zM39.926 16c0 4.704 0 9.444 0 14.148 0 0.593 0.148 1.037 0.593 1.444 0.296 0.259 0.593 0.407 1 0.407 6.037 0 12.037 0 18.074 0 1.111 0 2.259-0.074 3.37-0.296 8.519-1.667 14.148-9.815 12.704-18.37-1.296-7.667-8-13.296-15.741-13.333-6.185 0-12.37 0-18.556 0-0.63 0-1.444 0.778-1.444 1.444 0 4.852 0 9.704 0 14.556zM104.556 0c0 0.037 0 0.037 0 0-3.111 0.037-6.259-0.037-9.37 0.037-4.111 0.111-7.667 1.667-10.556 4.593-3.778 3.815-5.296 8.407-4.556 13.741 0.481 3.593 2.111 6.667 4.741 9.148 3.148 3 6.963 4.444 11.296 4.444 5.889 0 11.778 0 17.667 0 0.741 0 1.333-0.148 1.778-0.741 0.185-0.222 0.259-0.407 0.259-0.667 0-1.037 0-2.074 0-3.111 0-0.704-0.778-1.481-1.481-1.481-6.111 0-12.222 0-18.333 0-0.556 0-1.148-0.037-1.704-0.111-6.63-0.963-10.481-8.259-7.481-14.222 1.889-3.704 5-5.593 9.185-5.63 5.926-0.037 11.852-0.037 17.741 0 0.741 0 1.333-0.148 1.778-0.741 0.148-0.222 0.259-0.407 0.259-0.667 0-1.037 0-2.111 0-3.148 0-0.63-0.815-1.407-1.444-1.407-3.222-0.037-6.519-0.037-9.778-0.037zM151.185 31.963c1.074 0 2.148 0 3.259 0 0.148 0 0.296 0.074 0.296-0.185 0-0.481 0-0.852-0.37-1.259-4.296-4.741-8.593-9.481-12.889-14.222-0.222-0.259-0.185-0.37 0-0.593 4.296-4.741 8.556-9.481 12.852-14.222 0.259-0.296 0.37-0.593 0.37-1s-0.148-0.444-0.481-0.444c-2 0-4.037 0-6.037 0-0.333 0-0.593 0.111-0.815 0.37-3.259 3.63-6.556 7.259-9.815 10.889-0.222 0.259-0.333 0.333-0.63 0-3.222-3.704-6.556-7.37-9.889-11.037-0.111-0.111-0.222-0.222-0.407-0.222-2.185 0-4.37 0-6.519 0-0.111 0-0.259-0.037-0.259 0.148 0 0.407-0.074 0.815 0.296 1.222 4.296 4.741 8.593 9.519 12.889 14.259 0.222 0.259 0.296 0.37 0.037 0.667-4.259 4.704-8.519 9.407-12.778 14.111-0.296 0.333-0.481 0.667-0.444 1.148 0.037 0.296 0.074 0.407 0.407 0.407 2 0 4-0.037 6 0 0.444 0 0.741-0.148 1.037-0.444 3.259-3.63 6.519-7.222 9.778-10.852 0.222-0.259 0.333-0.296 0.556 0 3.296 3.704 6.63 7.37 9.926 11.037 0.185 0.185 0.37 0.259 0.63 0.259 0.963-0.037 2-0.037 3-0.037zM105.185 18.963c2.889 0 5.778-0.037 8.704 0 0.667 0 1.185-0.111 1.63-0.667 0.185-0.259 0.333-0.481 0.296-0.778-0.037-1.037 0-2.074 0-3.111 0-0.63-0.815-1.407-1.444-1.407-3.111 0-6.259 0-9.37 0-3 0-5.963 0-8.963 0-1.778 0-3.074 1.296-3.074 3s1.333 2.963 3.111 2.963c3.037 0 6.074 0 9.111 0z"></path>
<path fill="#e8e8e8" style="fill: var(--color1, #e8e8e8)" d="M0 15.963c0-4.815 0-9.63 0-14.407 0-0.407 0.148-0.667 0.37-0.926 0.444-0.481 0.889-0.63 1.519-0.63 6.037 0.037 12.037 0 18.074 0 3.741 0 7.111 1.111 10 3.481 4.222 3.519 6.259 8 5.926 13.481-0.37 6.852-5.037 12.519-11.593 14.407-1.481 0.407-3 0.593-4.519 0.593-6.111 0-12.222 0-18.333 0-0.296 0-0.481-0.111-0.704-0.296-0.556-0.444-0.741-1-0.704-1.704 0-4.667-0.037-9.333-0.037-14zM6.148 15.963c0 3.185 0 6.37 0 9.556 0 0.37 0.111 0.444 0.481 0.444 4.556 0 9.074 0 13.63 0 0.37 0 0.704 0 1.074-0.074 5.926-0.778 9.778-6.259 8.519-12.148-0.926-4.333-5-7.704-9.407-7.741-4.63-0.037-9.259 0-13.889-0.037-0.407 0-0.444 0.111-0.444 0.481 0.037 3.185 0.037 6.37 0.037 9.519z"></path>
<path fill="#e8e8e8" style="fill: var(--color1, #e8e8e8)" d="M39.926 16c0-4.852 0-9.704 0-14.556 0-0.63 0.815-1.444 1.444-1.444 6.185 0 12.37 0 18.556 0 7.741 0 14.407 5.667 15.704 13.296 1.444 8.593-4.185 16.704-12.704 18.37-1.111 0.222-2.222 0.296-3.37 0.296-6.037 0-12.037 0-18.074 0-0.407 0-0.667-0.111-1-0.407-0.444-0.407-0.593-0.852-0.593-1.444 0.074-4.667 0.037-9.407 0.037-14.111zM46 16c0 3.148 0 6.296 0 9.444 0 0.37 0.074 0.519 0.481 0.519 4.556 0 9.111 0 13.667 0 0.333 0 0.667 0 1-0.074 5.889-0.704 9.815-6.148 8.667-11.963-0.889-4.444-4.926-7.889-9.444-7.926-4.667-0.037-9.296 0-13.963-0.037-0.37 0-0.37 0.185-0.37 0.444-0.037 3.222-0.037 6.407-0.037 9.593z"></path>
<path fill="#e8e8e8" style="fill: var(--color1, #e8e8e8)" d="M104.556 0c3.259 0 6.556 0 9.815 0 0.63 0 1.444 0.815 1.444 1.407 0 1.037 0 2.111 0 3.148 0 0.296-0.111 0.444-0.259 0.667-0.481 0.593-1.037 0.741-1.778 0.741-5.926-0.037-11.852-0.037-17.741 0-4.185 0.037-7.296 1.889-9.185 5.63-3.037 5.963 0.852 13.259 7.481 14.222 0.556 0.074 1.148 0.111 1.704 0.111 6.111 0 12.222 0 18.333 0 0.704 0 1.481 0.778 1.481 1.481 0 1.037 0 2.074 0 3.111 0 0.259-0.074 0.444-0.259 0.667-0.481 0.593-1.037 0.741-1.778 0.741-5.889-0.037-11.778 0-17.667 0-4.333 0-8.148-1.444-11.296-4.444-2.63-2.519-4.259-5.556-4.741-9.148-0.741-5.296 0.778-9.926 4.556-13.741 2.889-2.889 6.444-4.481 10.556-4.593 3.074-0.037 6.185 0.037 9.333 0 0 0.037 0 0.037 0 0z"></path>
<path fill="#e8e8e8" style="fill: var(--color1, #e8e8e8)" d="M151.185 31.963c-1.037 0-2.037 0-3.074 0-0.259 0-0.444-0.074-0.63-0.259-3.296-3.667-6.63-7.37-9.926-11.037-0.259-0.259-0.333-0.222-0.556 0-3.259 3.63-6.519 7.222-9.778 10.852-0.296 0.333-0.593 0.481-1.037 0.444-2-0.037-4 0-6 0-0.333 0-0.37-0.074-0.407-0.407-0.037-0.481 0.148-0.815 0.444-1.148 4.259-4.704 8.519-9.407 12.778-14.111 0.259-0.296 0.185-0.444-0.037-0.667-4.222-4.741-8.519-9.519-12.852-14.259-0.37-0.407-0.259-0.778-0.296-1.222 0-0.185 0.148-0.148 0.259-0.148 2.185 0 4.37 0 6.519 0 0.185 0 0.296 0.111 0.407 0.222 3.333 3.667 6.63 7.333 9.963 11.037 0.259 0.296 0.37 0.259 0.63 0 3.259-3.63 6.556-7.259 9.815-10.889 0.222-0.259 0.481-0.37 0.815-0.37 2 0 4.037 0 6.037 0 0.37 0 0.481 0.074 0.481 0.444 0 0.407-0.111 0.704-0.37 1-4.296 4.741-8.556 9.481-12.852 14.222-0.222 0.222-0.259 0.333 0 0.593 4.296 4.741 8.556 9.481 12.889 14.222 0.37 0.407 0.37 0.815 0.37 1.259 0 0.259-0.185 0.185-0.296 0.185-1.111 0.037-2.185 0.037-3.296 0.037z"></path>
<path fill="#e8e8e8" style="fill: var(--color1, #e8e8e8)" d="M105.185 18.963c-3.037 0-6.074 0-9.111 0-1.778 0-3.111-1.259-3.111-2.963s1.296-3 3.074-3c3 0 5.963 0 8.963 0 3.111 0 6.259 0 9.37 0 0.63 0 1.444 0.815 1.444 1.407 0 1.037 0 2.074 0 3.111 0 0.333-0.111 0.556-0.296 0.778-0.444 0.556-0.963 0.667-1.63 0.667-2.926 0-5.815 0-8.704 0z"></path>
<path fill="#0e182c" style="fill: var(--color2, #0e182c)" d="M6.148 15.963c0-3.185 0-6.333 0-9.519 0-0.37 0.037-0.481 0.444-0.481 4.63 0.037 9.259 0 13.889 0.037 4.407 0.037 8.444 3.407 9.407 7.741 1.222 5.889-2.63 11.37-8.593 12.185-0.37 0.037-0.704 0.074-1.074 0.074-4.556 0-9.074 0-13.63 0-0.37 0-0.481-0.074-0.481-0.444 0.037-3.222 0.037-6.407 0.037-9.593z"></path>
<path fill="#0e182c" style="fill: var(--color2, #0e182c)" d="M46 16c0-3.185 0-6.407 0-9.593 0-0.259 0-0.444 0.37-0.444 4.667 0.037 9.296 0 13.963 0.037 4.519 0.037 8.593 3.481 9.444 7.926 1.185 5.852-2.741 11.259-8.667 12-0.333 0.037-0.667 0.074-1 0.074-4.556 0-9.111 0-13.667 0-0.407 0-0.481-0.148-0.481-0.519 0.037-3.148 0.037-6.296 0.037-9.481z"></path>
</symbol>
<symbol id="icon-fubt" viewBox="0 0 111 32">
<title>fubt</title>
<path fill="#e95517" style="fill: var(--color1, #e95517)" d="M0 0v31.928h17.83c18.7-4.566 18.156-27.832 0-31.928z"></path>
<path fill="#fff" style="fill: var(--color2, #fff)" d="M6.994 21.055c0 0 1.377-6.668 3.552-7.031s13.046 0 13.046 0 1.631-0.544 2.102-1.087-1.087 4.82-3.37 6.161l-12.684-0.109c-0.036 0.036-2.211 0.978-2.646 2.066z"></path>
<path fill="#fff" style="fill: var(--color2, #fff)" d="M1.921 32l3.080-10.002h7.067l-8.082 10.002z"></path>
<path fill="#fff" style="fill: var(--color2, #fff)" d="M13.916 21.998h-9.024c-0.29 0-0.544-0.254-0.544-0.544v-0.725c0-0.29 0.254-0.544 0.544-0.544h9.024c0.29 0 0.544 0.254 0.544 0.544v0.725c0 0.326-0.254 0.544-0.544 0.544z"></path>
<path fill="#fff" style="fill: var(--color2, #fff)" d="M8.988 13.336l15.583-0.471c0 0 2.754-0.652 3.914-6.342 0 0-0.906 1.087-1.087 1.087s-14.46 0.181-14.46 0.181-2.863 1.776-3.95 5.545z"></path>
<path fill="#f08625" style="fill: var(--color3, #f08625)" d="M41.894 25.042v-8.045h8.879c0.978 0 0.978-2.102 0-2.102h-8.879c0 0-0.978-6.523 3.914-6.632s4.892 0 4.892 0c1.377 0 1.377-2.102 0-2.102h-4.965c0 0-5.255 0.254-5.726 5.436s0 13.481 0 13.481c0 1.087 1.885 1.087 1.885-0.036z"></path>
<path fill="#f08625" style="fill: var(--color3, #f08625)" d="M53.418 19.135v-11.995c0-1.087 1.848-1.087 1.848 0v11.887c0 6.523 9.133 6.523 9.133 0v-11.887c0-1.087 1.957-1.087 1.957 0v11.995c-0.036 8.806-12.938 8.806-12.938 0z"></path>
<path fill="#e95517" style="fill: var(--color1, #e95517)" d="M82.519 12.177c0.29-3.080-2.247-5.69-5.364-5.69h-5.327c-0.652 0-1.087 0.544-1.232 0.797-0.036 0.072-0.072 0.145-0.072 0.217 0 1.558-0.145 15.873 0 16.743 0.145 0.906 1.305 1.305 1.305 1.305h5.037c3.37 0 6.088-2.935 5.581-6.27-0.217-1.486-1.051-2.791-2.537-3.225 1.667-0.87 2.464-2.356 2.609-3.878zM78.75 23.266c-0.435 0.29-0.942 0.471-1.45 0.471h-5.001v-6.523h5.146c0.399 0 0.797 0.072 1.16 0.29 2.283 1.268 2.682 3.986 0.145 5.762zM78.532 14.605c-0.326 0.181-0.689 0.29-1.051 0.29h-5.182v-6.523h5.182c0.362 0 0.725 0.072 1.051 0.254 2.392 1.341 2.79 4.24 0 5.98z"></path>
<path fill="#e95517" style="fill: var(--color1, #e95517)" d="M91.506 24.245v-15.475h-5.11c-0.761-0.87-0.652-1.595 0-2.247h11.959c0.399 0 0.834 0.145 1.087 0.471s0.29 0.652 0.109 1.015c-0.254 0.435-0.725 0.652-1.232 0.652h-4.313v15.583c-0.036 1.703-2.501 1.703-2.501 0z"></path>
<path fill="#e95517" style="fill: var(--color1, #e95517)" d="M108.575 23.375c-0.362 0-0.616-0.254-0.616-0.616s0.254-0.58 0.616-0.58c0.362 0 0.616 0.217 0.616 0.616 0 0.326-0.254 0.58-0.616 0.58z"></path>
<path fill="#e95517" style="fill: var(--color1, #e95517)" d="M102.849 20.041h1.377v-1.268h0.652v1.268h2.609c0.616 0 0.942-0.181 0.942-0.652 0-0.217-0.036-0.399-0.072-0.507l0.652-0.036c0.072 0.181 0.109 0.435 0.109 0.797 0 0.399-0.145 0.725-0.362 0.942-0.254 0.254-0.689 0.326-1.268 0.326h-2.646v0.761h-0.652v-0.761h-1.16l-0.181-0.87z"></path>
<path fill="#e95517" style="fill: var(--color1, #e95517)" d="M106.618 13.481c1.776 0 2.573 1.232 2.573 2.392 0 1.305-0.942 2.319-2.501 2.319-1.631 0-2.573-1.051-2.573-2.392 0.036-1.377 1.051-2.319 2.501-2.319zM106.691 17.323c1.051 0 1.848-0.616 1.848-1.486 0-0.834-0.797-1.486-1.885-1.486-0.834 0-1.848 0.399-1.848 1.45s0.942 1.522 1.885 1.522z"></path>
<path fill="#e95517" style="fill: var(--color1, #e95517)" d="M105.821 12.358c-0.616 0-1.123 0.036-1.595 0.036v-0.797l0.834-0.036v-0.036c-0.58-0.362-0.942-0.942-0.942-1.703 0-1.16 0.978-2.066 2.464-2.066 1.74 0 2.609 1.051 2.609 2.211 0 0.652-0.29 1.196-0.761 1.486v0.036h2.646v0.87h-5.255zM107.126 11.488c0.145 0 0.254-0.036 0.362-0.036 0.616-0.145 1.015-0.689 1.015-1.305 0-0.942-0.761-1.486-1.885-1.486-0.978 0-1.812 0.507-1.812 1.45 0 0.616 0.435 1.16 1.087 1.341 0.109 0.036 0.254 0.072 0.362 0.072h0.87z"></path>
</symbol>
<symbol id="icon-etherium_shade" viewBox="0 0 20 32">
<title>Ethereum</title>
<path fill="#bfc2c5" style="fill: var(--color1, #bfc2c5)" d="M9.896 0.041c2.406 3.956 4.799 7.912 7.205 11.867 0.802 1.319 1.577 2.637 2.393 3.942 0.218 0.353 0.258 0.517-0.163 0.775-2.991 1.726-5.954 3.494-8.931 5.247-0.381 0.231-0.693 0.272-1.128 0-2.936-1.781-5.9-3.507-8.85-5.261-0.15-0.095-0.598-0.054-0.326-0.476 0.136-0.027 0.272-0.041 0.381-0.095 2.882-1.305 5.764-2.624 8.659-3.901 0.557-0.245 0.761-0.544 0.748-1.155-0.027-3.643 0-7.286 0.014-10.943z"></path>
<path fill="#bfc2c5" style="fill: var(--color1, #bfc2c5)" d="M9.896 0.041c-0.014 3.643-0.041 7.3-0.014 10.943 0 0.625-0.19 0.911-0.748 1.155-2.896 1.278-5.777 2.596-8.659 3.901-0.122 0.054-0.258 0.054-0.381 0.095 0.734-1.495 1.672-2.882 2.528-4.309 2.338-3.901 4.703-7.789 7.055-11.677 0.041-0.054 0.082-0.109 0.122-0.15 0.014-0.014 0.068 0.027 0.095 0.041z"></path>
<path fill="#bfc2c5" style="fill: var(--color1, #bfc2c5)" d="M19.439 18.624c-1.781 2.528-3.562 5.057-5.356 7.572-1.291 1.822-2.596 3.643-3.901 5.451-0.095 0.136-0.122 0.462-0.435 0.285 0.014-2.61 0.027-5.234 0.041-7.844 2.991-1.754 5.981-3.507 8.972-5.247 0.19-0.109 0.394-0.218 0.585-0.326 0.027 0.041 0.068 0.082 0.095 0.109z"></path>
<path fill="#bfc2c5" style="fill: var(--color1, #bfc2c5)" d="M9.788 24.102c-0.014 2.61-0.027 5.234-0.041 7.844-1.047-1.237-1.917-2.61-2.868-3.929-2.175-3.018-4.323-6.063-6.484-9.094-0.068-0.095-0.109-0.19-0.163-0.299 0.027-0.027 0.054-0.054 0.082-0.082 2.202 1.278 4.418 2.569 6.62 3.861 0.952 0.557 1.903 1.128 2.855 1.699z"></path>
<path fill="#828384" style="fill: var(--color2, #828384)" d="M0.109 18.474c-0.014-0.014-0.027-0.014-0.041-0.027 0.014 0 0.027 0.014 0.041 0.027 0 0 0 0 0 0z"></path>
<path fill="#828384" style="fill: var(--color2, #828384)" d="M0.231 18.624c-0.041-0.054-0.082-0.109-0.122-0.15 0 0-0.014 0.014-0.014 0.014 0.068 0.027 0.136 0.041 0.204 0.068-0.014 0.014-0.041 0.041-0.068 0.068z"></path>
<path fill="#2f3030" style="fill: var(--color3, #2f3030)" d="M19.344 18.528c0.054 0 0.15-0.027 0.163-0.014 0.054 0.068-0.014 0.095-0.082 0.109-0.014-0.027-0.054-0.068-0.082-0.095z"></path>
</symbol>
<symbol id="icon-sentinel_black" viewBox="0 0 29 32">
<title>Sentinel</title>
<path fill="#bfc2c5" style="fill: var(--color1, #bfc2c5)" d="M28.006 1.567v17.137c-0.657 2.376-2.376 6.572-6.673 9.403-0.91 0.607-3.64 2.427-6.825 2.427-5.156 0-10.464-4.853-12.992-11.779v-17.188h26.49zM29.523 0.051c-9.858 0-19.716 0-29.523 0 0 18.957 0 18.957 0 18.957 2.73 7.785 8.594 13.043 14.509 13.043 3.64 0 6.622-1.972 7.684-2.679 5.207-3.438 6.875-8.746 7.33-10.464 0-6.319 0-12.638 0-18.856v0z"></path>
<path fill="#bfc2c5" style="fill: var(--color1, #bfc2c5)" d="M4.246 4.398h20.575v10.667l-11.324-9.15h-2.427l13.75 10.717v3.084c0 0-2.022 5.965-8.594 7.937h-2.528c0 0-8.948-1.719-9.605-11.678v-3.235l14.964 11.223 1.163-1.163-16.025-12.032 0.051-6.37z"></path>
</symbol>


</defs>


</svg>
