<svg width="394" height="354" viewBox="0 0 394 354" fill="none" xmlns="http://www.w3.org/2000/svg">
<g opacity="0.1">
<rect width="197" height="177" fill="black" fill-opacity="0" transform="scale(2)"/>
<rect width="197" height="177" fill="black" fill-opacity="0" transform="scale(2)"/>
<path d="M197 306.346C99.4578 306.346 20.3793 286.182 20.3793 265.5V313.127C20.4336 333.795 99.485 354 197 354C294.515 354 373.566 333.795 373.621 313.127V265.5C373.621 286.182 294.542 306.346 197 306.346Z" fill="#E4AF18"/>
<path d="M176.621 231.461C79.0785 231.461 0 211.297 0 190.615V238.242C0.0543448 258.91 79.1057 279.115 176.621 279.115C274.136 279.115 353.187 258.91 353.241 238.242V190.615C353.241 211.297 274.163 231.461 176.621 231.461Z" fill="#F4BF1A"/>
<path d="M217.379 156.577C119.837 156.577 40.7587 136.413 40.7587 115.731V163.358C40.813 184.026 119.864 204.231 217.379 204.231C314.894 204.231 393.946 184.026 394 163.358V115.731C394 136.413 314.922 156.577 217.379 156.577Z" fill="#E4AF18"/>
<path d="M353.241 34.9235C353.241 55.5984 274.163 74.8846 176.621 74.8846C79.0785 74.8846 0 55.5984 0 34.9235C0 14.2417 79.0785 0 176.621 0C274.163 0 353.241 14.2417 353.241 34.9235Z" fill="#FFD949"/>
<path d="M176.621 74.8847C79.0785 74.8847 0 54.7203 0 34.0386V81.6652C0.0543448 102.333 79.1057 122.539 176.621 122.539C274.136 122.539 353.187 102.333 353.241 81.6652V34.0386C353.241 54.7203 274.163 74.8847 176.621 74.8847Z" fill="#F4BF1A"/>
<path d="M27.1724 54.9653V102.585C31.3026 104.11 35.8268 105.581 40.7586 106.983V59.3563C35.8268 57.9539 31.3026 56.4834 27.1724 54.9653Z" fill="#DCA815"/>
<path d="M312.483 59.3563V106.983C317.414 105.581 321.939 104.11 326.069 102.585V54.9653C321.939 56.4903 317.414 57.9539 312.483 59.3563Z" fill="#DCA815"/>
<path d="M61.1379 64.2993V111.933C65.4855 112.838 70.0165 113.696 74.7241 114.506V66.8726C70.0165 66.0625 65.4855 65.2047 61.1379 64.2993Z" fill="#DCA815"/>
<path d="M278.517 66.8726V114.513C283.225 113.696 287.756 112.838 292.104 111.933V64.2993C287.756 65.2047 283.225 66.0625 278.517 66.8726Z" fill="#DCA815"/>
<path d="M95.1035 69.9087V117.549C99.5326 118.121 104.05 118.652 108.69 119.128V71.4881C104.05 71.0115 99.5326 70.4737 95.1035 69.9087Z" fill="#DCA815"/>
<path d="M244.552 71.4949V119.135C249.191 118.652 253.709 118.121 258.138 117.556V69.9087C253.709 70.4873 249.191 71.0183 244.552 71.4949Z" fill="#DCA815"/>
<path d="M129.069 73.2441V120.891C133.532 121.204 138.056 121.483 142.655 121.708V74.0543C138.056 73.8296 133.532 73.5573 129.069 73.2441Z" fill="#DCA815"/>
<path d="M210.586 74.0543V121.708C215.185 121.483 219.709 121.204 224.172 120.891V73.2441C219.709 73.5573 215.185 73.8296 210.586 74.0543Z" fill="#DCA815"/>
<path d="M176.621 74.8841C174.345 74.8841 172.083 74.8637 169.828 74.8433V122.497C172.083 122.518 174.345 122.538 176.621 122.538C178.896 122.538 181.159 122.518 183.414 122.497V74.8433C181.159 74.8637 178.896 74.8841 176.621 74.8841Z" fill="#DCA815"/>
<path d="M67.9312 136.657V184.277C72.0614 185.802 76.5856 187.272 81.5174 188.675V141.048C76.5856 139.646 72.0614 138.175 67.9312 136.657Z" fill="#C49214"/>
<path d="M353.241 141.048V188.675C358.173 187.272 362.697 185.802 366.828 184.277V136.657C362.697 138.182 358.173 139.646 353.241 141.048Z" fill="#C49214"/>
<path d="M101.896 145.991V193.625C106.244 194.53 110.775 195.388 115.483 196.198V148.565C110.775 147.754 106.244 146.897 101.896 145.991Z" fill="#C49214"/>
<path d="M319.276 148.565V196.205C323.983 195.388 328.514 194.53 332.862 193.625V145.991C328.514 146.897 323.983 147.754 319.276 148.565Z" fill="#C49214"/>
<path d="M135.862 151.607V199.248C140.291 199.82 144.809 200.35 149.448 200.827V153.187C144.809 152.703 140.291 152.172 135.862 151.607Z" fill="#C49214"/>
<path d="M285.31 153.18V200.827C289.95 200.344 294.467 199.813 298.897 199.248V151.607C294.467 152.179 289.95 152.71 285.31 153.18Z" fill="#C49214"/>
<path d="M169.828 154.937V202.584C174.291 202.897 178.815 203.176 183.414 203.4V155.747C178.815 155.522 174.291 155.25 169.828 154.937Z" fill="#C49214"/>
<path d="M251.345 155.747V203.4C255.944 203.176 260.468 202.897 264.931 202.584V154.937C260.468 155.25 255.944 155.522 251.345 155.747Z" fill="#C49214"/>
<path d="M217.379 156.576C215.104 156.576 212.841 156.556 210.586 156.535V204.189C212.841 204.209 215.104 204.23 217.379 204.23C219.655 204.23 221.917 204.209 224.172 204.189V156.535C221.917 156.556 219.655 156.576 217.379 156.576Z" fill="#C49214"/>
<path d="M27.1724 211.542V259.162C31.3026 260.687 35.8268 262.15 40.7586 263.56V215.933C35.8268 214.531 31.3026 213.06 27.1724 211.542Z" fill="#DCA815"/>
<path d="M312.483 215.933V263.56C317.414 262.157 321.939 260.687 326.069 259.162V211.542C321.939 213.067 317.414 214.531 312.483 215.933Z" fill="#DCA815"/>
<path d="M61.1379 220.876V268.509C65.4855 269.415 70.0165 270.273 74.7241 271.083V223.449C70.0165 222.639 65.4855 221.781 61.1379 220.876Z" fill="#DCA815"/>
<path d="M278.517 223.449V271.09C283.225 270.273 287.756 269.415 292.104 268.509V220.876C287.756 221.781 283.225 222.639 278.517 223.449Z" fill="#DCA815"/>
<path d="M95.1035 226.492V274.132C99.5326 274.704 104.05 275.235 108.69 275.712V228.072C104.05 227.588 99.5326 227.057 95.1035 226.492Z" fill="#DCA815"/>
<path d="M244.552 228.065V275.712C249.191 275.228 253.709 274.697 258.138 274.132V226.492C253.709 227.064 249.191 227.595 244.552 228.065Z" fill="#DCA815"/>
<path d="M129.069 229.821V277.468C133.532 277.781 138.056 278.061 142.655 278.285V230.631C138.056 230.407 133.532 230.134 129.069 229.821Z" fill="#DCA815"/>
<path d="M210.586 230.631V278.285C215.185 278.061 219.709 277.781 224.172 277.468V229.821C219.709 230.134 215.185 230.407 210.586 230.631Z" fill="#DCA815"/>
<path d="M176.621 231.461C174.345 231.461 172.083 231.44 169.828 231.42V279.074C172.083 279.094 174.345 279.115 176.621 279.115C178.896 279.115 181.159 279.094 183.414 279.074V231.42C181.159 231.44 178.896 231.461 176.621 231.461Z" fill="#DCA815"/>
<path d="M47.5518 286.427V334.047C51.682 335.571 56.2062 337.035 61.138 338.444V290.818C56.2062 289.415 51.682 287.945 47.5518 286.427Z" fill="#C49214"/>
<path d="M332.862 290.818V338.444C337.794 337.042 342.318 335.571 346.448 334.047V286.427C342.318 287.952 337.794 289.415 332.862 290.818Z" fill="#C49214"/>
<path d="M81.5173 295.761V343.394C85.8649 344.3 90.3959 345.157 95.1035 345.967V298.334C90.3959 297.524 85.8649 296.666 81.5173 295.761Z" fill="#C49214"/>
<path d="M298.896 298.334V345.974C303.604 345.157 308.135 344.3 312.483 343.394V295.761C308.135 296.666 303.604 297.524 298.896 298.334Z" fill="#C49214"/>
<path d="M115.483 301.376V349.017C119.912 349.589 124.429 350.12 129.069 350.596V302.956C124.429 302.472 119.912 301.942 115.483 301.376Z" fill="#C49214"/>
<path d="M264.931 302.949V350.596C269.571 350.113 274.088 349.582 278.517 349.017V301.376C274.088 301.948 269.571 302.479 264.931 302.949Z" fill="#C49214"/>
<path d="M149.448 304.706V352.353C153.911 352.666 158.436 352.945 163.034 353.17V305.516C158.436 305.291 153.911 305.019 149.448 304.706Z" fill="#C49214"/>
<path d="M230.966 305.516V353.17C235.565 352.945 240.089 352.666 244.552 352.353V304.706C240.089 305.019 235.565 305.291 230.966 305.516Z" fill="#C49214"/>
<path d="M197 306.346C194.724 306.346 192.462 306.325 190.207 306.305V353.959C192.462 353.979 194.724 353.999 197 353.999C199.276 353.999 201.538 353.979 203.793 353.959V306.305C201.538 306.325 199.276 306.346 197 306.346Z" fill="#C49214"/>
<path d="M347.888 247.61C328.596 264.615 259.245 279.116 176.621 279.116C112.018 279.116 55.5472 270.245 24.754 258.25C21.9213 260.824 20.3793 263.547 20.3793 266.385C20.3793 287.067 99.4578 306.347 197 306.347C294.549 306.347 373.621 287.067 373.621 266.385C373.621 259.258 364.212 252.886 347.888 247.61Z" fill="#FCC62D"/>
<path d="M217.379 204.231C127.622 204.231 53.5568 187.11 42.2939 168.266C15.9434 174.25 0 182.222 0 191.501C0 212.176 79.0785 231.462 176.621 231.462C274.163 231.462 353.241 212.176 353.241 191.501C353.241 190.589 353.038 189.697 352.732 188.812C320.336 197.948 271.738 204.231 217.379 204.231Z" fill="#FFD949"/>
<path d="M346.401 92.2378C325.267 108.712 257.282 122.539 176.621 122.539C124.531 122.539 77.7199 116.766 45.3916 108.243C42.3958 110.898 40.7587 113.689 40.7587 116.616C40.7587 137.298 119.837 156.577 217.379 156.577C314.922 156.577 394 137.298 394 116.616C394 106.731 375.91 98.3239 346.401 92.2378Z" fill="#FCC62D"/>
</g>
</svg>
